<svg width="250" height="250" viewBox="0 0 250 250" fill="none" xmlns="http://www.w3.org/2000/svg">
<path d="M250 125C250 194.036 194.036 250 125 250C55.9644 250 0 194.036 0 125C0 55.9644 55.9644 0 125 0C194.036 0 250 55.9644 250 125ZM31.25 125C31.25 176.777 73.2233 218.75 125 218.75C176.777 218.75 218.75 176.777 218.75 125C218.75 73.2233 176.777 31.25 125 31.25C73.2233 31.25 31.25 73.2233 31.25 125Z" fill="#505C9C" fill-opacity="0.4"/>
<path d="M111.671 16.4403C110.619 7.87513 116.725 -0.024205 125.354 9.7965e-05C151.978 0.0750785 178.037 8.65826 199.616 24.7129C225.396 43.8937 242.799 72.2656 248.213 103.939C253.627 135.612 246.636 168.154 228.691 194.809C210.746 221.464 183.225 240.184 151.842 247.084C120.459 253.984 87.6239 248.534 60.1533 231.864C32.6827 215.194 12.6866 188.586 4.31591 157.563C-4.05478 126.54 -0.157051 93.4846 15.2 65.2593C28.0541 41.6342 48.1101 22.9119 72.2471 11.6764C80.0705 8.03473 88.9266 12.6445 91.5646 20.8608C94.2026 29.0772 89.5943 37.7645 81.9295 41.729C65.3915 50.2831 51.6611 63.6325 42.65 80.1945C31.1322 101.363 28.2089 126.155 34.4869 149.422C40.765 172.69 55.762 192.646 76.365 205.148C96.9679 217.65 121.594 221.738 145.131 216.563C168.669 211.388 189.309 197.348 202.768 177.357C216.227 157.365 221.47 132.959 217.41 109.204C213.349 85.4492 200.297 64.1703 180.962 49.7847C165.835 38.5298 147.771 32.1708 129.17 31.3425C120.549 30.9586 112.722 25.0054 111.671 16.4403Z" fill="#5D6CB8"/>
<path fill-rule="evenodd" clip-rule="evenodd" d="M131.164 14.7454C131.17 14.3888 130.886 14.0946 130.53 14.0883L119.77 13.9005C119.413 13.8943 119.119 14.1784 119.113 14.5351L119.096 15.5062C119.089 15.8628 119.373 16.157 119.73 16.1632L130.49 16.3511C130.847 16.3573 131.141 16.0732 131.147 15.7165L131.164 14.7454Z" fill="white"/>
<path fill-rule="evenodd" clip-rule="evenodd" d="M130.315 14.6806C130.083 14.4482 129.701 14.4415 129.461 14.6657L124.618 19.1958C124.378 19.4199 124.372 19.7901 124.604 20.0225L125.258 20.6794C125.49 20.9118 125.872 20.9185 126.112 20.6943L130.955 16.1642C131.195 15.94 131.201 15.5699 130.969 15.3374L130.315 14.6806Z" fill="white"/>
<path fill-rule="evenodd" clip-rule="evenodd" d="M130.297 15.6937C130.057 15.9179 129.675 15.9112 129.443 15.6788L124.761 10.9825C124.529 10.75 124.536 10.3799 124.775 10.1557L125.453 9.5221C125.693 9.29791 126.075 9.30458 126.306 9.537L130.988 14.2333C131.22 14.4657 131.214 14.8359 130.974 15.0601L130.297 15.6937Z" fill="white"/>
</svg>
