<svg width="250" height="250" viewBox="0 0 250 250" fill="none" xmlns="http://www.w3.org/2000/svg">
<path d="M250 125C250 194.036 194.036 250 125 250C55.9644 250 0 194.036 0 125C0 55.9644 55.9644 0 125 0C194.036 0 250 55.9644 250 125ZM31.25 125C31.25 176.777 73.2233 218.75 125 218.75C176.777 218.75 218.75 176.777 218.75 125C218.75 73.2233 176.777 31.25 125 31.25C73.2233 31.25 31.25 73.2233 31.25 125Z" fill="#505C9C" fill-opacity="0.4"/>
<path d="M111.671 16.4403C110.619 7.87513 116.725 -0.0241817 125.354 0.000160932C150.982 0.0724551 176.111 8.02814 197.232 22.9828C222.627 40.9632 240.402 67.7684 247.084 98.1581C253.766 128.548 248.873 160.337 233.362 187.311C217.851 214.285 192.838 234.504 163.212 244.016C133.586 253.528 101.477 251.649 73.1633 238.745C44.8494 225.842 22.3658 202.842 10.1081 174.243C-2.14964 145.643 -3.30018 113.5 6.8814 84.0977C15.3496 59.6429 31.1506 38.5462 51.9468 23.5687C58.9492 18.5255 68.5123 21.3941 72.6431 28.9706C76.7739 36.5471 73.8751 45.9441 67.0889 51.2747C53.0308 62.3174 42.3315 77.2261 36.411 94.3233C28.7749 116.375 29.6378 140.482 38.8311 161.932C48.0243 183.382 64.887 200.631 86.1225 210.309C107.358 219.986 131.439 221.396 153.659 214.262C175.878 207.128 194.639 191.964 206.272 171.733C217.905 151.503 221.574 127.661 216.563 104.869C211.552 82.0763 198.22 61.9724 179.174 48.4871C164.408 38.0318 147.029 32.1378 129.17 31.3425C120.55 30.9586 112.722 25.0054 111.671 16.4403Z" fill="#5D6CB8"/>
<path fill-rule="evenodd" clip-rule="evenodd" d="M131.164 14.7454C131.17 14.3888 130.886 14.0946 130.53 14.0883L119.77 13.9005C119.413 13.8943 119.119 14.1784 119.113 14.5351L119.096 15.5062C119.089 15.8628 119.373 16.157 119.73 16.1632L130.49 16.3511C130.847 16.3573 131.141 16.0732 131.147 15.7165L131.164 14.7454Z" fill="white"/>
<path fill-rule="evenodd" clip-rule="evenodd" d="M130.315 14.6806C130.083 14.4482 129.701 14.4415 129.461 14.6657L124.618 19.1958C124.378 19.4199 124.372 19.7901 124.604 20.0225L125.258 20.6794C125.49 20.9118 125.872 20.9185 126.112 20.6943L130.955 16.1642C131.195 15.94 131.201 15.5699 130.969 15.3374L130.315 14.6806Z" fill="white"/>
<path fill-rule="evenodd" clip-rule="evenodd" d="M130.297 15.6937C130.057 15.9179 129.675 15.9112 129.443 15.6788L124.761 10.9825C124.529 10.75 124.536 10.3799 124.775 10.1557L125.453 9.5221C125.693 9.29791 126.075 9.30458 126.306 9.537L130.988 14.2333C131.22 14.4657 131.214 14.8359 130.974 15.0601L130.297 15.6937Z" fill="white"/>
</svg>
