<svg width="250" height="250" viewBox="0 0 250 250" fill="none" xmlns="http://www.w3.org/2000/svg">
<path d="M250 125C250 194.036 194.036 250 125 250C55.9644 250 0 194.036 0 125C0 55.9644 55.9644 0 125 0C194.036 0 250 55.9644 250 125ZM31.25 125C31.25 176.777 73.2233 218.75 125 218.75C176.777 218.75 218.75 176.777 218.75 125C218.75 73.2233 176.777 31.25 125 31.25C73.2233 31.25 31.25 73.2233 31.25 125Z" fill="#505C9C" fill-opacity="0.4"/>
<path d="M111.671 16.4403C110.619 7.87513 116.724 -0.0240338 125.354 0.000390395C145.364 0.0570249 165.149 4.91864 183.009 14.2751C205.501 26.0588 223.871 44.4129 235.674 66.8948C247.477 89.3766 252.154 114.92 249.082 140.125C246.009 165.331 235.333 189.003 218.475 207.991C201.616 226.979 179.375 240.382 154.711 246.418C130.046 252.453 104.129 250.834 80.4078 241.776C56.6865 232.717 36.2864 216.65 21.9225 195.711C10.5172 179.085 3.34707 160.014 0.921597 140.152C-0.124412 131.586 6.99627 124.588 15.6257 124.618C24.2551 124.648 31.0934 131.715 32.4953 140.23C34.7182 153.731 39.8807 166.647 47.6919 178.033C58.4648 193.737 73.7649 205.788 91.5558 212.582C109.347 219.375 128.785 220.59 147.283 216.063C165.781 211.537 182.462 201.484 195.106 187.243C207.75 173.002 215.757 155.248 218.061 136.344C220.366 117.44 216.858 98.2825 208.006 81.4211C199.153 64.5597 185.376 50.7941 168.507 41.9564C156.275 35.5483 142.839 31.9514 129.17 31.3427C120.549 30.9588 112.722 25.0054 111.671 16.4403Z" fill="#5D6CB8"/>
<path fill-rule="evenodd" clip-rule="evenodd" d="M131.164 14.7454C131.17 14.3888 130.886 14.0946 130.53 14.0883L119.77 13.9005C119.413 13.8943 119.119 14.1784 119.113 14.5351L119.096 15.5062C119.089 15.8628 119.373 16.157 119.73 16.1632L130.49 16.3511C130.847 16.3573 131.141 16.0732 131.147 15.7165L131.164 14.7454Z" fill="white"/>
<path fill-rule="evenodd" clip-rule="evenodd" d="M130.315 14.6806C130.083 14.4482 129.701 14.4415 129.461 14.6657L124.618 19.1958C124.378 19.4199 124.372 19.7901 124.604 20.0225L125.258 20.6794C125.49 20.9118 125.872 20.9185 126.112 20.6943L130.955 16.1642C131.195 15.94 131.201 15.5699 130.969 15.3374L130.315 14.6806Z" fill="white"/>
<path fill-rule="evenodd" clip-rule="evenodd" d="M130.297 15.6937C130.057 15.9179 129.675 15.9112 129.443 15.6788L124.761 10.9825C124.529 10.75 124.536 10.3799 124.775 10.1557L125.453 9.5221C125.693 9.29791 126.075 9.30458 126.306 9.537L130.988 14.2333C131.22 14.4657 131.214 14.8359 130.974 15.0601L130.297 15.6937Z" fill="white"/>
</svg>
