<svg width="250" height="250" viewBox="0 0 250 250" fill="none" xmlns="http://www.w3.org/2000/svg">
<path d="M250 125C250 194.036 194.036 250 125 250C55.9644 250 0 194.036 0 125C0 55.9644 55.9644 0 125 0C194.036 0 250 55.9644 250 125ZM31.25 125C31.25 176.777 73.2233 218.75 125 218.75C176.777 218.75 218.75 176.777 218.75 125C218.75 73.2233 176.777 31.25 125 31.25C73.2233 31.25 31.25 73.2233 31.25 125Z" fill="#505C9C" fill-opacity="0.4"/>
<path d="M111.671 16.4403C110.619 7.87513 116.725 -0.0241165 125.354 0.000263773C148.995 0.067055 172.25 6.84157 192.346 19.6935C216.852 35.3652 235.124 59.0926 244.016 86.7881C252.908 114.484 251.863 144.413 241.061 171.421C232.202 193.569 217.237 212.615 198.053 226.431C191.051 231.475 181.488 228.606 177.357 221.029C173.226 213.453 176.125 204.056 182.911 198.725C195.803 188.599 205.89 175.206 212.046 159.816C220.147 139.56 220.931 117.113 214.262 96.3411C207.593 75.5694 193.889 57.7739 175.51 46.0201C161.546 37.0898 145.548 32.072 129.17 31.3426C120.55 30.9587 112.722 25.0054 111.671 16.4403Z" fill="#5D6CB8"/>
<path fill-rule="evenodd" clip-rule="evenodd" d="M131.164 14.7445C131.17 14.3878 130.886 14.0936 130.53 14.0874L119.77 13.8995C119.413 13.8933 119.119 14.1774 119.113 14.5341L119.096 15.5052C119.089 15.8618 119.373 16.156 119.73 16.1623L130.49 16.3501C130.847 16.3563 131.141 16.0722 131.147 15.7155L131.164 14.7445Z" fill="white"/>
<path fill-rule="evenodd" clip-rule="evenodd" d="M130.315 14.6796C130.083 14.4472 129.701 14.4405 129.461 14.6647L124.618 19.1948C124.378 19.419 124.372 19.7891 124.604 20.0216L125.258 20.6784C125.49 20.9108 125.872 20.9175 126.112 20.6933L130.955 16.1632C131.195 15.939 131.201 15.5689 130.969 15.3365L130.315 14.6796Z" fill="white"/>
<path fill-rule="evenodd" clip-rule="evenodd" d="M130.297 15.6946C130.057 15.9188 129.675 15.9122 129.443 15.6797L124.761 10.9834C124.529 10.751 124.536 10.3809 124.775 10.1567L125.453 9.52308C125.693 9.29889 126.075 9.30556 126.306 9.53798L130.988 14.2343C131.22 14.4667 131.214 14.8369 130.974 15.0611L130.297 15.6946Z" fill="white"/>
</svg>
