<svg width="250" height="250" viewBox="0 0 250 250" fill="none" xmlns="http://www.w3.org/2000/svg">
<path d="M250 125C250 194.036 194.036 250 125 250C55.9644 250 0 194.036 0 125C0 55.9644 55.9644 0 125 0C194.036 0 250 55.9644 250 125ZM31.25 125C31.25 176.777 73.2233 218.75 125 218.75C176.777 218.75 218.75 176.777 218.75 125C218.75 73.2233 176.777 31.25 125 31.25C73.2233 31.25 31.25 73.2233 31.25 125Z" fill="#505C9C" fill-opacity="0.4"/>
<path d="M250 125C250 194.036 194.036 250 125 250C55.9644 250 0 194.036 0 125C0 55.9644 55.9644 0 125 0C194.036 0 250 55.9644 250 125ZM31.25 125C31.25 176.777 73.2233 218.75 125 218.75C176.777 218.75 218.75 176.777 218.75 125C218.75 73.2233 176.777 31.25 125 31.25C73.2233 31.25 31.25 73.2233 31.25 125Z" fill="#5D6CB8"/>
<path fill-rule="evenodd" clip-rule="evenodd" d="M131.164 14.7443C131.17 14.3877 130.886 14.0935 130.53 14.0872L119.77 13.8994C119.413 13.8932 119.119 14.1773 119.113 14.534L119.096 15.5051C119.089 15.8617 119.373 16.1559 119.73 16.1621L130.49 16.35C130.847 16.3562 131.141 16.0721 131.147 15.7154L131.164 14.7443Z" fill="white"/>
<path fill-rule="evenodd" clip-rule="evenodd" d="M130.315 14.6796C130.083 14.4472 129.701 14.4405 129.461 14.6647L124.618 19.1948C124.378 19.419 124.372 19.7891 124.604 20.0216L125.258 20.6784C125.49 20.9108 125.872 20.9175 126.112 20.6933L130.955 16.1632C131.195 15.939 131.201 15.5689 130.969 15.3365L130.315 14.6796Z" fill="white"/>
<path fill-rule="evenodd" clip-rule="evenodd" d="M130.297 15.6942C130.057 15.9184 129.675 15.9117 129.443 15.6793L124.761 10.983C124.529 10.7505 124.536 10.3804 124.775 10.1562L125.453 9.52259C125.693 9.2984 126.075 9.30507 126.306 9.53749L130.988 14.2338C131.22 14.4662 131.214 14.8364 130.974 15.0606L130.297 15.6942Z" fill="white"/>
<path d="M125 49.8591C125 47.1755 127.178 44.9846 129.856 45.1475C145.457 46.096 160.478 51.5984 173.034 61.0252C186.887 71.4269 196.99 86.0446 201.824 102.681C206.657 119.317 205.959 137.072 199.836 153.278C194.286 167.965 184.551 180.659 171.887 189.82C169.713 191.392 166.7 190.709 165.262 188.444C163.825 186.178 164.507 183.188 166.669 181.597C177.562 173.578 185.939 162.561 190.745 149.843C196.124 135.606 196.737 120.007 192.491 105.392C188.245 90.7768 179.369 77.9349 167.199 68.7968C156.327 60.6338 143.35 55.8204 129.856 54.8861C127.178 54.7008 125 52.5427 125 49.8591Z" fill="white"/>
</svg>
