<svg width="250" height="250" viewBox="0 0 250 250" fill="none" xmlns="http://www.w3.org/2000/svg">
<path d="M250 125C250 194.036 194.036 250 125 250C55.9644 250 0 194.036 0 125C0 55.9644 55.9644 0 125 0C194.036 0 250 55.9644 250 125ZM31.25 125C31.25 176.777 73.2233 218.75 125 218.75C176.777 218.75 218.75 176.777 218.75 125C218.75 73.2233 176.777 31.25 125 31.25C73.2233 31.25 31.25 73.2233 31.25 125Z" fill="#505C9C" fill-opacity="0.4"/>
<path d="M111.671 16.4403C110.619 7.87513 116.724 -0.023919 125.354 0.000493277C136.828 0.0329549 148.269 1.64539 159.35 4.81227C175.451 9.41397 190.463 17.2039 203.495 27.7196C216.528 38.2353 227.314 51.2624 235.214 66.0273C243.115 80.7923 247.968 96.9941 249.486 113.671C251.003 130.348 249.155 147.16 244.049 163.108C238.944 179.057 230.687 193.817 219.767 206.512C208.847 219.208 195.487 229.58 180.482 237.012C170.155 242.128 159.193 245.779 147.912 247.882C139.429 249.464 131.998 242.797 131.487 234.182C130.975 225.568 137.598 218.3 146.008 216.366C153.122 214.73 160.038 212.265 166.611 209.009C177.866 203.435 187.885 195.656 196.075 186.134C204.265 176.613 210.458 165.542 214.287 153.581C218.116 141.62 219.502 129.011 218.364 116.503C217.226 103.996 213.586 91.8442 207.661 80.7705C201.736 69.6968 193.646 59.9265 183.872 52.0397C174.097 44.1529 162.838 38.3105 150.762 34.8592C143.71 32.8435 136.462 31.6675 129.17 31.3428C120.549 30.9589 112.722 25.0054 111.671 16.4403Z" fill="#5D6CB8"/>
<path fill-rule="evenodd" clip-rule="evenodd" d="M131.164 14.7445C131.17 14.3878 130.886 14.0936 130.53 14.0874L119.77 13.8995C119.413 13.8933 119.119 14.1774 119.113 14.5341L119.096 15.5052C119.089 15.8618 119.373 16.156 119.73 16.1623L130.49 16.3501C130.847 16.3563 131.141 16.0722 131.147 15.7155L131.164 14.7445Z" fill="white"/>
<path fill-rule="evenodd" clip-rule="evenodd" d="M130.315 14.6796C130.083 14.4472 129.701 14.4405 129.461 14.6647L124.618 19.1948C124.378 19.419 124.372 19.7891 124.604 20.0216L125.258 20.6784C125.49 20.9108 125.872 20.9175 126.112 20.6933L130.955 16.1632C131.195 15.939 131.201 15.5689 130.969 15.3365L130.315 14.6796Z" fill="white"/>
<path fill-rule="evenodd" clip-rule="evenodd" d="M130.297 15.6946C130.057 15.9188 129.675 15.9122 129.443 15.6797L124.761 10.9834C124.529 10.751 124.536 10.3809 124.775 10.1567L125.453 9.52308C125.693 9.29889 126.075 9.30556 126.306 9.53798L130.988 14.2343C131.22 14.4667 131.214 14.8369 130.974 15.0611L130.297 15.6946Z" fill="white"/>
</svg>
