<svg width="250" height="250" viewBox="0 0 250 250" fill="none" xmlns="http://www.w3.org/2000/svg">
<path d="M250 125C250 194.036 194.036 250 125 250C55.9644 250 0 194.036 0 125C0 55.9644 55.9644 0 125 0C194.036 0 250 55.9644 250 125ZM31.25 125C31.25 176.777 73.2233 218.75 125 218.75C176.777 218.75 218.75 176.777 218.75 125C218.75 73.2233 176.777 31.25 125 31.25C73.2233 31.25 31.25 73.2233 31.25 125Z" fill="#505C9C" fill-opacity="0.4"/>
<path d="M250 125C250 194.036 194.036 250 125 250C55.9644 250 0 194.036 0 125C0 55.9644 55.9644 0 125 0C194.036 0 250 55.9644 250 125ZM31.25 125C31.25 176.777 73.2233 218.75 125 218.75C176.777 218.75 218.75 176.777 218.75 125C218.75 73.2233 176.777 31.25 125 31.25C73.2233 31.25 31.25 73.2233 31.25 125Z" fill="#5D6CB8"/>
<path fill-rule="evenodd" clip-rule="evenodd" d="M131.164 14.7445C131.17 14.3878 130.886 14.0936 130.53 14.0874L119.77 13.8995C119.413 13.8933 119.119 14.1774 119.113 14.5341L119.096 15.5052C119.089 15.8618 119.373 16.156 119.73 16.1623L130.49 16.3501C130.847 16.3563 131.141 16.0722 131.147 15.7155L131.164 14.7445Z" fill="white"/>
<path fill-rule="evenodd" clip-rule="evenodd" d="M130.315 14.6796C130.083 14.4472 129.701 14.4405 129.461 14.6647L124.618 19.1948C124.378 19.419 124.372 19.7891 124.604 20.0216L125.258 20.6784C125.49 20.9108 125.872 20.9175 126.112 20.6933L130.955 16.1632C131.195 15.939 131.201 15.5689 130.969 15.3365L130.315 14.6796Z" fill="white"/>
<path fill-rule="evenodd" clip-rule="evenodd" d="M130.297 15.6946C130.057 15.9188 129.675 15.9122 129.443 15.6797L124.761 10.9834C124.529 10.751 124.536 10.3809 124.775 10.1567L125.453 9.52308C125.693 9.29889 126.075 9.30556 126.306 9.53798L130.988 14.2343C131.22 14.4667 131.214 14.8369 130.974 15.0611L130.297 15.6946Z" fill="white"/>
<path d="M125 49.8591C125 47.1755 127.178 44.9846 129.857 45.1475C147.375 46.2125 164.109 53.016 177.432 64.5775C191.982 77.2034 201.488 94.6557 204.202 113.728C206.916 132.8 202.657 152.211 192.207 168.395C181.758 184.579 165.819 196.449 147.319 201.824C128.82 207.198 109.002 205.717 91.5072 197.651C74.0123 189.586 60.0153 175.479 52.0877 157.921C44.1601 140.363 42.8344 120.535 48.3542 102.078C53.4086 85.1773 63.8919 70.4664 78.1124 60.1805C80.2868 58.6077 83.2996 59.2906 84.7375 61.5564C86.1755 63.8223 85.4927 66.8115 83.3315 68.4025C71.081 77.4212 62.0487 90.2044 57.665 104.863C52.8157 121.077 53.9804 138.497 60.945 153.922C67.9095 169.347 80.2062 181.74 95.5758 188.826C110.945 195.911 128.356 197.213 144.608 192.491C160.86 187.769 174.863 177.342 184.043 163.124C193.224 148.906 196.965 131.853 194.581 115.097C192.196 98.3418 183.845 83.0096 171.063 71.9175C159.507 61.8901 145.031 55.9367 129.855 54.8861C127.178 54.7007 125 52.5427 125 49.8591Z" fill="white"/>
</svg>
