<svg width="250" height="250" viewBox="0 0 250 250" fill="none" xmlns="http://www.w3.org/2000/svg">
<path d="M250 125C250 194.036 194.036 250 125 250C55.9644 250 0 194.036 0 125C0 55.9644 55.9644 0 125 0C194.036 0 250 55.9644 250 125ZM31.25 125C31.25 176.777 73.2233 218.75 125 218.75C176.777 218.75 218.75 176.777 218.75 125C218.75 73.2233 176.777 31.25 125 31.25C73.2233 31.25 31.25 73.2233 31.25 125Z" fill="#505C9C" fill-opacity="0.4"/>
<path d="M111.671 16.4403C110.619 7.87513 116.724 -0.0239638 125.354 0.00046172C141.418 0.0459305 157.373 3.18793 172.331 9.30745C192.126 17.4058 209.512 30.4477 222.826 47.1857C236.14 63.9237 244.937 83.7979 248.375 104.907C251.812 126.017 249.777 147.655 242.462 167.753C235.147 187.85 222.797 205.735 206.595 219.696C190.393 233.657 170.879 243.227 149.921 247.491C128.963 251.755 107.261 250.57 86.8919 244.049C71.4998 239.122 57.2575 231.273 44.9227 220.982C38.2965 215.454 38.697 205.479 45.0082 199.594C51.3193 193.708 61.142 194.179 67.9928 199.426C76.5135 205.953 86.1232 210.991 96.4189 214.287C111.696 219.177 127.972 220.066 143.691 216.868C159.409 213.67 174.044 206.492 186.196 196.022C198.348 185.551 207.61 172.138 213.096 157.064C218.582 141.991 220.109 125.762 217.531 109.93C214.953 94.0984 208.355 79.1928 198.37 66.6393C188.384 54.0858 175.345 44.3043 160.498 38.2306C150.493 34.1373 139.893 31.8202 129.17 31.3428C120.549 30.9589 112.722 25.0054 111.671 16.4403Z" fill="#5D6CB8"/>
<path fill-rule="evenodd" clip-rule="evenodd" d="M131.164 14.7445C131.17 14.3878 130.886 14.0936 130.53 14.0874L119.77 13.8995C119.413 13.8933 119.119 14.1774 119.113 14.5341L119.096 15.5052C119.089 15.8618 119.373 16.156 119.73 16.1623L130.49 16.3501C130.847 16.3563 131.141 16.0722 131.147 15.7155L131.164 14.7445Z" fill="white"/>
<path fill-rule="evenodd" clip-rule="evenodd" d="M130.315 14.6796C130.083 14.4472 129.701 14.4405 129.461 14.6647L124.618 19.1948C124.378 19.419 124.372 19.7891 124.604 20.0216L125.258 20.6784C125.49 20.9108 125.872 20.9175 126.112 20.6933L130.955 16.1632C131.195 15.939 131.201 15.5689 130.969 15.3365L130.315 14.6796Z" fill="white"/>
<path fill-rule="evenodd" clip-rule="evenodd" d="M130.297 15.6946C130.057 15.9188 129.675 15.9122 129.443 15.6797L124.761 10.9834C124.529 10.751 124.536 10.3809 124.775 10.1567L125.453 9.52308C125.693 9.29889 126.075 9.30556 126.306 9.53798L130.988 14.2343C131.22 14.4667 131.214 14.8369 130.974 15.0611L130.297 15.6946Z" fill="white"/>
</svg>
