<svg width="250" height="250" viewBox="0 0 250 250" fill="none" xmlns="http://www.w3.org/2000/svg">
<path d="M250 125C250 194.036 194.036 250 125 250C55.9644 250 0 194.036 0 125C0 55.9644 55.9644 0 125 0C194.036 0 250 55.9644 250 125ZM31.25 125C31.25 176.777 73.2233 218.75 125 218.75C176.777 218.75 218.75 176.777 218.75 125C218.75 73.2233 176.777 31.25 125 31.25C73.2233 31.25 31.25 73.2233 31.25 125Z" fill="#505C9C" fill-opacity="0.4"/>
<path d="M250 125C250 194.036 194.036 250 125 250C55.9644 250 0 194.036 0 125C0 55.9644 55.9644 0 125 0C194.036 0 250 55.9644 250 125ZM31.25 125C31.25 176.777 73.2233 218.75 125 218.75C176.777 218.75 218.75 176.777 218.75 125C218.75 73.2233 176.777 31.25 125 31.25C73.2233 31.25 31.25 73.2233 31.25 125Z" fill="#5D6CB8"/>
<path fill-rule="evenodd" clip-rule="evenodd" d="M131.164 14.744C131.17 14.3873 130.886 14.0931 130.53 14.0869L119.77 13.8991C119.413 13.8928 119.119 14.1769 119.113 14.5336L119.096 15.5047C119.089 15.8614 119.373 16.1556 119.73 16.1618L130.49 16.3496C130.847 16.3558 131.141 16.0717 131.147 15.715L131.164 14.744Z" fill="white"/>
<path fill-rule="evenodd" clip-rule="evenodd" d="M130.315 14.6796C130.083 14.4472 129.701 14.4405 129.461 14.6647L124.618 19.1948C124.378 19.419 124.372 19.7891 124.604 20.0216L125.258 20.6784C125.49 20.9108 125.872 20.9175 126.112 20.6933L130.955 16.1632C131.195 15.939 131.201 15.5689 130.969 15.3365L130.315 14.6796Z" fill="white"/>
<path fill-rule="evenodd" clip-rule="evenodd" d="M130.297 15.6937C130.057 15.9179 129.675 15.9112 129.443 15.6788L124.761 10.9825C124.529 10.75 124.536 10.3799 124.775 10.1557L125.453 9.5221C125.693 9.29791 126.075 9.30458 126.306 9.537L130.988 14.2333C131.22 14.4657 131.214 14.8359 130.974 15.0601L130.297 15.6937Z" fill="white"/>
<path d="M125 49.8591C125 47.1755 127.178 44.9846 129.856 45.1475C143.548 45.9801 156.826 50.3223 168.395 57.7925C181.328 66.1432 191.577 78.0481 197.912 92.0788C204.247 106.11 206.4 121.67 204.111 136.894C201.822 152.117 195.19 166.357 185.009 177.905C174.828 189.453 161.532 197.818 146.715 201.996C131.899 206.175 116.191 205.99 101.477 201.463C86.7627 196.937 73.6671 188.261 63.7613 176.476C54.9 165.935 48.9279 153.306 46.3858 139.826C45.8885 137.189 47.7892 134.754 50.4516 134.418C53.1141 134.081 55.5281 135.972 56.0475 138.605C58.341 150.229 63.5427 161.113 71.2005 170.223C79.9029 180.576 91.4077 188.198 104.334 192.175C117.261 196.152 131.061 196.314 144.077 192.643C157.094 188.972 168.775 181.623 177.719 171.478C186.663 161.333 192.49 148.823 194.501 135.449C196.511 122.075 194.621 108.404 189.055 96.078C183.489 83.7517 174.486 73.293 163.124 65.9568C153.126 59.5011 141.676 55.7046 129.855 54.8861C127.178 54.7008 125 52.5427 125 49.8591Z" fill="white"/>
</svg>
