<svg width="250" height="250" viewBox="0 0 250 250" fill="none" xmlns="http://www.w3.org/2000/svg">
<path d="M250 125C250 194.036 194.036 250 125 250C55.9644 250 0 194.036 0 125C0 55.9644 55.9644 0 125 0C194.036 0 250 55.9644 250 125ZM31.25 125C31.25 176.777 73.2233 218.75 125 218.75C176.777 218.75 218.75 176.777 218.75 125C218.75 73.2233 176.777 31.25 125 31.25C73.2233 31.25 31.25 73.2233 31.25 125Z" fill="#505C9C" fill-opacity="0.4"/>
<path d="M111.671 16.4403C110.619 7.87513 116.724 -0.0239567 125.354 0.00046531C141.089 0.0449985 156.724 3.06081 171.421 8.93928C190.97 16.7584 208.228 29.3889 221.592 45.6587C234.956 61.9285 243.994 81.3105 247.867 102.006C251.74 122.702 250.323 144.04 243.746 164.042C237.17 184.043 225.648 202.06 210.25 216.419C194.851 230.779 176.075 241.016 155.663 246.181C135.252 251.346 113.866 251.271 93.4913 245.964C78.1732 241.974 63.7994 235.123 51.1074 225.821C44.1472 220.72 43.9206 210.739 49.8498 204.469C55.779 198.199 65.6118 198.052 72.7785 202.859C81.4884 208.701 91.1482 213.061 101.368 215.723C116.65 219.703 132.689 219.759 147.998 215.886C163.306 212.012 177.388 204.334 188.937 193.564C200.486 182.795 209.128 169.283 214.06 154.281C218.992 139.28 220.055 123.276 217.15 107.755C214.245 92.2329 207.467 77.6964 197.444 65.494C187.421 53.2917 174.478 43.8188 159.816 37.9545C150.01 34.0323 139.647 31.8093 129.17 31.3428C120.549 30.9589 112.722 25.0054 111.671 16.4403Z" fill="#5D6CB8"/>
<path fill-rule="evenodd" clip-rule="evenodd" d="M131.164 14.7445C131.17 14.3878 130.886 14.0936 130.53 14.0874L119.77 13.8995C119.413 13.8933 119.119 14.1774 119.113 14.5341L119.096 15.5052C119.089 15.8618 119.373 16.156 119.73 16.1623L130.49 16.3501C130.847 16.3563 131.141 16.0722 131.147 15.7155L131.164 14.7445Z" fill="white"/>
<path fill-rule="evenodd" clip-rule="evenodd" d="M130.315 14.6796C130.083 14.4472 129.701 14.4405 129.461 14.6647L124.618 19.1948C124.378 19.419 124.372 19.7891 124.604 20.0216L125.258 20.6784C125.49 20.9108 125.872 20.9175 126.112 20.6933L130.955 16.1632C131.195 15.939 131.201 15.5689 130.969 15.3365L130.315 14.6796Z" fill="white"/>
<path fill-rule="evenodd" clip-rule="evenodd" d="M130.297 15.6946C130.057 15.9188 129.675 15.9122 129.443 15.6797L124.761 10.9834C124.529 10.751 124.536 10.3809 124.775 10.1567L125.453 9.52308C125.693 9.29889 126.075 9.30556 126.306 9.53798L130.988 14.2343C131.22 14.4667 131.214 14.8369 130.974 15.0611L130.297 15.6946Z" fill="white"/>
</svg>
