<svg width="250" height="250" viewBox="0 0 250 250" fill="none" xmlns="http://www.w3.org/2000/svg">
<path d="M250 125C250 194.036 194.036 250 125 250C55.9644 250 0 194.036 0 125C0 55.9644 55.9644 0 125 0C194.036 0 250 55.9644 250 125ZM31.25 125C31.25 176.777 73.2233 218.75 125 218.75C176.777 218.75 218.75 176.777 218.75 125C218.75 73.2233 176.777 31.25 125 31.25C73.2233 31.25 31.25 73.2233 31.25 125Z" fill="#505C9C" fill-opacity="0.4"/>
<path d="M111.671 16.4403C110.619 7.87513 116.724 -0.0239926 125.354 0.000426525C143.718 0.0523922 161.913 4.15129 178.617 12.0831C200.044 22.2575 218.134 38.3186 230.774 58.3905C243.414 78.4623 250.082 101.716 249.999 125.436C249.916 149.156 243.086 172.363 230.307 192.346C217.527 212.329 199.325 228.264 177.827 238.288C156.33 248.313 132.423 252.014 108.901 248.959C85.378 245.904 63.2101 236.219 44.9863 221.035C30.7793 209.199 19.4265 194.401 11.6765 177.752C8.03475 169.929 12.6445 161.073 20.8609 158.435C29.0772 155.797 37.7647 160.406 41.7293 168.07C47.4502 179.131 55.3426 188.989 64.9897 197.027C78.6576 208.414 95.2835 215.678 112.925 217.969C130.567 220.26 148.497 217.485 164.62 209.966C180.744 202.448 194.395 190.497 203.98 175.51C213.565 160.522 218.687 143.117 218.749 125.327C218.812 107.537 213.811 90.0967 204.331 75.0429C194.851 59.989 181.283 47.9431 165.213 40.3123C153.87 34.9263 141.61 31.8967 129.17 31.3428C120.549 30.9589 112.722 25.0054 111.671 16.4403Z" fill="#5D6CB8"/>
<path fill-rule="evenodd" clip-rule="evenodd" d="M131.164 14.7445C131.17 14.3878 130.886 14.0936 130.53 14.0874L119.77 13.8995C119.413 13.8933 119.119 14.1774 119.113 14.5341L119.096 15.5052C119.089 15.8618 119.373 16.156 119.73 16.1623L130.49 16.3501C130.847 16.3563 131.141 16.0722 131.147 15.7155L131.164 14.7445Z" fill="white"/>
<path fill-rule="evenodd" clip-rule="evenodd" d="M130.315 14.6796C130.083 14.4472 129.701 14.4405 129.461 14.6647L124.618 19.1948C124.378 19.419 124.372 19.7891 124.604 20.0216L125.258 20.6784C125.49 20.9108 125.872 20.9175 126.112 20.6933L130.955 16.1632C131.195 15.939 131.201 15.5689 130.969 15.3365L130.315 14.6796Z" fill="white"/>
<path fill-rule="evenodd" clip-rule="evenodd" d="M130.297 15.6946C130.057 15.9188 129.675 15.9122 129.443 15.6797L124.761 10.9834C124.529 10.751 124.536 10.3809 124.775 10.1567L125.453 9.52308C125.693 9.29889 126.075 9.30556 126.306 9.53798L130.988 14.2343C131.22 14.4667 131.214 14.8369 130.974 15.0611L130.297 15.6946Z" fill="white"/>
</svg>
