<svg width="250" height="250" viewBox="0 0 250 250" fill="none" xmlns="http://www.w3.org/2000/svg">
<path d="M250 125C250 194.036 194.036 250 125 250C55.9644 250 0 194.036 0 125C0 55.9644 55.9644 0 125 0C194.036 0 250 55.9644 250 125ZM31.25 125C31.25 176.777 73.2233 218.75 125 218.75C176.777 218.75 218.75 176.777 218.75 125C218.75 73.2233 176.777 31.25 125 31.25C73.2233 31.25 31.25 73.2233 31.25 125Z" fill="#505C9C" fill-opacity="0.4"/>
<path d="M250 125C250 194.036 194.036 250 125 250C55.9644 250 0 194.036 0 125C0 55.9644 55.9644 0 125 0C194.036 0 250 55.9644 250 125ZM31.25 125C31.25 176.777 73.2233 218.75 125 218.75C176.777 218.75 218.75 176.777 218.75 125C218.75 73.2233 176.777 31.25 125 31.25C73.2233 31.25 31.25 73.2233 31.25 125Z" fill="#5D6CB8"/>
<path fill-rule="evenodd" clip-rule="evenodd" d="M131.164 14.744C131.17 14.3873 130.886 14.0931 130.53 14.0869L119.77 13.8991C119.413 13.8928 119.119 14.1769 119.113 14.5336L119.096 15.5047C119.089 15.8614 119.373 16.1556 119.73 16.1618L130.49 16.3496C130.847 16.3558 131.141 16.0717 131.147 15.715L131.164 14.744Z" fill="white"/>
<path fill-rule="evenodd" clip-rule="evenodd" d="M130.315 14.6796C130.083 14.4472 129.701 14.4405 129.461 14.6647L124.618 19.1948C124.378 19.419 124.372 19.7891 124.604 20.0216L125.258 20.6784C125.49 20.9108 125.872 20.9175 126.112 20.6933L130.955 16.1632C131.195 15.939 131.201 15.5689 130.969 15.3365L130.315 14.6796Z" fill="white"/>
<path fill-rule="evenodd" clip-rule="evenodd" d="M130.297 15.6937C130.057 15.9179 129.675 15.9112 129.443 15.6788L124.761 10.9825C124.529 10.75 124.536 10.3799 124.775 10.1557L125.453 9.5221C125.693 9.29791 126.075 9.30458 126.306 9.537L130.988 14.2333C131.22 14.4657 131.214 14.8359 130.974 15.0601L130.297 15.6937Z" fill="white"/>
<path d="M125 49.8591C125 47.1755 127.178 44.9846 129.856 45.1475C142.702 45.9287 155.196 49.7999 166.263 56.4626C178.72 63.9623 188.897 74.7153 195.701 87.5656C202.505 100.416 205.678 114.878 204.879 129.396C204.08 143.914 199.339 157.941 191.166 169.967C182.994 181.993 171.698 191.564 158.493 197.651C145.288 203.739 130.674 206.112 116.221 204.517C101.769 202.921 88.0242 197.417 76.4654 188.596C66.1967 180.759 57.998 170.567 52.5428 158.911C51.4052 156.48 52.6406 153.649 55.1358 152.661C57.6309 151.673 60.4392 152.904 61.5972 155.325C66.3885 165.343 73.497 174.105 82.3613 180.87C92.516 188.62 104.591 193.456 117.288 194.857C129.985 196.259 142.823 194.174 154.424 188.826C166.025 183.478 175.949 175.069 183.129 164.504C190.309 153.939 194.474 141.617 195.176 128.862C195.878 116.107 193.09 103.402 187.113 92.1131C181.135 80.8238 172.194 71.3771 161.25 64.7884C151.697 59.037 140.934 55.6532 129.855 54.8861C127.178 54.7008 125 52.5427 125 49.8591Z" fill="white"/>
</svg>
