<svg width="250" height="250" viewBox="0 0 250 250" fill="none" xmlns="http://www.w3.org/2000/svg">
<path d="M250 125C250 194.036 194.036 250 125 250C55.9644 250 0 194.036 0 125C0 55.9644 55.9644 0 125 0C194.036 0 250 55.9644 250 125ZM31.25 125C31.25 176.777 73.2233 218.75 125 218.75C176.777 218.75 218.75 176.777 218.75 125C218.75 73.2233 176.777 31.25 125 31.25C73.2233 31.25 31.25 73.2233 31.25 125Z" fill="#505C9C" fill-opacity="0.4"/>
<path d="M111.671 16.4403C110.619 7.87513 116.724 -0.0240659 125.354 0.000329809C147.342 0.0624924 169.026 5.92724 188.16 17.1306C211.809 30.9777 230.252 52.2129 240.651 77.568C251.05 102.923 252.828 130.993 245.712 157.458C238.596 183.922 222.981 207.315 201.268 224.036C179.556 240.757 152.95 249.879 125.545 249.999C98.1409 250.118 71.4566 241.229 49.599 224.698C27.7414 208.167 11.922 184.912 4.57539 158.51C-1.36863 137.149 -1.49976 114.686 4.05703 93.4114C6.23779 85.062 15.4345 81.1769 23.4469 84.3816C31.4592 87.5863 35.2156 96.6746 33.3846 105.108C30.168 119.922 30.5759 135.378 34.6815 150.132C40.1915 169.934 52.0561 187.375 68.4492 199.773C84.8424 212.172 104.856 218.839 125.409 218.749C145.962 218.659 165.917 211.818 182.201 199.277C198.485 186.737 210.197 169.192 215.534 149.343C220.871 129.495 219.538 108.442 211.738 89.426C203.939 70.4097 190.107 54.4833 172.37 44.098C159.154 36.3595 144.315 32.0171 129.17 31.3427C120.549 30.9588 112.722 25.0054 111.671 16.4403Z" fill="#5D6CB8"/>
<path fill-rule="evenodd" clip-rule="evenodd" d="M131.164 14.7454C131.17 14.3888 130.886 14.0946 130.53 14.0883L119.77 13.9005C119.413 13.8943 119.119 14.1784 119.113 14.5351L119.096 15.5062C119.089 15.8628 119.373 16.157 119.73 16.1632L130.49 16.3511C130.847 16.3573 131.141 16.0732 131.147 15.7165L131.164 14.7454Z" fill="white"/>
<path fill-rule="evenodd" clip-rule="evenodd" d="M130.315 14.6806C130.083 14.4482 129.701 14.4415 129.461 14.6657L124.618 19.1958C124.378 19.4199 124.372 19.7901 124.604 20.0225L125.258 20.6794C125.49 20.9118 125.872 20.9185 126.112 20.6943L130.955 16.1642C131.195 15.94 131.201 15.5699 130.969 15.3374L130.315 14.6806Z" fill="white"/>
<path fill-rule="evenodd" clip-rule="evenodd" d="M130.297 15.6937C130.057 15.9179 129.675 15.9112 129.443 15.6788L124.761 10.9825C124.529 10.75 124.536 10.3799 124.775 10.1557L125.453 9.5221C125.693 9.29791 126.075 9.30458 126.306 9.537L130.988 14.2333C131.22 14.4657 131.214 14.8359 130.974 15.0601L130.297 15.6937Z" fill="white"/>
</svg>
