<svg width="250" height="250" viewBox="0 0 250 250" fill="none" xmlns="http://www.w3.org/2000/svg">
<path d="M250 125C250 194.036 194.036 250 125 250C55.9644 250 0 194.036 0 125C0 55.9644 55.9644 0 125 0C194.036 0 250 55.9644 250 125ZM31.25 125C31.25 176.777 73.2233 218.75 125 218.75C176.777 218.75 218.75 176.777 218.75 125C218.75 73.2233 176.777 31.25 125 31.25C73.2233 31.25 31.25 73.2233 31.25 125Z" fill="#505C9C" fill-opacity="0.4"/>
<path d="M250 125C250 194.036 194.036 250 125 250C55.9644 250 0 194.036 0 125C0 55.9644 55.9644 0 125 0C194.036 0 250 55.9644 250 125ZM31.25 125C31.25 176.777 73.2233 218.75 125 218.75C176.777 218.75 218.75 176.777 218.75 125C218.75 73.2233 176.777 31.25 125 31.25C73.2233 31.25 31.25 73.2233 31.25 125Z" fill="#5D6CB8"/>
<path fill-rule="evenodd" clip-rule="evenodd" d="M131.164 14.744C131.17 14.3873 130.886 14.0931 130.53 14.0869L119.77 13.8991C119.413 13.8928 119.119 14.1769 119.113 14.5336L119.096 15.5047C119.089 15.8614 119.373 16.1556 119.73 16.1618L130.49 16.3496C130.847 16.3558 131.141 16.0717 131.147 15.715L131.164 14.744Z" fill="white"/>
<path fill-rule="evenodd" clip-rule="evenodd" d="M130.315 14.6796C130.083 14.4472 129.701 14.4405 129.461 14.6647L124.618 19.1948C124.378 19.419 124.372 19.7891 124.604 20.0216L125.258 20.6784C125.49 20.9108 125.872 20.9175 126.112 20.6933L130.955 16.1632C131.195 15.939 131.201 15.5689 130.969 15.3365L130.315 14.6796Z" fill="white"/>
<path fill-rule="evenodd" clip-rule="evenodd" d="M130.297 15.6937C130.057 15.9179 129.675 15.9112 129.443 15.6788L124.761 10.9825C124.529 10.75 124.536 10.3799 124.775 10.1557L125.453 9.5221C125.693 9.29791 126.075 9.30458 126.306 9.537L130.988 14.2333C131.22 14.4657 131.214 14.8359 130.974 15.0601L130.297 15.6937Z" fill="white"/>
<path d="M125 49.8591C125 47.1755 127.178 44.9846 129.856 45.1475C146.948 46.1865 163.304 52.6886 176.476 63.7613C190.892 75.879 200.571 92.6939 203.809 111.246C207.047 129.797 203.636 148.897 194.177 165.181C184.718 181.466 169.818 193.891 152.099 200.27C134.38 206.65 114.979 206.573 97.3106 200.055C79.6424 193.537 64.84 180.995 55.5095 164.637C46.1789 148.278 42.9183 129.153 46.3017 110.627C49.3934 93.6989 57.8514 78.2632 70.3581 66.5682C72.3183 64.7353 75.3928 65.0352 77.1034 67.1029C78.814 69.1707 78.5112 72.222 76.5665 74.0713C65.8149 84.2957 58.5424 97.6959 55.8618 112.373C52.8894 128.648 55.7539 145.451 63.951 159.822C72.1482 174.193 85.1524 185.211 100.674 190.938C116.196 196.664 133.241 196.731 148.807 191.127C164.373 185.523 177.464 174.606 185.774 160.3C194.083 145.994 197.08 129.215 194.235 112.917C191.391 96.6184 182.888 81.8462 170.223 71.2005C158.802 61.6001 144.657 55.9108 129.855 54.8861C127.178 54.7007 125 52.5427 125 49.8591Z" fill="white"/>
</svg>
