<svg width="250" height="250" viewBox="0 0 250 250" fill="none" xmlns="http://www.w3.org/2000/svg">
<path d="M250 125C250 194.036 194.036 250 125 250C55.9644 250 0 194.036 0 125C0 55.9644 55.9644 0 125 0C194.036 0 250 55.9644 250 125ZM31.25 125C31.25 176.777 73.2233 218.75 125 218.75C176.777 218.75 218.75 176.777 218.75 125C218.75 73.2233 176.777 31.25 125 31.25C73.2233 31.25 31.25 73.2233 31.25 125Z" fill="#505C9C" fill-opacity="0.4"/>
<path d="M250 125C250 194.036 194.036 250 125 250C55.9644 250 0 194.036 0 125C0 55.9644 55.9644 0 125 0C194.036 0 250 55.9644 250 125ZM31.25 125C31.25 176.777 73.2233 218.75 125 218.75C176.777 218.75 218.75 176.777 218.75 125C218.75 73.2233 176.777 31.25 125 31.25C73.2233 31.25 31.25 73.2233 31.25 125Z" fill="#5D6CB8"/>
<path fill-rule="evenodd" clip-rule="evenodd" d="M131.164 14.744C131.17 14.3873 130.886 14.0931 130.53 14.0869L119.77 13.8991C119.413 13.8928 119.119 14.1769 119.113 14.5336L119.096 15.5047C119.089 15.8614 119.373 16.1556 119.73 16.1618L130.49 16.3496C130.847 16.3558 131.141 16.0717 131.147 15.715L131.164 14.744Z" fill="white"/>
<path fill-rule="evenodd" clip-rule="evenodd" d="M130.315 14.6796C130.083 14.4472 129.701 14.4405 129.461 14.6647L124.618 19.1948C124.378 19.419 124.372 19.7891 124.604 20.0216L125.258 20.6784C125.49 20.9108 125.872 20.9175 126.112 20.6933L130.955 16.1632C131.195 15.939 131.201 15.5689 130.969 15.3365L130.315 14.6796Z" fill="white"/>
<path fill-rule="evenodd" clip-rule="evenodd" d="M130.297 15.6937C130.057 15.9179 129.675 15.9112 129.443 15.6788L124.761 10.9825C124.529 10.75 124.536 10.3799 124.775 10.1557L125.453 9.5221C125.693 9.29791 126.075 9.30458 126.306 9.537L130.988 14.2333C131.22 14.4657 131.214 14.8359 130.974 15.0601L130.297 15.6937Z" fill="white"/>
<path d="M125 49.8591C125 47.1755 127.178 44.9846 129.856 45.1475C145.245 46.0831 160.073 51.4496 172.53 60.65C186.292 70.8148 196.433 85.124 201.463 101.477C206.494 117.83 206.15 135.364 200.481 151.507C194.812 167.65 184.117 181.55 169.967 191.166C155.816 200.783 138.955 205.61 121.859 204.938C104.763 204.267 88.333 198.132 74.9806 187.434C61.6281 176.737 52.0569 162.041 47.672 145.503C43.7032 130.535 44.1724 114.772 48.9673 100.12C49.802 97.569 52.6406 96.3509 55.1358 97.3388C57.631 98.3267 58.8355 101.146 58.0223 103.704C53.9801 116.417 53.6297 130.054 57.0656 143.012C60.9179 157.541 69.3264 170.452 81.0568 179.85C92.7873 189.248 107.222 194.637 122.241 195.228C137.26 195.818 152.073 191.577 164.504 183.129C176.936 174.68 186.331 162.469 191.312 148.287C196.292 134.105 196.594 118.701 192.175 104.334C187.755 89.9681 178.846 77.3971 166.756 68.4671C155.972 60.5019 143.164 55.8076 129.856 54.8861C127.178 54.7008 125 52.5427 125 49.8591Z" fill="white"/>
</svg>
