<svg width="250" height="250" viewBox="0 0 250 250" fill="none" xmlns="http://www.w3.org/2000/svg">
<path d="M250 125C250 194.036 194.036 250 125 250C55.9644 250 0 194.036 0 125C0 55.9644 55.9644 0 125 0C194.036 0 250 55.9644 250 125ZM31.25 125C31.25 176.777 73.2233 218.75 125 218.75C176.777 218.75 218.75 176.777 218.75 125C218.75 73.2233 176.777 31.25 125 31.25C73.2233 31.25 31.25 73.2233 31.25 125Z" fill="#505C9C" fill-opacity="0.4"/>
<path d="M111.671 16.4403C110.619 7.87513 116.724 -0.0239262 125.354 0.000491051C137.483 0.0348122 149.571 1.83459 161.233 5.36664C177.893 10.4124 193.315 18.8821 206.512 30.2332C219.709 41.5844 230.39 55.5667 237.87 71.2846C245.35 87.0025 249.465 104.11 249.951 121.51C250.437 138.91 247.284 156.22 240.693 172.331C234.101 188.442 224.218 202.999 211.675 215.069C199.133 227.139 184.207 236.456 167.855 242.424C156.408 246.602 144.439 249.074 132.331 249.785C123.716 250.291 117.179 242.745 117.751 234.135C118.323 225.524 125.806 219.143 134.392 218.278C142.142 217.498 149.786 215.753 157.141 213.068C169.405 208.592 180.599 201.604 190.006 192.552C199.413 183.499 206.826 172.582 211.769 160.498C216.713 148.415 219.078 135.433 218.713 122.382C218.349 109.332 215.263 96.5019 209.653 84.7135C204.042 72.925 196.032 62.4383 186.134 53.9249C176.237 45.4116 164.67 39.0593 152.175 35.275C144.681 33.0052 136.952 31.6893 129.17 31.3428C120.549 30.9589 112.722 25.0054 111.671 16.4403Z" fill="#5D6CB8"/>
<path fill-rule="evenodd" clip-rule="evenodd" d="M131.164 14.7445C131.17 14.3878 130.886 14.0936 130.53 14.0874L119.77 13.8995C119.413 13.8933 119.119 14.1774 119.113 14.5341L119.096 15.5052C119.089 15.8618 119.373 16.156 119.73 16.1623L130.49 16.3501C130.847 16.3563 131.141 16.0722 131.147 15.7155L131.164 14.7445Z" fill="white"/>
<path fill-rule="evenodd" clip-rule="evenodd" d="M130.315 14.6796C130.083 14.4472 129.701 14.4405 129.461 14.6647L124.618 19.1948C124.378 19.419 124.372 19.7891 124.604 20.0216L125.258 20.6784C125.49 20.9108 125.872 20.9175 126.112 20.6933L130.955 16.1632C131.195 15.939 131.201 15.5689 130.969 15.3365L130.315 14.6796Z" fill="white"/>
<path fill-rule="evenodd" clip-rule="evenodd" d="M130.297 15.6946C130.057 15.9188 129.675 15.9122 129.443 15.6797L124.761 10.9834C124.529 10.751 124.536 10.3809 124.775 10.1567L125.453 9.52308C125.693 9.29889 126.075 9.30556 126.306 9.53798L130.988 14.2343C131.22 14.4667 131.214 14.8369 130.974 15.0611L130.297 15.6946Z" fill="white"/>
</svg>
