<svg width="250" height="250" viewBox="0 0 250 250" fill="none" xmlns="http://www.w3.org/2000/svg">
<path d="M250 125C250 194.036 194.036 250 125 250C55.9644 250 0 194.036 0 125C0 55.9644 55.9644 0 125 0C194.036 0 250 55.9644 250 125ZM31.25 125C31.25 176.777 73.2233 218.75 125 218.75C176.777 218.75 218.75 176.777 218.75 125C218.75 73.2233 176.777 31.25 125 31.25C73.2233 31.25 31.25 73.2233 31.25 125Z" fill="#505C9C" fill-opacity="0.4"/>
<path d="M250 125C250 194.036 194.036 250 125 250C55.9644 250 0 194.036 0 125C0 55.9644 55.9644 0 125 0C194.036 0 250 55.9644 250 125ZM31.25 125C31.25 176.777 73.2233 218.75 125 218.75C176.777 218.75 218.75 176.777 218.75 125C218.75 73.2233 176.777 31.25 125 31.25C73.2233 31.25 31.25 73.2233 31.25 125Z" fill="#5D6CB8"/>
<path fill-rule="evenodd" clip-rule="evenodd" d="M131.164 14.7445C131.17 14.3878 130.886 14.0936 130.53 14.0874L119.77 13.8995C119.413 13.8933 119.119 14.1774 119.113 14.5341L119.096 15.5052C119.089 15.8618 119.373 16.156 119.73 16.1623L130.49 16.3501C130.847 16.3563 131.141 16.0722 131.147 15.7155L131.164 14.7445Z" fill="white"/>
<path fill-rule="evenodd" clip-rule="evenodd" d="M130.315 14.6796C130.083 14.4472 129.701 14.4405 129.461 14.6647L124.618 19.1948C124.378 19.419 124.372 19.7891 124.604 20.0216L125.258 20.6784C125.49 20.9108 125.872 20.9175 126.112 20.6933L130.955 16.1632C131.195 15.939 131.201 15.5689 130.969 15.3365L130.315 14.6796Z" fill="white"/>
<path fill-rule="evenodd" clip-rule="evenodd" d="M130.297 15.6946C130.057 15.9188 129.675 15.9122 129.443 15.6797L124.761 10.9834C124.529 10.751 124.536 10.3809 124.775 10.1567L125.453 9.52308C125.693 9.29889 126.075 9.30556 126.306 9.53798L130.988 14.2343C131.22 14.4667 131.214 14.8369 130.974 15.0611L130.297 15.6946Z" fill="white"/>
<path d="M125 49.8591C125 47.1755 127.178 44.9846 129.857 45.1474C148.659 46.2903 166.515 54.0408 180.22 67.1144C195.1 81.3094 203.942 100.689 204.911 121.231C205.88 141.774 198.901 161.9 185.423 177.432C171.944 192.964 153.002 202.71 132.529 204.645C112.055 206.58 91.6224 200.557 75.4725 187.825C59.3225 175.094 48.6957 156.632 45.7981 136.272C42.9005 115.912 47.9546 95.2187 59.9113 78.4869C70.9235 63.0769 87.0118 52.1177 105.266 47.4719C107.867 46.81 110.417 48.554 110.92 51.1901C111.423 53.8262 109.688 56.3541 107.092 57.0378C91.2911 61.2008 77.3776 70.7601 67.8182 84.1372C57.314 98.8365 52.8738 117.016 55.4194 134.903C57.965 152.789 67.3009 169.008 81.489 180.193C95.6771 191.378 113.628 196.67 131.614 194.97C149.601 193.27 166.242 184.708 178.083 171.063C189.923 157.417 196.055 139.736 195.204 121.689C194.353 103.643 186.585 86.6168 173.512 74.1463C161.615 62.7973 146.157 56.0144 129.856 54.8861C127.178 54.7007 125 52.5427 125 49.8591Z" fill="white"/>
</svg>
