<svg width="250" height="250" viewBox="0 0 250 250" fill="none" xmlns="http://www.w3.org/2000/svg">
<path d="M250 125C250 194.036 194.036 250 125 250C55.9644 250 0 194.036 0 125C0 55.9644 55.9644 0 125 0C194.036 0 250 55.9644 250 125ZM31.25 125C31.25 176.777 73.2233 218.75 125 218.75C176.777 218.75 218.75 176.777 218.75 125C218.75 73.2233 176.777 31.25 125 31.25C73.2233 31.25 31.25 73.2233 31.25 125Z" fill="#505C9C" fill-opacity="0.4"/>
<path d="M111.671 16.4403C110.619 7.87513 116.724 -0.0239231 125.354 0.000492254C137.156 0.0338842 148.92 1.7387 160.293 5.08576C171.665 8.43282 182.478 13.3728 192.416 19.7381C199.683 24.3922 200.536 34.3391 195.012 40.969C189.488 47.5989 179.684 48.3633 172.23 44.0159C165.712 40.2151 158.744 37.2052 151.47 35.0643C144.195 32.9234 136.707 31.6784 129.17 31.3428C120.549 30.9589 112.722 25.0054 111.671 16.4403Z" fill="#5D6CB8"/>
<path fill-rule="evenodd" clip-rule="evenodd" d="M131.164 14.7444C131.17 14.3877 130.886 14.0935 130.53 14.0873L119.77 13.8995C119.413 13.8932 119.119 14.1773 119.113 14.534L119.096 15.5051C119.089 15.8618 119.373 16.1559 119.73 16.1622L130.49 16.35C130.847 16.3562 131.141 16.0721 131.147 15.7154L131.164 14.7444Z" fill="white"/>
<path fill-rule="evenodd" clip-rule="evenodd" d="M130.315 14.6797C130.083 14.4472 129.701 14.4406 129.461 14.6648L124.618 19.1948C124.378 19.419 124.372 19.7892 124.604 20.0216L125.258 20.6784C125.49 20.9109 125.872 20.9175 126.112 20.6933L130.955 16.1633C131.195 15.9391 131.201 15.5689 130.969 15.3365L130.315 14.6797Z" fill="white"/>
<path fill-rule="evenodd" clip-rule="evenodd" d="M130.297 15.6941C130.057 15.9183 129.675 15.9116 129.443 15.6792L124.761 10.9829C124.529 10.7505 124.536 10.3803 124.775 10.1561L125.453 9.52255C125.693 9.29835 126.075 9.30502 126.306 9.53744L130.988 14.2338C131.22 14.4662 131.214 14.8363 130.974 15.0605L130.297 15.6941Z" fill="white"/>
</svg>
