<svg width="250" height="250" viewBox="0 0 250 250" fill="none" xmlns="http://www.w3.org/2000/svg">
<path d="M250 125C250 194.036 194.036 250 125 250C55.9644 250 0 194.036 0 125C0 55.9644 55.9644 0 125 0C194.036 0 250 55.9644 250 125ZM31.25 125C31.25 176.777 73.2233 218.75 125 218.75C176.777 218.75 218.75 176.777 218.75 125C218.75 73.2233 176.777 31.25 125 31.25C73.2233 31.25 31.25 73.2233 31.25 125Z" fill="#505C9C" fill-opacity="0.4"/>
<path d="M250 125C250 194.036 194.036 250 125 250C55.9644 250 0 194.036 0 125C0 55.9644 55.9644 0 125 0C194.036 0 250 55.9644 250 125ZM31.25 125C31.25 176.777 73.2233 218.75 125 218.75C176.777 218.75 218.75 176.777 218.75 125C218.75 73.2233 176.777 31.25 125 31.25C73.2233 31.25 31.25 73.2233 31.25 125Z" fill="#5D6CB8"/>
<path fill-rule="evenodd" clip-rule="evenodd" d="M131.164 14.7444C131.17 14.3877 130.886 14.0935 130.53 14.0873L119.77 13.8995C119.413 13.8932 119.119 14.1773 119.113 14.534L119.096 15.5051C119.089 15.8618 119.373 16.1559 119.73 16.1622L130.49 16.35C130.847 16.3562 131.141 16.0721 131.147 15.7154L131.164 14.7444Z" fill="white"/>
<path fill-rule="evenodd" clip-rule="evenodd" d="M130.315 14.6797C130.083 14.4472 129.701 14.4406 129.461 14.6648L124.618 19.1948C124.378 19.419 124.372 19.7892 124.604 20.0216L125.258 20.6784C125.49 20.9109 125.872 20.9175 126.112 20.6933L130.955 16.1633C131.195 15.9391 131.201 15.5689 130.969 15.3365L130.315 14.6797Z" fill="white"/>
<path fill-rule="evenodd" clip-rule="evenodd" d="M130.297 15.6941C130.057 15.9183 129.675 15.9116 129.443 15.6792L124.761 10.9829C124.529 10.7505 124.536 10.3803 124.775 10.1561L125.453 9.52255C125.693 9.29835 126.075 9.30502 126.306 9.53744L130.988 14.2338C131.22 14.4662 131.214 14.8363 130.974 15.0605L130.297 15.6941Z" fill="white"/>
<path d="M125 49.8591C125 47.1755 127.178 44.9846 129.856 45.1475C140.383 45.7877 150.696 48.5041 160.195 53.1578C171.151 58.5252 180.735 66.3273 188.212 75.9674C195.69 85.6075 200.864 96.8302 203.338 108.777C205.483 119.135 205.549 129.8 203.551 140.155C203.043 142.79 200.38 144.354 197.78 143.687C195.181 143.019 193.632 140.373 194.119 137.734C195.761 128.819 195.666 119.654 193.821 110.748C191.648 100.252 187.103 90.3929 180.533 81.9238C173.964 73.4548 165.545 66.6004 155.92 61.885C147.752 57.8835 138.899 55.5124 129.855 54.8861C127.178 54.7008 125 52.5427 125 49.8591Z" fill="white"/>
</svg>
