<svg width="250" height="250" viewBox="0 0 250 250" fill="none" xmlns="http://www.w3.org/2000/svg">
<path d="M250 125C250 194.036 194.036 250 125 250C55.9644 250 0 194.036 0 125C0 55.9644 55.9644 0 125 0C194.036 0 250 55.9644 250 125ZM31.25 125C31.25 176.777 73.2233 218.75 125 218.75C176.777 218.75 218.75 176.777 218.75 125C218.75 73.2233 176.777 31.25 125 31.25C73.2233 31.25 31.25 73.2233 31.25 125Z" fill="#505C9C" fill-opacity="0.4"/>
<path d="M250 125C250 194.036 194.036 250 125 250C55.9644 250 0 194.036 0 125C0 55.9644 55.9644 0 125 0C194.036 0 250 55.9644 250 125ZM31.25 125C31.25 176.777 73.2233 218.75 125 218.75C176.777 218.75 218.75 176.777 218.75 125C218.75 73.2233 176.777 31.25 125 31.25C73.2233 31.25 31.25 73.2233 31.25 125Z" fill="#5D6CB8"/>
<path fill-rule="evenodd" clip-rule="evenodd" d="M131.164 14.744C131.17 14.3873 130.886 14.0931 130.53 14.0869L119.77 13.8991C119.413 13.8928 119.119 14.1769 119.113 14.5336L119.096 15.5047C119.089 15.8614 119.373 16.1556 119.73 16.1618L130.49 16.3496C130.847 16.3558 131.141 16.0717 131.147 15.715L131.164 14.744Z" fill="white"/>
<path fill-rule="evenodd" clip-rule="evenodd" d="M130.315 14.6796C130.083 14.4472 129.701 14.4405 129.461 14.6647L124.618 19.1948C124.378 19.419 124.372 19.7891 124.604 20.0216L125.258 20.6784C125.49 20.9108 125.872 20.9175 126.112 20.6933L130.955 16.1632C131.195 15.939 131.201 15.5689 130.969 15.3365L130.315 14.6796Z" fill="white"/>
<path fill-rule="evenodd" clip-rule="evenodd" d="M130.297 15.6937C130.057 15.9179 129.675 15.9112 129.443 15.6788L124.761 10.9825C124.529 10.75 124.536 10.3799 124.775 10.1557L125.453 9.5221C125.693 9.29791 126.075 9.30458 126.306 9.537L130.988 14.2333C131.22 14.4657 131.214 14.8359 130.974 15.0601L130.297 15.6937Z" fill="white"/>
<path d="M125 49.8591C125 47.1755 127.178 44.9846 129.856 45.1475C141.436 45.8517 152.745 49.0677 162.989 54.5949C174.66 60.8927 184.583 69.9934 191.865 81.0782C199.146 92.163 203.557 104.884 204.702 118.097C205.846 131.31 203.688 144.6 198.42 156.772C193.153 168.943 184.943 179.615 174.528 187.825C164.112 196.036 151.819 201.529 138.754 203.809C125.689 206.089 112.263 205.085 99.6819 200.888C88.6403 197.204 78.5546 191.162 70.1144 183.203C68.1619 181.362 68.2684 178.275 70.2247 176.437C72.1809 174.6 75.2451 174.711 77.213 176.536C84.5392 183.329 93.2445 188.496 102.757 191.669C113.81 195.357 125.606 196.238 137.083 194.235C148.561 192.232 159.361 187.407 168.511 180.193C177.661 172.98 184.874 163.605 189.501 152.912C194.129 142.219 196.025 130.543 195.02 118.936C194.014 107.328 190.139 96.152 183.742 86.4137C177.345 76.6755 168.628 68.6803 158.374 63.1476C149.548 58.3856 139.823 55.5764 129.855 54.8861C127.178 54.7008 125 52.5427 125 49.8591Z" fill="white"/>
</svg>
