<svg width="250" height="250" viewBox="0 0 250 250" fill="none" xmlns="http://www.w3.org/2000/svg">
<path d="M250 125C250 194.036 194.036 250 125 250C55.9644 250 0 194.036 0 125C0 55.9644 55.9644 0 125 0C194.036 0 250 55.9644 250 125ZM31.25 125C31.25 176.777 73.2233 218.75 125 218.75C176.777 218.75 218.75 176.777 218.75 125C218.75 73.2233 176.777 31.25 125 31.25C73.2233 31.25 31.25 73.2233 31.25 125Z" fill="#505C9C" fill-opacity="0.4"/>
<path d="M111.671 16.4403C110.619 7.87513 116.725 -0.0241903 125.354 0.000140858C151.314 0.0733362 176.753 8.23544 198.031 23.5533C223.559 41.9305 241.22 69.2562 247.491 100.079C253.762 130.902 248.182 162.956 231.864 189.847C215.546 216.737 189.69 236.488 159.455 245.158C129.219 253.828 96.8257 250.78 68.7377 236.622C40.6496 222.465 18.9315 198.238 7.91597 168.776C-3.09957 139.313 -2.6027 106.781 9.30745 77.6689C19.2348 53.4031 36.4834 33.0005 58.4599 19.1818C65.7651 14.5882 75.1292 18.0516 78.7762 25.8726C82.4231 33.6935 78.9399 42.8899 71.8324 47.7839C56.9049 58.0624 45.1776 72.5209 38.2306 89.5017C29.298 111.336 28.9253 135.735 37.187 157.832C45.4486 179.929 61.7372 198.099 82.8033 208.717C103.869 219.335 128.164 221.621 150.841 215.118C173.518 208.616 192.91 193.803 205.148 173.635C217.386 153.467 221.571 129.426 216.868 106.309C212.165 83.1921 198.919 62.6978 179.773 48.915C164.884 38.1958 147.276 32.1488 129.17 31.3425C120.549 30.9586 112.722 25.0054 111.671 16.4403Z" fill="#5D6CB8"/>
<path fill-rule="evenodd" clip-rule="evenodd" d="M131.164 14.7454C131.17 14.3888 130.886 14.0946 130.53 14.0883L119.77 13.9005C119.413 13.8943 119.119 14.1784 119.113 14.5351L119.096 15.5062C119.089 15.8628 119.373 16.157 119.73 16.1632L130.49 16.3511C130.847 16.3573 131.141 16.0732 131.147 15.7165L131.164 14.7454Z" fill="white"/>
<path fill-rule="evenodd" clip-rule="evenodd" d="M130.315 14.6806C130.083 14.4482 129.701 14.4415 129.461 14.6657L124.618 19.1958C124.378 19.4199 124.372 19.7901 124.604 20.0225L125.258 20.6794C125.49 20.9118 125.872 20.9185 126.112 20.6943L130.955 16.1642C131.195 15.94 131.201 15.5699 130.969 15.3374L130.315 14.6806Z" fill="white"/>
<path fill-rule="evenodd" clip-rule="evenodd" d="M130.297 15.6937C130.057 15.9179 129.675 15.9112 129.443 15.6788L124.761 10.9825C124.529 10.75 124.536 10.3799 124.775 10.1557L125.453 9.5221C125.693 9.29791 126.075 9.30458 126.306 9.537L130.988 14.2333C131.22 14.4657 131.214 14.8359 130.974 15.0601L130.297 15.6937Z" fill="white"/>
</svg>
