<svg width="250" height="250" viewBox="0 0 250 250" fill="none" xmlns="http://www.w3.org/2000/svg">
<path d="M250 125C250 194.036 194.036 250 125 250C55.9644 250 0 194.036 0 125C0 55.9644 55.9644 0 125 0C194.036 0 250 55.9644 250 125ZM31.25 125C31.25 176.777 73.2233 218.75 125 218.75C176.777 218.75 218.75 176.777 218.75 125C218.75 73.2233 176.777 31.25 125 31.25C73.2233 31.25 31.25 73.2233 31.25 125Z" fill="#505C9C" fill-opacity="0.4"/>
<path d="M111.671 16.4403C110.619 7.87513 116.724 -0.0239911 125.354 0.000432754C143.389 0.0514777 161.265 4.00578 177.728 11.6655C198.932 21.5305 216.943 37.146 229.715 56.7373C242.486 76.3285 249.505 99.1096 249.975 122.491C250.444 145.873 244.345 168.917 232.37 189.005C220.395 209.093 203.025 225.419 182.234 236.127C161.443 246.835 138.065 251.496 114.758 249.58C91.45 247.663 69.1472 239.247 50.3844 225.287C35.816 214.448 23.8354 200.604 15.2125 184.764C11.0867 177.185 15.1313 168.057 23.1658 164.908C31.2003 161.76 40.16 165.813 44.598 173.214C50.8757 183.683 59.1645 192.869 69.0383 200.215C83.1104 210.685 99.8375 216.998 117.318 218.435C134.799 219.872 152.333 216.376 167.926 208.345C183.519 200.314 196.546 188.07 205.527 173.004C214.509 157.938 219.083 140.655 218.731 123.118C218.379 105.582 213.115 88.4964 203.536 73.8029C193.958 59.1095 180.449 47.3979 164.546 39.9991C153.388 34.8077 141.365 31.8858 129.17 31.3428C120.549 30.9589 112.722 25.0054 111.671 16.4403Z" fill="#5D6CB8"/>
<path fill-rule="evenodd" clip-rule="evenodd" d="M131.164 14.7445C131.17 14.3878 130.886 14.0936 130.53 14.0874L119.77 13.8995C119.413 13.8933 119.119 14.1774 119.113 14.5341L119.096 15.5052C119.089 15.8618 119.373 16.156 119.73 16.1623L130.49 16.3501C130.847 16.3563 131.141 16.0722 131.147 15.7155L131.164 14.7445Z" fill="white"/>
<path fill-rule="evenodd" clip-rule="evenodd" d="M130.315 14.6796C130.083 14.4472 129.701 14.4405 129.461 14.6647L124.618 19.1948C124.378 19.419 124.372 19.7891 124.604 20.0216L125.258 20.6784C125.49 20.9108 125.872 20.9175 126.112 20.6933L130.955 16.1632C131.195 15.939 131.201 15.5689 130.969 15.3365L130.315 14.6796Z" fill="white"/>
<path fill-rule="evenodd" clip-rule="evenodd" d="M130.297 15.6946C130.057 15.9188 129.675 15.9122 129.443 15.6797L124.761 10.9834C124.529 10.751 124.536 10.3809 124.775 10.1567L125.453 9.52308C125.693 9.29889 126.075 9.30556 126.306 9.53798L130.988 14.2343C131.22 14.4667 131.214 14.8369 130.974 15.0611L130.297 15.6946Z" fill="white"/>
</svg>
