<svg width="250" height="250" viewBox="0 0 250 250" fill="none" xmlns="http://www.w3.org/2000/svg">
<path d="M250 125C250 194.036 194.036 250 125 250C55.9644 250 0 194.036 0 125C0 55.9644 55.9644 0 125 0C194.036 0 250 55.9644 250 125ZM31.25 125C31.25 176.777 73.2233 218.75 125 218.75C176.777 218.75 218.75 176.777 218.75 125C218.75 73.2233 176.777 31.25 125 31.25C73.2233 31.25 31.25 73.2233 31.25 125Z" fill="#505C9C" fill-opacity="0.4"/>
<path d="M250 125C250 194.036 194.036 250 125 250C55.9644 250 0 194.036 0 125C0 55.9644 55.9644 0 125 0C194.036 0 250 55.9644 250 125ZM31.25 125C31.25 176.777 73.2233 218.75 125 218.75C176.777 218.75 218.75 176.777 218.75 125C218.75 73.2233 176.777 31.25 125 31.25C73.2233 31.25 31.25 73.2233 31.25 125Z" fill="#5D6CB8"/>
<path fill-rule="evenodd" clip-rule="evenodd" d="M131.164 14.7445C131.17 14.3878 130.886 14.0936 130.53 14.0874L119.77 13.8995C119.413 13.8933 119.119 14.1774 119.113 14.5341L119.096 15.5052C119.089 15.8618 119.373 16.156 119.73 16.1623L130.49 16.3501C130.847 16.3563 131.141 16.0722 131.147 15.7155L131.164 14.7445Z" fill="white"/>
<path fill-rule="evenodd" clip-rule="evenodd" d="M130.315 14.6796C130.083 14.4472 129.701 14.4405 129.461 14.6647L124.618 19.1948C124.378 19.419 124.372 19.7891 124.604 20.0216L125.258 20.6784C125.49 20.9108 125.872 20.9175 126.112 20.6933L130.955 16.1632C131.195 15.939 131.201 15.5689 130.969 15.3365L130.315 14.6796Z" fill="white"/>
<path fill-rule="evenodd" clip-rule="evenodd" d="M130.297 15.6942C130.057 15.9184 129.675 15.9117 129.443 15.6793L124.761 10.983C124.529 10.7505 124.536 10.3804 124.775 10.1562L125.453 9.52259C125.693 9.2984 126.075 9.30507 126.306 9.53749L130.988 14.2338C131.22 14.4662 131.214 14.8364 130.974 15.0606L130.297 15.6942Z" fill="white"/>
<path d="M125 49.8591C125 47.1755 127.178 44.9846 129.856 45.1475C138.911 45.6982 147.819 47.7859 156.194 51.3324C166.063 55.5113 174.992 61.6306 182.45 69.327C189.908 77.0233 195.744 86.1398 199.611 96.1351C203.478 106.13 205.297 116.801 204.961 127.513C204.624 138.225 202.138 148.76 197.651 158.493C193.165 168.226 186.768 176.958 178.841 184.171C170.914 191.383 161.619 196.93 151.507 200.481C142.925 203.495 133.904 205.019 124.833 205C122.149 204.994 120.113 202.671 120.282 199.993C120.45 197.314 122.76 195.297 125.443 195.28C133.214 195.231 140.934 193.894 148.287 191.312C157.17 188.192 165.337 183.319 172.3 176.983C179.264 170.646 184.884 162.975 188.826 154.424C192.768 145.874 194.951 136.618 195.247 127.208C195.543 117.797 193.945 108.423 190.548 99.6416C187.15 90.8605 182.023 82.8514 175.471 76.09C168.919 69.3286 161.075 63.9527 152.405 60.2814C145.229 57.2426 137.607 55.423 129.855 54.8862C127.178 54.7008 125 52.5427 125 49.8591Z" fill="white"/>
</svg>
