<svg width="250" height="250" viewBox="0 0 250 250" fill="none" xmlns="http://www.w3.org/2000/svg">
<path d="M250 125C250 194.036 194.036 250 125 250C55.9644 250 0 194.036 0 125C0 55.9644 55.9644 0 125 0C194.036 0 250 55.9644 250 125ZM31.25 125C31.25 176.777 73.2233 218.75 125 218.75C176.777 218.75 218.75 176.777 218.75 125C218.75 73.2233 176.777 31.25 125 31.25C73.2233 31.25 31.25 73.2233 31.25 125Z" fill="#505C9C" fill-opacity="0.4"/>
<path d="M111.671 16.4403C110.619 7.87513 116.725 -0.0241288 125.354 0.000248607C149.326 0.0679668 172.895 7.03254 193.171 20.2256C217.836 36.2734 236.048 60.5077 244.602 88.6622C253.156 116.817 251.503 147.087 239.935 174.142C228.367 201.198 207.624 223.306 181.36 236.573C155.095 249.84 124.992 253.417 96.3499 246.672C67.7079 239.928 42.3633 223.296 24.778 199.703C7.19272 176.111 -1.50588 147.071 0.213601 117.696C1.62721 93.5459 10.0077 70.4426 24.1784 51.1077C29.2796 44.1475 39.261 43.9206 45.5309 49.8498C51.8008 55.779 51.9477 65.612 47.1409 72.7787C37.8718 86.5986 32.3935 102.723 31.4102 119.522C30.1206 141.553 36.6445 163.333 49.8335 181.027C63.0225 198.722 82.031 211.196 103.512 216.254C124.994 221.313 147.571 218.63 167.27 208.68C186.968 198.73 202.525 182.149 211.201 161.857C219.877 141.565 221.117 118.863 214.701 97.7467C208.286 76.6308 194.627 58.455 176.129 46.4192C162.023 37.2418 145.795 32.083 129.17 31.3426C120.55 30.9587 112.722 25.0054 111.671 16.4403Z" fill="#5D6CB8"/>
<path fill-rule="evenodd" clip-rule="evenodd" d="M131.164 14.7454C131.17 14.3888 130.886 14.0946 130.53 14.0883L119.77 13.9005C119.413 13.8943 119.119 14.1784 119.113 14.5351L119.096 15.5062C119.089 15.8628 119.373 16.157 119.73 16.1632L130.49 16.3511C130.847 16.3573 131.141 16.0732 131.147 15.7165L131.164 14.7454Z" fill="white"/>
<path fill-rule="evenodd" clip-rule="evenodd" d="M130.315 14.6806C130.083 14.4482 129.701 14.4415 129.461 14.6657L124.618 19.1958C124.378 19.4199 124.372 19.7901 124.604 20.0225L125.258 20.6794C125.49 20.9118 125.872 20.9185 126.112 20.6943L130.955 16.1642C131.195 15.94 131.201 15.5699 130.969 15.3374L130.315 14.6806Z" fill="white"/>
<path fill-rule="evenodd" clip-rule="evenodd" d="M130.297 15.6937C130.057 15.9179 129.675 15.9112 129.443 15.6788L124.761 10.9825C124.529 10.75 124.536 10.3799 124.775 10.1557L125.453 9.5221C125.693 9.29791 126.075 9.30458 126.306 9.537L130.988 14.2333C131.22 14.4657 131.214 14.8359 130.974 15.0601L130.297 15.6937Z" fill="white"/>
</svg>
