<svg width="250" height="250" viewBox="0 0 250 250" fill="none" xmlns="http://www.w3.org/2000/svg">
<path d="M250 125C250 194.036 194.036 250 125 250C55.9644 250 0 194.036 0 125C0 55.9644 55.9644 0 125 0C194.036 0 250 55.9644 250 125ZM31.25 125C31.25 176.777 73.2233 218.75 125 218.75C176.777 218.75 218.75 176.777 218.75 125C218.75 73.2233 176.777 31.25 125 31.25C73.2233 31.25 31.25 73.2233 31.25 125Z" fill="#505C9C" fill-opacity="0.4"/>
<path d="M250 125C250 194.036 194.036 250 125 250C55.9644 250 0 194.036 0 125C0 55.9644 55.9644 0 125 0C194.036 0 250 55.9644 250 125ZM31.25 125C31.25 176.777 73.2233 218.75 125 218.75C176.777 218.75 218.75 176.777 218.75 125C218.75 73.2233 176.777 31.25 125 31.25C73.2233 31.25 31.25 73.2233 31.25 125Z" fill="#5D6CB8"/>
<path fill-rule="evenodd" clip-rule="evenodd" d="M131.164 14.744C131.17 14.3873 130.886 14.0931 130.53 14.0869L119.77 13.8991C119.413 13.8928 119.119 14.1769 119.113 14.5336L119.096 15.5047C119.089 15.8614 119.373 16.1556 119.73 16.1618L130.49 16.3496C130.847 16.3558 131.141 16.0717 131.147 15.715L131.164 14.744Z" fill="white"/>
<path fill-rule="evenodd" clip-rule="evenodd" d="M130.315 14.6796C130.083 14.4472 129.701 14.4405 129.461 14.6647L124.618 19.1948C124.378 19.419 124.372 19.7891 124.604 20.0216L125.258 20.6784C125.49 20.9108 125.872 20.9175 126.112 20.6933L130.955 16.1632C131.195 15.939 131.201 15.5689 130.969 15.3365L130.315 14.6796Z" fill="white"/>
<path fill-rule="evenodd" clip-rule="evenodd" d="M130.297 15.6937C130.057 15.9179 129.675 15.9112 129.443 15.6788L124.761 10.9825C124.529 10.75 124.536 10.3799 124.775 10.1557L125.453 9.5221C125.693 9.29791 126.075 9.30458 126.306 9.537L130.988 14.2333C131.22 14.4657 131.214 14.8359 130.974 15.0601L130.297 15.6937Z" fill="white"/>
<path d="M125 49.8591C125 47.1755 127.178 44.9846 129.856 45.1475C145.67 46.1089 160.883 51.7489 173.535 61.4045C187.477 72.0451 197.537 86.9728 202.165 103.89C206.793 120.808 205.733 138.777 199.149 155.033C192.564 171.289 180.82 184.931 165.723 193.859C150.627 202.787 133.014 206.507 115.597 204.445C98.1795 202.384 81.9222 194.656 69.327 182.45C56.7317 170.244 48.4966 154.238 45.8891 136.894C43.5229 121.155 45.9096 105.107 52.6852 90.7863C53.8329 88.3605 56.8019 87.5077 59.1536 88.8006C61.5052 90.0934 62.3469 93.042 61.2196 95.4773C55.4588 107.922 53.45 121.818 55.4993 135.449C57.7901 150.686 65.0248 164.748 76.09 175.471C87.1552 186.194 101.438 192.984 116.739 194.795C132.041 196.606 147.514 193.338 160.776 185.494C174.039 177.651 184.357 165.666 190.141 151.385C195.926 137.103 196.857 121.317 192.791 106.455C188.725 91.5922 179.888 78.4779 167.639 69.1299C156.681 60.7673 143.536 55.8333 129.856 54.8861C127.178 54.7008 125 52.5427 125 49.8591Z" fill="white"/>
</svg>
