<svg width="250" height="250" viewBox="0 0 250 250" fill="none" xmlns="http://www.w3.org/2000/svg">
<path d="M250 125C250 194.036 194.036 250 125 250C55.9644 250 0 194.036 0 125C0 55.9644 55.9644 0 125 0C194.036 0 250 55.9644 250 125ZM31.25 125C31.25 176.777 73.2233 218.75 125 218.75C176.777 218.75 218.75 176.777 218.75 125C218.75 73.2233 176.777 31.25 125 31.25C73.2233 31.25 31.25 73.2233 31.25 125Z" fill="#505C9C" fill-opacity="0.4"/>
<path d="M111.671 16.4403C110.619 7.87513 116.724 -0.0239854 125.354 0.00044394C142.731 0.049639 159.968 3.72265 175.942 10.8512C196.689 20.1101 214.52 34.8484 227.519 53.4818C240.518 72.1151 248.192 93.9388 249.718 116.607C251.243 139.275 246.562 161.93 236.177 182.137C225.792 202.344 210.096 219.339 190.777 231.294C171.457 243.249 149.245 249.713 126.527 249.991C103.809 250.268 81.4457 244.349 61.8399 232.869C46.7451 224.031 33.7246 212.154 23.5687 198.053C18.5254 191.05 21.3941 181.488 28.9706 177.357C36.5471 173.226 45.9442 176.125 51.2748 182.911C58.5115 192.124 67.4406 199.936 77.6299 205.902C92.3343 214.512 109.107 218.951 126.145 218.743C143.184 218.535 159.843 213.687 174.333 204.721C188.822 195.754 200.594 183.008 208.383 167.853C216.172 152.698 219.683 135.706 218.538 118.705C217.394 101.704 211.638 85.3363 201.889 71.3613C192.14 57.3863 178.767 46.3326 163.206 39.3884C152.424 34.5765 140.874 31.8639 129.17 31.3428C120.549 30.9589 112.722 25.0054 111.671 16.4403Z" fill="#5D6CB8"/>
<path fill-rule="evenodd" clip-rule="evenodd" d="M131.164 14.7445C131.17 14.3878 130.886 14.0936 130.53 14.0874L119.77 13.8995C119.413 13.8933 119.119 14.1774 119.113 14.5341L119.096 15.5052C119.089 15.8618 119.373 16.156 119.73 16.1623L130.49 16.3501C130.847 16.3563 131.141 16.0722 131.147 15.7155L131.164 14.7445Z" fill="white"/>
<path fill-rule="evenodd" clip-rule="evenodd" d="M130.315 14.6796C130.083 14.4472 129.701 14.4405 129.461 14.6647L124.618 19.1948C124.378 19.419 124.372 19.7891 124.604 20.0216L125.258 20.6784C125.49 20.9108 125.872 20.9175 126.112 20.6933L130.955 16.1632C131.195 15.939 131.201 15.5689 130.969 15.3365L130.315 14.6796Z" fill="white"/>
<path fill-rule="evenodd" clip-rule="evenodd" d="M130.297 15.6946C130.057 15.9188 129.675 15.9122 129.443 15.6797L124.761 10.9834C124.529 10.751 124.536 10.3809 124.775 10.1567L125.453 9.52308C125.693 9.29889 126.075 9.30556 126.306 9.53798L130.988 14.2343C131.22 14.4667 131.214 14.8369 130.974 15.0611L130.297 15.6946Z" fill="white"/>
</svg>
