<svg width="250" height="250" viewBox="0 0 250 250" fill="none" xmlns="http://www.w3.org/2000/svg">
<path d="M250 125C250 194.036 194.036 250 125 250C55.9644 250 0 194.036 0 125C0 55.9644 55.9644 0 125 0C194.036 0 250 55.9644 250 125ZM31.25 125C31.25 176.777 73.2233 218.75 125 218.75C176.777 218.75 218.75 176.777 218.75 125C218.75 73.2233 176.777 31.25 125 31.25C73.2233 31.25 31.25 73.2233 31.25 125Z" fill="#505C9C" fill-opacity="0.4"/>
<path d="M111.671 16.4403C110.619 7.87513 116.725 -0.0242111 125.354 7.50954e-05C152.31 0.0759388 178.679 8.87378 200.401 25.302C226.3 44.8895 243.561 73.7869 248.529 105.877C253.496 137.967 245.781 170.73 227.017 197.232C208.253 223.734 179.912 241.894 147.994 247.867C116.076 253.84 83.0859 247.158 56.0078 229.236C28.9297 211.313 9.88887 183.557 2.91596 151.842C-4.05696 120.127 1.58541 86.9437 18.6486 59.316C32.9598 36.1444 54.3626 18.4063 79.4669 8.58761C87.5036 5.44436 96.0527 10.6011 98.1695 18.9669C100.286 27.3327 95.1416 35.7135 87.243 39.1889C69.9737 46.7875 55.2777 59.479 45.2365 75.737C32.4391 96.4578 28.2073 121.345 33.437 145.131C38.6667 168.917 52.9473 189.735 73.2559 203.177C93.5645 216.619 118.307 221.63 142.245 217.15C166.184 212.67 187.44 199.051 201.513 179.174C215.586 159.298 221.372 134.725 217.646 110.658C213.921 86.5901 200.975 64.9171 181.551 50.2265C166.31 38.6999 148.019 32.1818 129.17 31.3425C120.55 30.9586 112.722 25.0054 111.671 16.4403Z" fill="#5D6CB8"/>
<path fill-rule="evenodd" clip-rule="evenodd" d="M131.164 14.7454C131.17 14.3888 130.886 14.0946 130.53 14.0883L119.77 13.9005C119.413 13.8943 119.119 14.1784 119.113 14.5351L119.096 15.5062C119.089 15.8628 119.373 16.157 119.73 16.1632L130.49 16.3511C130.847 16.3573 131.141 16.0732 131.147 15.7165L131.164 14.7454Z" fill="white"/>
<path fill-rule="evenodd" clip-rule="evenodd" d="M130.315 14.6806C130.083 14.4482 129.701 14.4415 129.461 14.6657L124.618 19.1958C124.378 19.4199 124.372 19.7901 124.604 20.0225L125.258 20.6794C125.49 20.9118 125.872 20.9185 126.112 20.6943L130.955 16.1642C131.195 15.94 131.201 15.5699 130.969 15.3374L130.315 14.6806Z" fill="white"/>
<path fill-rule="evenodd" clip-rule="evenodd" d="M130.297 15.6937C130.057 15.9179 129.675 15.9112 129.443 15.6788L124.761 10.9825C124.529 10.75 124.536 10.3799 124.775 10.1557L125.453 9.5221C125.693 9.29791 126.075 9.30458 126.306 9.537L130.988 14.2333C131.22 14.4657 131.214 14.8359 130.974 15.0601L130.297 15.6937Z" fill="white"/>
</svg>
