<svg width="250" height="250" viewBox="0 0 250 250" fill="none" xmlns="http://www.w3.org/2000/svg">
<path d="M250 125C250 194.036 194.036 250 125 250C55.9644 250 0 194.036 0 125C0 55.9644 55.9644 0 125 0C194.036 0 250 55.9644 250 125ZM31.25 125C31.25 176.777 73.2233 218.75 125 218.75C176.777 218.75 218.75 176.777 218.75 125C218.75 73.2233 176.777 31.25 125 31.25C73.2233 31.25 31.25 73.2233 31.25 125Z" fill="#505C9C" fill-opacity="0.4"/>
<path d="M250 125C250 194.036 194.036 250 125 250C55.9644 250 0 194.036 0 125C0 55.9644 55.9644 0 125 0C194.036 0 250 55.9644 250 125ZM31.25 125C31.25 176.777 73.2233 218.75 125 218.75C176.777 218.75 218.75 176.777 218.75 125C218.75 73.2233 176.777 31.25 125 31.25C73.2233 31.25 31.25 73.2233 31.25 125Z" fill="#5D6CB8"/>
<path fill-rule="evenodd" clip-rule="evenodd" d="M131.164 14.7445C131.17 14.3878 130.886 14.0936 130.53 14.0874L119.77 13.8995C119.413 13.8933 119.119 14.1774 119.113 14.5341L119.096 15.5052C119.089 15.8618 119.373 16.156 119.73 16.1623L130.49 16.3501C130.847 16.3563 131.141 16.0722 131.147 15.7155L131.164 14.7445Z" fill="white"/>
<path fill-rule="evenodd" clip-rule="evenodd" d="M130.315 14.6796C130.083 14.4472 129.701 14.4405 129.461 14.6647L124.618 19.1948C124.378 19.419 124.372 19.7891 124.604 20.0216L125.258 20.6784C125.49 20.9108 125.872 20.9175 126.112 20.6933L130.955 16.1632C131.195 15.939 131.201 15.5689 130.969 15.3365L130.315 14.6796Z" fill="white"/>
<path fill-rule="evenodd" clip-rule="evenodd" d="M130.297 15.6946C130.057 15.9188 129.675 15.9122 129.443 15.6797L124.761 10.9834C124.529 10.751 124.536 10.3809 124.775 10.1567L125.453 9.52308C125.693 9.29889 126.075 9.30556 126.306 9.53798L130.988 14.2343C131.22 14.4667 131.214 14.8369 130.974 15.0611L130.297 15.6946Z" fill="white"/>
<path d="M125 49.8591C125 47.1755 127.178 44.9846 129.857 45.1475C148.23 46.2644 165.714 53.6921 179.304 66.2542C194.087 79.919 203.174 98.6546 204.753 118.723C206.333 138.792 200.288 158.718 187.825 174.528C175.363 190.337 157.398 200.866 137.515 204.015C117.632 207.164 97.2925 202.702 80.5544 191.518C63.8162 180.333 51.9098 163.25 47.2104 143.676C42.511 124.101 45.364 103.474 55.2003 85.9103C64.243 69.7635 78.5762 57.2964 95.7053 50.5565C98.2025 49.5739 100.951 50.9845 101.78 53.5368C102.61 56.089 101.205 58.8145 98.7158 59.8181C83.91 65.7879 71.527 76.6461 63.6795 90.6588C55.038 106.089 52.5316 124.21 56.6601 141.407C60.7887 158.604 71.2487 173.612 85.9535 183.437C100.658 193.263 118.527 197.183 135.994 194.416C153.462 191.65 169.245 182.4 180.193 168.511C191.142 154.622 196.453 137.117 195.065 119.486C193.678 101.855 185.694 85.3953 172.707 73.3905C160.914 62.4887 145.781 55.9885 129.855 54.8861C127.178 54.7007 125 52.5427 125 49.8591Z" fill="white"/>
</svg>
