<svg width="250" height="250" viewBox="0 0 250 250" fill="none" xmlns="http://www.w3.org/2000/svg">
<path d="M250 125C250 194.036 194.036 250 125 250C55.9644 250 0 194.036 0 125C0 55.9644 55.9644 0 125 0C194.036 0 250 55.9644 250 125ZM31.25 125C31.25 176.777 73.2233 218.75 125 218.75C176.777 218.75 218.75 176.777 218.75 125C218.75 73.2233 176.777 31.25 125 31.25C73.2233 31.25 31.25 73.2233 31.25 125Z" fill="#505C9C" fill-opacity="0.4"/>
<path d="M111.671 16.4403C110.619 7.87513 116.724 -0.0239435 125.354 0.000480251C139.449 0.0403748 153.475 2.4644 166.829 7.20628C185.105 13.6963 201.621 24.35 215.069 38.3248C228.517 52.2996 238.529 69.2119 244.313 87.724C250.096 106.236 251.493 125.84 248.392 144.985C245.291 164.13 237.778 182.291 226.447 198.031C215.115 213.771 200.277 226.659 183.105 235.674C165.933 244.69 146.899 249.586 127.509 249.975C113.341 250.259 99.267 248.132 85.8795 243.721C77.6835 241.02 74.3837 231.598 78.0852 223.802C81.7867 216.007 91.0927 212.828 99.394 215.185C108.303 217.715 117.565 218.918 126.882 218.731C141.424 218.439 155.7 214.767 168.579 208.006C181.458 201.244 192.587 191.579 201.085 179.773C209.583 167.968 215.218 154.348 217.544 139.989C219.87 125.63 218.822 110.927 214.484 97.043C210.147 83.1589 202.638 70.4747 192.552 59.9936C182.466 49.5125 170.079 41.5222 156.372 36.6547C147.59 33.5365 138.422 31.7547 129.17 31.3428C120.549 30.9589 112.722 25.0054 111.671 16.4403Z" fill="#5D6CB8"/>
<path fill-rule="evenodd" clip-rule="evenodd" d="M131.164 14.7445C131.17 14.3878 130.886 14.0936 130.53 14.0874L119.77 13.8995C119.413 13.8933 119.119 14.1774 119.113 14.5341L119.096 15.5052C119.089 15.8618 119.373 16.156 119.73 16.1623L130.49 16.3501C130.847 16.3563 131.141 16.0722 131.147 15.7155L131.164 14.7445Z" fill="white"/>
<path fill-rule="evenodd" clip-rule="evenodd" d="M130.315 14.6796C130.083 14.4472 129.701 14.4405 129.461 14.6647L124.618 19.1948C124.378 19.419 124.372 19.7891 124.604 20.0216L125.258 20.6784C125.49 20.9108 125.872 20.9175 126.112 20.6933L130.955 16.1632C131.195 15.939 131.201 15.5689 130.969 15.3365L130.315 14.6796Z" fill="white"/>
<path fill-rule="evenodd" clip-rule="evenodd" d="M130.297 15.6946C130.057 15.9188 129.675 15.9122 129.443 15.6797L124.761 10.9834C124.529 10.751 124.536 10.3809 124.775 10.1567L125.453 9.52308C125.693 9.29889 126.075 9.30556 126.306 9.53798L130.988 14.2343C131.22 14.4667 131.214 14.8369 130.974 15.0611L130.297 15.6946Z" fill="white"/>
</svg>
