<svg width="250" height="250" viewBox="0 0 250 250" fill="none" xmlns="http://www.w3.org/2000/svg">
<path d="M250 125C250 194.036 194.036 250 125 250C55.9644 250 0 194.036 0 125C0 55.9644 55.9644 0 125 0C194.036 0 250 55.9644 250 125ZM31.25 125C31.25 176.777 73.2233 218.75 125 218.75C176.777 218.75 218.75 176.777 218.75 125C218.75 73.2233 176.777 31.25 125 31.25C73.2233 31.25 31.25 73.2233 31.25 125Z" fill="#505C9C" fill-opacity="0.4"/>
<path d="M111.671 16.4403C110.619 7.87513 116.724 -0.0240411 125.354 0.000381725C145.693 0.0579457 165.796 5.08007 183.877 14.7342C206.571 26.8518 224.974 45.6769 236.573 68.6403C248.173 91.6038 252.405 117.587 248.691 143.045C244.977 168.502 233.498 192.193 215.822 210.886C198.145 229.578 175.131 242.361 149.921 247.491C124.711 252.62 98.5316 249.845 74.9564 239.545C51.3812 229.246 31.5583 211.922 18.1927 189.94C7.54435 172.427 1.40788 152.635 0.21504 132.331C-0.291052 123.716 7.25499 117.179 15.8655 117.751C24.4759 118.323 30.857 125.806 31.7215 134.392C33.117 148.25 37.5905 161.692 44.8945 173.705C54.9187 190.192 69.7859 203.184 87.4673 210.909C105.149 218.634 124.783 220.715 143.691 216.868C162.599 213.021 179.859 203.434 193.116 189.414C206.374 175.395 214.983 157.626 217.768 138.533C220.553 119.44 217.38 99.9528 208.68 82.7302C199.98 65.5076 186.178 51.3889 169.157 42.3006C156.755 35.6786 143.085 31.9624 129.17 31.3427C120.549 30.9588 112.722 25.0054 111.671 16.4403Z" fill="#5D6CB8"/>
<path fill-rule="evenodd" clip-rule="evenodd" d="M131.164 14.7454C131.17 14.3888 130.886 14.0946 130.53 14.0883L119.77 13.9005C119.413 13.8943 119.119 14.1784 119.113 14.5351L119.096 15.5062C119.089 15.8628 119.373 16.157 119.73 16.1632L130.49 16.3511C130.847 16.3573 131.141 16.0732 131.147 15.7165L131.164 14.7454Z" fill="white"/>
<path fill-rule="evenodd" clip-rule="evenodd" d="M130.315 14.6806C130.083 14.4482 129.701 14.4415 129.461 14.6657L124.618 19.1958C124.378 19.4199 124.372 19.7901 124.604 20.0225L125.258 20.6794C125.49 20.9118 125.872 20.9185 126.112 20.6943L130.955 16.1642C131.195 15.94 131.201 15.5699 130.969 15.3374L130.315 14.6806Z" fill="white"/>
<path fill-rule="evenodd" clip-rule="evenodd" d="M130.297 15.6937C130.057 15.9179 129.675 15.9112 129.443 15.6788L124.761 10.9825C124.529 10.75 124.536 10.3799 124.775 10.1557L125.453 9.5221C125.693 9.29791 126.075 9.30458 126.306 9.537L130.988 14.2333C131.22 14.4657 131.214 14.8359 130.974 15.0601L130.297 15.6937Z" fill="white"/>
</svg>
