<svg width="250" height="250" viewBox="0 0 250 250" fill="none" xmlns="http://www.w3.org/2000/svg">
<path d="M250 125C250 194.036 194.036 250 125 250C55.9644 250 0 194.036 0 125C0 55.9644 55.9644 0 125 0C194.036 0 250 55.9644 250 125ZM31.25 125C31.25 176.777 73.2233 218.75 125 218.75C176.777 218.75 218.75 176.777 218.75 125C218.75 73.2233 176.777 31.25 125 31.25C73.2233 31.25 31.25 73.2233 31.25 125Z" fill="#505C9C" fill-opacity="0.4"/>
<path d="M111.671 16.4403C110.619 7.87513 116.724 -0.0240761 125.354 0.000304936C148.003 0.0642965 170.317 6.28486 189.847 18.136C213.85 32.7018 232.251 54.9248 242.084 81.2241C251.917 107.523 252.609 136.367 244.049 163.108C235.49 189.849 218.176 212.929 194.899 228.63C171.622 244.33 143.737 251.737 115.736 249.656C87.7363 247.576 61.252 236.128 40.5512 217.16C19.8504 198.191 6.13868 172.805 1.62545 145.093C-2.04664 122.545 0.544624 99.5261 8.96981 78.5022C12.1798 70.492 21.791 67.7903 29.3385 71.9739C36.886 76.1576 39.4737 85.6449 36.6002 93.7819C31.3879 108.542 29.9263 124.457 32.4691 140.07C35.854 160.854 46.1378 179.893 61.6634 194.12C77.189 208.346 97.0522 216.932 118.052 218.492C139.052 220.053 159.966 214.498 177.424 202.722C194.882 190.947 207.867 173.637 214.287 153.581C220.707 133.525 220.188 111.893 212.813 92.1681C205.438 72.4436 191.638 55.7764 173.635 44.852C160.111 36.6457 144.808 32.039 129.17 31.3427C120.549 30.9587 112.722 25.0054 111.671 16.4403Z" fill="#5D6CB8"/>
<path fill-rule="evenodd" clip-rule="evenodd" d="M131.164 14.7454C131.17 14.3888 130.886 14.0946 130.53 14.0883L119.77 13.9005C119.413 13.8943 119.119 14.1784 119.113 14.5351L119.096 15.5062C119.089 15.8628 119.373 16.157 119.73 16.1632L130.49 16.3511C130.847 16.3573 131.141 16.0732 131.147 15.7165L131.164 14.7454Z" fill="white"/>
<path fill-rule="evenodd" clip-rule="evenodd" d="M130.315 14.6806C130.083 14.4482 129.701 14.4415 129.461 14.6657L124.618 19.1958C124.378 19.4199 124.372 19.7901 124.604 20.0225L125.258 20.6794C125.49 20.9118 125.872 20.9185 126.112 20.6943L130.955 16.1642C131.195 15.94 131.201 15.5699 130.969 15.3374L130.315 14.6806Z" fill="white"/>
<path fill-rule="evenodd" clip-rule="evenodd" d="M130.297 15.6937C130.057 15.9179 129.675 15.9112 129.443 15.6788L124.761 10.9825C124.529 10.75 124.536 10.3799 124.775 10.1557L125.453 9.5221C125.693 9.29791 126.075 9.30458 126.306 9.537L130.988 14.2333C131.22 14.4657 131.214 14.8359 130.974 15.0601L130.297 15.6937Z" fill="white"/>
</svg>
