<svg width="250" height="250" viewBox="0 0 250 250" fill="none" xmlns="http://www.w3.org/2000/svg">
<path d="M250 125C250 194.036 194.036 250 125 250C55.9644 250 0 194.036 0 125C0 55.9644 55.9644 0 125 0C194.036 0 250 55.9644 250 125ZM31.25 125C31.25 176.777 73.2233 218.75 125 218.75C176.777 218.75 218.75 176.777 218.75 125C218.75 73.2233 176.777 31.25 125 31.25C73.2233 31.25 31.25 73.2233 31.25 125Z" fill="#505C9C" fill-opacity="0.4"/>
<path d="M111.671 16.4403C110.619 7.87513 116.724 -0.02409 125.354 0.00029191C148.333 0.0652193 170.961 6.46773 190.684 18.6486C214.859 33.5794 233.226 56.3009 242.757 83.0686C252.289 109.836 252.416 139.052 243.119 165.902C233.821 192.752 215.653 215.633 191.61 230.774C167.566 245.915 139.081 252.413 110.85 249.196C82.6182 245.98 56.3251 233.241 36.3036 213.079C16.2822 192.918 3.72714 166.536 0.707756 138.283C-1.75554 115.233 2.24774 92.0602 12.1183 71.3085C15.825 63.5156 25.5869 61.4226 32.8568 66.0719C40.1267 70.7212 42.1136 80.3524 38.7348 88.2929C32.5094 102.923 30.0731 118.982 31.7808 134.962C34.0454 156.152 43.4616 175.938 58.4777 191.059C73.4939 206.181 93.2137 215.735 114.387 218.147C135.561 220.56 156.924 215.686 174.957 204.331C192.99 192.975 206.616 175.814 213.589 155.677C220.562 135.539 220.467 113.627 213.318 93.5514C206.169 73.4757 192.394 56.4345 174.263 45.2365C160.59 36.7917 145.055 32.05 129.17 31.3426C120.549 30.9587 112.722 25.0054 111.671 16.4403Z" fill="#5D6CB8"/>
<path fill-rule="evenodd" clip-rule="evenodd" d="M131.164 14.7454C131.17 14.3888 130.886 14.0946 130.53 14.0883L119.77 13.9005C119.413 13.8943 119.119 14.1784 119.113 14.5351L119.096 15.5062C119.089 15.8628 119.373 16.157 119.73 16.1632L130.49 16.3511C130.847 16.3573 131.141 16.0732 131.147 15.7165L131.164 14.7454Z" fill="white"/>
<path fill-rule="evenodd" clip-rule="evenodd" d="M130.315 14.6806C130.083 14.4482 129.701 14.4415 129.461 14.6657L124.618 19.1958C124.378 19.4199 124.372 19.7901 124.604 20.0225L125.258 20.6794C125.49 20.9118 125.872 20.9185 126.112 20.6943L130.955 16.1642C131.195 15.94 131.201 15.5699 130.969 15.3374L130.315 14.6806Z" fill="white"/>
<path fill-rule="evenodd" clip-rule="evenodd" d="M130.297 15.6937C130.057 15.9179 129.675 15.9112 129.443 15.6788L124.761 10.9825C124.529 10.75 124.536 10.3799 124.775 10.1557L125.453 9.5221C125.693 9.29791 126.075 9.30458 126.306 9.537L130.988 14.2333C131.22 14.4657 131.214 14.8359 130.974 15.0601L130.297 15.6937Z" fill="white"/>
</svg>
