<svg width="250" height="250" viewBox="0 0 250 250" fill="none" xmlns="http://www.w3.org/2000/svg">
<path d="M250 125C250 194.036 194.036 250 125 250C55.9644 250 0 194.036 0 125C0 55.9644 55.9644 0 125 0C194.036 0 250 55.9644 250 125ZM31.25 125C31.25 176.777 73.2233 218.75 125 218.75C176.777 218.75 218.75 176.777 218.75 125C218.75 73.2233 176.777 31.25 125 31.25C73.2233 31.25 31.25 73.2233 31.25 125Z" fill="#505C9C" fill-opacity="0.4"/>
<path d="M111.671 16.4403C110.619 7.87513 116.724 -0.0240536 125.354 0.000362737C146.353 0.059777 167.089 5.41093 185.601 15.6725C208.689 28.4703 227.132 48.2486 238.288 72.1727C249.445 96.0969 252.74 122.939 247.703 148.851C242.667 174.764 229.556 198.416 210.25 216.419C190.944 234.422 166.434 245.851 140.234 249.068C114.033 252.285 87.4865 247.125 64.3988 234.327C41.3111 221.53 22.8676 201.751 11.7115 177.827C2.76627 158.644 -1.12535 137.585 0.28017 116.633C0.857772 108.023 9.16362 102.484 17.6345 104.13C26.1054 105.777 31.4983 114 31.2799 122.627C30.915 137.043 33.8799 151.424 40.0336 164.62C48.4007 182.564 62.2333 197.397 79.5491 206.996C96.8649 216.594 116.775 220.464 136.425 218.051C156.076 215.638 174.458 207.067 188.937 193.564C203.417 180.062 213.25 162.323 217.028 142.888C220.805 123.454 218.333 103.323 209.966 85.3795C201.599 67.4364 187.767 52.6027 170.451 43.0044C157.716 35.9451 143.577 31.9843 129.17 31.3427C120.549 30.9588 112.722 25.0054 111.671 16.4403Z" fill="#5D6CB8"/>
<path fill-rule="evenodd" clip-rule="evenodd" d="M131.164 14.7454C131.17 14.3888 130.886 14.0946 130.53 14.0883L119.77 13.9005C119.413 13.8943 119.119 14.1784 119.113 14.5351L119.096 15.5062C119.089 15.8628 119.373 16.157 119.73 16.1632L130.49 16.3511C130.847 16.3573 131.141 16.0732 131.147 15.7165L131.164 14.7454Z" fill="white"/>
<path fill-rule="evenodd" clip-rule="evenodd" d="M130.315 14.6806C130.083 14.4482 129.701 14.4415 129.461 14.6657L124.618 19.1958C124.378 19.4199 124.372 19.7901 124.604 20.0225L125.258 20.6794C125.49 20.9118 125.872 20.9185 126.112 20.6943L130.955 16.1642C131.195 15.94 131.201 15.5699 130.969 15.3374L130.315 14.6806Z" fill="white"/>
<path fill-rule="evenodd" clip-rule="evenodd" d="M130.297 15.6937C130.057 15.9179 129.675 15.9112 129.443 15.6788L124.761 10.9825C124.529 10.75 124.536 10.3799 124.775 10.1557L125.453 9.5221C125.693 9.29791 126.075 9.30458 126.306 9.537L130.988 14.2333C131.22 14.4657 131.214 14.8359 130.974 15.0601L130.297 15.6937Z" fill="white"/>
</svg>
