<svg width="250" height="250" viewBox="0 0 250 250" fill="none" xmlns="http://www.w3.org/2000/svg">
<path d="M250 125C250 194.036 194.036 250 125 250C55.9644 250 0 194.036 0 125C0 55.9644 55.9644 0 125 0C194.036 0 250 55.9644 250 125ZM31.25 125C31.25 176.777 73.2233 218.75 125 218.75C176.777 218.75 218.75 176.777 218.75 125C218.75 73.2233 176.777 31.25 125 31.25C73.2233 31.25 31.25 73.2233 31.25 125Z" fill="#505C9C" fill-opacity="0.4"/>
<path d="M111.671 16.4403C110.619 7.87513 116.724 -0.0239305 125.354 0.0004881C138.138 0.0366648 150.873 2.03415 163.108 5.95053C180.317 11.4591 196.127 20.6331 209.449 32.8404C222.771 45.0476 233.288 59.9979 240.275 76.6612C247.263 93.3244 250.554 111.304 249.924 129.362C249.293 147.42 244.755 165.127 236.622 181.262C228.49 197.398 216.955 211.578 202.814 222.826C188.673 234.074 172.262 242.123 154.711 246.418C142.233 249.471 129.389 250.575 116.633 249.72C108.023 249.142 102.484 240.836 104.13 232.365C105.777 223.895 114 218.502 122.627 218.72C130.904 218.93 139.196 218.042 147.283 216.063C160.446 212.842 172.755 206.806 183.361 198.37C193.966 189.933 202.617 179.298 208.717 167.197C214.816 155.095 218.22 141.815 218.693 128.272C219.166 114.728 216.697 101.243 211.456 88.7459C206.216 76.2484 198.328 65.0357 188.337 55.8803C178.345 46.7248 166.488 39.8443 153.581 35.7129C145.652 33.1746 137.442 31.7111 129.17 31.3428C120.549 30.9589 112.722 25.0054 111.671 16.4403Z" fill="#5D6CB8"/>
<path fill-rule="evenodd" clip-rule="evenodd" d="M131.164 14.7445C131.17 14.3878 130.886 14.0936 130.53 14.0874L119.77 13.8995C119.413 13.8933 119.119 14.1774 119.113 14.5341L119.096 15.5052C119.089 15.8618 119.373 16.156 119.73 16.1623L130.49 16.3501C130.847 16.3563 131.141 16.0722 131.147 15.7155L131.164 14.7445Z" fill="white"/>
<path fill-rule="evenodd" clip-rule="evenodd" d="M130.315 14.6796C130.083 14.4472 129.701 14.4405 129.461 14.6647L124.618 19.1948C124.378 19.419 124.372 19.7891 124.604 20.0216L125.258 20.6784C125.49 20.9108 125.872 20.9175 126.112 20.6933L130.955 16.1632C131.195 15.939 131.201 15.5689 130.969 15.3365L130.315 14.6796Z" fill="white"/>
<path fill-rule="evenodd" clip-rule="evenodd" d="M130.297 15.6946C130.057 15.9188 129.675 15.9122 129.443 15.6797L124.761 10.9834C124.529 10.751 124.536 10.3809 124.775 10.1567L125.453 9.52308C125.693 9.29889 126.075 9.30556 126.306 9.53798L130.988 14.2343C131.22 14.4667 131.214 14.8369 130.974 15.0611L130.297 15.6946Z" fill="white"/>
</svg>
