<svg width="250" height="250" viewBox="0 0 250 250" fill="none" xmlns="http://www.w3.org/2000/svg">
<path d="M250 125C250 194.036 194.036 250 125 250C55.9644 250 0 194.036 0 125C0 55.9644 55.9644 0 125 0C194.036 0 250 55.9644 250 125ZM31.25 125C31.25 176.777 73.2233 218.75 125 218.75C176.777 218.75 218.75 176.777 218.75 125C218.75 73.2233 176.777 31.25 125 31.25C73.2233 31.25 31.25 73.2233 31.25 125Z" fill="#505C9C" fill-opacity="0.4"/>
<path d="M111.671 16.4403C110.619 7.87513 116.724 -0.0240169 125.354 0.000406185C144.705 0.0551742 163.855 4.60375 181.262 13.3776C203.339 24.5053 221.62 41.9296 233.794 63.4471C245.968 84.9646 251.488 109.609 249.656 134.264C247.824 158.918 238.722 182.476 223.501 201.958C208.281 221.439 187.625 235.97 164.145 243.712C140.666 251.455 115.419 252.061 91.5952 245.454C67.7717 238.847 46.4424 225.324 30.3044 206.595C17.58 191.828 8.53363 174.347 3.79901 155.583C1.68767 147.216 7.87514 139.381 16.4403 138.329C25.0054 137.278 32.6755 143.432 35.1336 151.704C38.8908 164.348 45.2918 176.115 53.9783 186.196C66.0818 200.243 82.0788 210.385 99.9464 215.34C117.814 220.295 136.75 219.841 154.359 214.034C171.968 208.228 187.46 197.33 198.876 182.718C210.292 168.107 217.118 150.439 218.492 131.948C219.866 113.457 215.726 94.9734 206.596 78.8353C197.465 62.6972 183.754 49.629 167.197 41.2832C155.314 35.2936 142.347 31.9295 129.17 31.3427C120.549 30.9588 112.722 25.0054 111.671 16.4403Z" fill="#5D6CB8"/>
<path fill-rule="evenodd" clip-rule="evenodd" d="M131.164 14.7454C131.17 14.3888 130.886 14.0946 130.53 14.0883L119.77 13.9005C119.413 13.8943 119.119 14.1784 119.113 14.5351L119.096 15.5062C119.089 15.8628 119.373 16.157 119.73 16.1632L130.49 16.3511C130.847 16.3573 131.141 16.0732 131.147 15.7165L131.164 14.7454Z" fill="white"/>
<path fill-rule="evenodd" clip-rule="evenodd" d="M130.315 14.6806C130.083 14.4482 129.701 14.4415 129.461 14.6657L124.618 19.1958C124.378 19.4199 124.372 19.7901 124.604 20.0225L125.258 20.6794C125.49 20.9118 125.872 20.9185 126.112 20.6943L130.955 16.1642C131.195 15.94 131.201 15.5699 130.969 15.3374L130.315 14.6806Z" fill="white"/>
<path fill-rule="evenodd" clip-rule="evenodd" d="M130.297 15.6937C130.057 15.9179 129.675 15.9112 129.443 15.6788L124.761 10.9825C124.529 10.75 124.536 10.3799 124.775 10.1557L125.453 9.5221C125.693 9.29791 126.075 9.30458 126.306 9.537L130.988 14.2333C131.22 14.4657 131.214 14.8359 130.974 15.0601L130.297 15.6937Z" fill="white"/>
</svg>
