<svg width="250" height="250" viewBox="0 0 250 250" fill="none" xmlns="http://www.w3.org/2000/svg">
<path d="M250 125C250 194.036 194.036 250 125 250C55.9644 250 0 194.036 0 125C0 55.9644 55.9644 0 125 0C194.036 0 250 55.9644 250 125ZM31.25 125C31.25 176.777 73.2233 218.75 125 218.75C176.777 218.75 218.75 176.777 218.75 125C218.75 73.2233 176.777 31.25 125 31.25C73.2233 31.25 31.25 73.2233 31.25 125Z" fill="#505C9C" fill-opacity="0.4"/>
<path d="M111.671 16.4403C110.619 7.87513 116.724 -0.0240076 125.354 0.000413346C144.376 0.054245 163.208 4.45028 180.384 12.9392C202.248 23.745 220.473 40.7105 232.814 61.7458C245.156 82.781 251.074 106.967 249.84 131.324C248.606 155.681 240.274 179.145 225.87 198.826C211.466 218.506 191.62 233.543 168.776 242.084C145.932 250.625 121.089 252.297 97.3065 246.894C73.5242 241.49 51.842 229.248 34.9311 211.675C21.646 197.87 11.7615 181.249 5.95851 163.133C3.32596 154.915 9.00926 146.707 17.4915 145.12C25.9736 143.532 34.0151 149.193 36.9877 157.294C41.4467 169.446 48.3946 180.598 57.4483 190.006C70.1315 203.186 86.3932 212.368 104.23 216.42C122.067 220.473 140.699 219.219 157.832 212.813C174.965 206.407 189.85 195.13 200.653 180.369C211.455 165.609 217.705 148.011 218.63 129.743C219.555 111.475 215.117 93.3358 205.861 77.5593C196.605 61.7829 182.936 49.0587 166.538 40.9544C154.833 35.1692 142.102 31.9186 129.17 31.3427C120.549 30.9588 112.722 25.0054 111.671 16.4403Z" fill="#5D6CB8"/>
<path fill-rule="evenodd" clip-rule="evenodd" d="M131.164 14.7454C131.17 14.3888 130.886 14.0946 130.53 14.0883L119.77 13.9005C119.413 13.8943 119.119 14.1784 119.113 14.5351L119.096 15.5062C119.089 15.8628 119.373 16.157 119.73 16.1632L130.49 16.3511C130.847 16.3573 131.141 16.0732 131.147 15.7165L131.164 14.7454Z" fill="white"/>
<path fill-rule="evenodd" clip-rule="evenodd" d="M130.315 14.6806C130.083 14.4482 129.701 14.4415 129.461 14.6657L124.618 19.1958C124.378 19.4199 124.372 19.7901 124.604 20.0225L125.258 20.6794C125.49 20.9118 125.872 20.9185 126.112 20.6943L130.955 16.1642C131.195 15.94 131.201 15.5699 130.969 15.3374L130.315 14.6806Z" fill="white"/>
<path fill-rule="evenodd" clip-rule="evenodd" d="M130.297 15.6937C130.057 15.9179 129.675 15.9112 129.443 15.6788L124.761 10.9825C124.529 10.75 124.536 10.3799 124.775 10.1557L125.453 9.5221C125.693 9.29791 126.075 9.30458 126.306 9.537L130.988 14.2333C131.22 14.4657 131.214 14.8359 130.974 15.0601L130.297 15.6937Z" fill="white"/>
</svg>
