<svg width="250" height="250" viewBox="0 0 250 250" fill="none" xmlns="http://www.w3.org/2000/svg">
<path d="M250 125C250 194.036 194.036 250 125 250C55.9644 250 0 194.036 0 125C0 55.9644 55.9644 0 125 0C194.036 0 250 55.9644 250 125ZM31.25 125C31.25 176.777 73.2233 218.75 125 218.75C176.777 218.75 218.75 176.777 218.75 125C218.75 73.2233 176.777 31.25 125 31.25C73.2233 31.25 31.25 73.2233 31.25 125Z" fill="#505C9C" fill-opacity="0.4"/>
<path d="M111.671 16.4403C110.619 7.87513 116.724 -0.0239501 125.354 0.000475071C140.105 0.042228 154.775 2.69514 168.674 7.87783C187.468 14.886 204.299 26.314 217.747 41.1967C231.195 56.0794 240.863 73.9797 245.936 93.3858C251.009 112.792 251.338 133.134 246.894 152.694C242.45 172.253 233.364 190.456 220.404 205.766C207.444 221.075 190.99 233.04 172.432 240.651C153.874 248.262 133.757 251.296 113.78 249.495C99.0059 248.164 84.6296 244.218 71.3083 237.881C63.5155 234.175 61.4226 224.413 66.0719 217.143C70.7212 209.873 80.3522 207.886 88.2927 211.265C97.2656 215.083 106.809 217.49 116.585 218.372C131.568 219.722 146.655 217.447 160.574 211.738C174.493 206.03 186.833 197.056 196.553 185.574C206.273 174.092 213.087 160.44 216.42 145.77C219.753 131.1 219.507 115.844 215.702 101.289C211.897 86.7348 204.646 73.3096 194.56 62.1475C184.475 50.9855 171.851 42.4145 157.755 37.1584C148.559 33.7291 138.912 31.7766 129.17 31.3428C120.549 30.9589 112.722 25.0054 111.671 16.4403Z" fill="#5D6CB8"/>
<path fill-rule="evenodd" clip-rule="evenodd" d="M131.164 14.7445C131.17 14.3878 130.886 14.0936 130.53 14.0874L119.77 13.8995C119.413 13.8933 119.119 14.1774 119.113 14.5341L119.096 15.5052C119.089 15.8618 119.373 16.156 119.73 16.1623L130.49 16.3501C130.847 16.3563 131.141 16.0722 131.147 15.7155L131.164 14.7445Z" fill="white"/>
<path fill-rule="evenodd" clip-rule="evenodd" d="M130.315 14.6796C130.083 14.4472 129.701 14.4405 129.461 14.6647L124.618 19.1948C124.378 19.419 124.372 19.7891 124.604 20.0216L125.258 20.6784C125.49 20.9108 125.872 20.9175 126.112 20.6933L130.955 16.1632C131.195 15.939 131.201 15.5689 130.969 15.3365L130.315 14.6796Z" fill="white"/>
<path fill-rule="evenodd" clip-rule="evenodd" d="M130.297 15.6946C130.057 15.9188 129.675 15.9122 129.443 15.6797L124.761 10.9834C124.529 10.751 124.536 10.3809 124.775 10.1567L125.453 9.52308C125.693 9.29889 126.075 9.30556 126.306 9.53798L130.988 14.2343C131.22 14.4667 131.214 14.8369 130.974 15.0611L130.297 15.6946Z" fill="white"/>
</svg>
