<svg width="250" height="250" viewBox="0 0 250 250" fill="none" xmlns="http://www.w3.org/2000/svg">
<path d="M250 125C250 194.036 194.036 250 125 250C55.9644 250 0 194.036 0 125C0 55.9644 55.9644 0 125 0C194.036 0 250 55.9644 250 125ZM31.25 125C31.25 176.777 73.2233 218.75 125 218.75C176.777 218.75 218.75 176.777 218.75 125C218.75 73.2233 176.777 31.25 125 31.25C73.2233 31.25 31.25 73.2233 31.25 125Z" fill="#505C9C" fill-opacity="0.4"/>
<path d="M111.671 16.4403C110.619 7.87513 116.725 -0.0241164 125.354 0.000263769C148.995 0.0670548 172.25 6.84157 192.346 19.6935C216.852 35.3652 235.124 59.0926 244.016 86.7881C252.908 114.484 251.863 144.413 241.061 171.421C230.258 198.429 210.375 220.824 184.836 234.748C159.298 248.672 129.702 253.254 101.149 247.703C72.5953 242.153 46.8713 226.819 28.4083 204.341C9.94526 181.864 -0.100778 153.651 0.000761591 124.564C0.0840306 100.71 6.98737 77.492 19.7377 57.5841C24.3918 50.3173 34.3391 49.4642 40.969 54.988C47.5989 60.5118 48.3629 70.3161 44.0156 77.7705C35.7569 91.9319 31.3084 108.098 31.2506 124.673C31.1744 146.489 38.7089 167.648 52.5562 184.506C66.4035 201.364 85.6965 212.865 107.112 217.028C128.527 221.19 150.723 217.754 169.877 207.311C189.031 196.868 203.944 180.072 212.046 159.816C220.147 139.56 220.931 117.113 214.262 96.3411C207.593 75.5694 193.889 57.7739 175.51 46.0201C161.546 37.0898 145.548 32.072 129.17 31.3426C120.55 30.9587 112.722 25.0054 111.671 16.4403Z" fill="#5D6CB8"/>
<path fill-rule="evenodd" clip-rule="evenodd" d="M131.164 14.7454C131.17 14.3888 130.886 14.0946 130.53 14.0883L119.77 13.9005C119.413 13.8943 119.119 14.1784 119.113 14.5351L119.096 15.5062C119.089 15.8628 119.373 16.157 119.73 16.1632L130.49 16.3511C130.847 16.3573 131.141 16.0732 131.147 15.7165L131.164 14.7454Z" fill="white"/>
<path fill-rule="evenodd" clip-rule="evenodd" d="M130.315 14.6806C130.083 14.4482 129.701 14.4415 129.461 14.6657L124.618 19.1958C124.378 19.4199 124.372 19.7901 124.604 20.0225L125.258 20.6794C125.49 20.9118 125.872 20.9185 126.112 20.6943L130.955 16.1642C131.195 15.94 131.201 15.5699 130.969 15.3374L130.315 14.6806Z" fill="white"/>
<path fill-rule="evenodd" clip-rule="evenodd" d="M130.297 15.6937C130.057 15.9179 129.675 15.9112 129.443 15.6788L124.761 10.9825C124.529 10.75 124.536 10.3799 124.775 10.1557L125.453 9.5221C125.693 9.29791 126.075 9.30458 126.306 9.537L130.988 14.2333C131.22 14.4657 131.214 14.8359 130.974 15.0601L130.297 15.6937Z" fill="white"/>
</svg>
