<svg width="250" height="250" viewBox="0 0 250 250" fill="none" xmlns="http://www.w3.org/2000/svg">
<path d="M250 125C250 194.036 194.036 250 125 250C55.9644 250 0 194.036 0 125C0 55.9644 55.9644 0 125 0C194.036 0 250 55.9644 250 125ZM31.25 125C31.25 176.777 73.2233 218.75 125 218.75C176.777 218.75 218.75 176.777 218.75 125C218.75 73.2233 176.777 31.25 125 31.25C73.2233 31.25 31.25 73.2233 31.25 125Z" fill="#505C9C" fill-opacity="0.4"/>
<path d="M111.671 16.4403C110.619 7.87513 116.724 -0.0239703 125.354 0.000457806C141.746 0.0468608 158.022 3.31768 173.238 9.68275C193.276 18.0647 210.784 31.5232 224.036 48.7319C237.289 65.9405 245.828 86.3054 248.814 107.819C251.799 129.333 249.127 151.254 241.061 171.421C232.995 191.588 219.813 209.305 202.814 222.826C185.816 236.347 165.588 245.206 144.123 248.529C122.659 251.851 100.699 249.524 80.4078 241.776C64.9992 235.892 50.9568 227.036 39.054 215.765C32.788 209.832 33.814 199.901 40.4823 194.424C47.1506 188.946 56.9243 190.033 63.4321 195.7C71.7113 202.91 81.2241 208.636 91.5558 212.582C106.774 218.393 123.244 220.139 139.342 217.646C155.441 215.154 170.612 208.51 183.361 198.37C196.11 188.229 205.996 174.941 212.046 159.816C218.095 144.691 220.099 128.25 217.86 112.115C215.621 95.979 209.216 80.7054 199.277 67.7989C189.338 54.8924 176.207 44.7985 161.179 38.5121C150.976 34.2442 140.138 31.8312 129.17 31.3428C120.549 30.9589 112.722 25.0054 111.671 16.4403Z" fill="#5D6CB8"/>
<path fill-rule="evenodd" clip-rule="evenodd" d="M131.164 14.7445C131.17 14.3878 130.886 14.0936 130.53 14.0874L119.77 13.8995C119.413 13.8933 119.119 14.1774 119.113 14.5341L119.096 15.5052C119.089 15.8618 119.373 16.156 119.73 16.1623L130.49 16.3501C130.847 16.3563 131.141 16.0722 131.147 15.7155L131.164 14.7445Z" fill="white"/>
<path fill-rule="evenodd" clip-rule="evenodd" d="M130.315 14.6796C130.083 14.4472 129.701 14.4405 129.461 14.6647L124.618 19.1948C124.378 19.419 124.372 19.7891 124.604 20.0216L125.258 20.6784C125.49 20.9108 125.872 20.9175 126.112 20.6933L130.955 16.1632C131.195 15.939 131.201 15.5689 130.969 15.3365L130.315 14.6796Z" fill="white"/>
<path fill-rule="evenodd" clip-rule="evenodd" d="M130.297 15.6946C130.057 15.9188 129.675 15.9122 129.443 15.6797L124.761 10.9834C124.529 10.751 124.536 10.3809 124.775 10.1567L125.453 9.52308C125.693 9.29889 126.075 9.30556 126.306 9.53798L130.988 14.2343C131.22 14.4667 131.214 14.8369 130.974 15.0611L130.297 15.6946Z" fill="white"/>
</svg>
