<svg width="250" height="250" viewBox="0 0 250 250" fill="none" xmlns="http://www.w3.org/2000/svg">
<path d="M250 125C250 194.036 194.036 250 125 250C55.9644 250 0 194.036 0 125C0 55.9644 55.9644 0 125 0C194.036 0 250 55.9644 250 125ZM31.25 125C31.25 176.777 73.2233 218.75 125 218.75C176.777 218.75 218.75 176.777 218.75 125C218.75 73.2233 176.777 31.25 125 31.25C73.2233 31.25 31.25 73.2233 31.25 125Z" fill="#505C9C" fill-opacity="0.4"/>
<path d="M111.671 16.4403C110.619 7.87513 116.724 -0.0239312 125.354 0.000486313C138.466 0.0375885 151.524 2.13781 164.042 6.2535C181.522 12.0005 197.517 21.5357 210.886 34.1782C224.255 46.8207 234.668 62.2588 241.382 79.3904C248.096 96.522 250.945 114.925 249.725 133.284C248.506 151.644 243.248 169.508 234.327 185.601C225.407 201.694 213.043 215.62 198.12 226.383C183.196 237.146 166.08 244.482 147.994 247.867C135.042 250.291 121.82 250.646 108.818 248.948C100.262 247.831 95.2547 239.194 97.4299 230.843C99.6051 222.492 108.151 217.626 116.747 218.386C125.239 219.137 133.818 218.727 142.245 217.15C155.81 214.612 168.647 209.11 179.84 201.037C191.033 192.965 200.305 182.521 206.996 170.451C213.686 158.381 217.629 144.983 218.544 131.213C219.458 117.443 217.322 103.642 212.286 90.7928C207.251 77.9441 199.441 66.3655 189.414 56.8836C179.388 47.4017 167.391 40.2504 154.281 35.9401C146.137 33.2622 137.687 31.722 129.17 31.3428C120.549 30.9589 112.722 25.0054 111.671 16.4403Z" fill="#5D6CB8"/>
<path fill-rule="evenodd" clip-rule="evenodd" d="M131.164 14.7445C131.17 14.3878 130.886 14.0936 130.53 14.0874L119.77 13.8995C119.413 13.8933 119.119 14.1774 119.113 14.5341L119.096 15.5052C119.089 15.8618 119.373 16.156 119.73 16.1623L130.49 16.3501C130.847 16.3563 131.141 16.0722 131.147 15.7155L131.164 14.7445Z" fill="white"/>
<path fill-rule="evenodd" clip-rule="evenodd" d="M130.315 14.6796C130.083 14.4472 129.701 14.4405 129.461 14.6647L124.618 19.1948C124.378 19.419 124.372 19.7891 124.604 20.0216L125.258 20.6784C125.49 20.9108 125.872 20.9175 126.112 20.6933L130.955 16.1632C131.195 15.939 131.201 15.5689 130.969 15.3365L130.315 14.6796Z" fill="white"/>
<path fill-rule="evenodd" clip-rule="evenodd" d="M130.297 15.6946C130.057 15.9188 129.675 15.9122 129.443 15.6797L124.761 10.9834C124.529 10.751 124.536 10.3809 124.775 10.1567L125.453 9.52308C125.693 9.29889 126.075 9.30556 126.306 9.53798L130.988 14.2343C131.22 14.4667 131.214 14.8369 130.974 15.0611L130.297 15.6946Z" fill="white"/>
</svg>
