<svg width="250" height="250" viewBox="0 0 250 250" fill="none" xmlns="http://www.w3.org/2000/svg">
<path d="M250 125C250 194.036 194.036 250 125 250C55.9644 250 0 194.036 0 125C0 55.9644 55.9644 0 125 0C194.036 0 250 55.9644 250 125ZM31.25 125C31.25 176.777 73.2233 218.75 125 218.75C176.777 218.75 218.75 176.777 218.75 125C218.75 73.2233 176.777 31.25 125 31.25C73.2233 31.25 31.25 73.2233 31.25 125Z" fill="#505C9C" fill-opacity="0.4"/>
<path d="M250 125C250 194.036 194.036 250 125 250C55.9644 250 0 194.036 0 125C0 55.9644 55.9644 0 125 0C194.036 0 250 55.9644 250 125ZM31.25 125C31.25 176.777 73.2233 218.75 125 218.75C176.777 218.75 218.75 176.777 218.75 125C218.75 73.2233 176.777 31.25 125 31.25C73.2233 31.25 31.25 73.2233 31.25 125Z" fill="#5D6CB8"/>
<path fill-rule="evenodd" clip-rule="evenodd" d="M131.164 14.7444C131.17 14.3877 130.886 14.0935 130.53 14.0873L119.77 13.8995C119.413 13.8933 119.119 14.1774 119.113 14.534L119.096 15.5051C119.089 15.8618 119.373 16.156 119.73 16.1622L130.49 16.35C130.847 16.3562 131.141 16.0722 131.147 15.7155L131.164 14.7444Z" fill="white"/>
<path fill-rule="evenodd" clip-rule="evenodd" d="M130.315 14.6797C130.083 14.4473 129.701 14.4406 129.461 14.6648L124.618 19.1948C124.378 19.419 124.372 19.7892 124.604 20.0216L125.258 20.6785C125.49 20.9109 125.872 20.9175 126.112 20.6934L130.955 16.1633C131.195 15.9391 131.201 15.5689 130.969 15.3365L130.315 14.6797Z" fill="white"/>
<path fill-rule="evenodd" clip-rule="evenodd" d="M130.297 15.6941C130.057 15.9183 129.675 15.9116 129.443 15.6792L124.761 10.9829C124.529 10.7505 124.536 10.3803 124.775 10.1561L125.453 9.52253C125.693 9.29834 126.075 9.30501 126.306 9.53743L130.988 14.2337C131.22 14.4662 131.214 14.8363 130.974 15.0605L130.297 15.6941Z" fill="white"/>
<path d="M125 49.8591C125 47.1755 127.178 44.9846 129.856 45.1475C138.701 45.6854 147.407 47.6899 155.615 51.0896C165.321 55.11 174.14 61.0028 181.569 68.4315C188.997 75.8602 194.89 84.6793 198.91 94.3853C202.31 102.593 204.315 111.299 204.852 120.144C205.015 122.823 202.824 125 200.141 125C197.457 125 195.299 122.822 195.114 120.145C194.59 112.577 192.843 105.133 189.932 98.1043C186.4 89.5774 181.223 81.8296 174.697 75.3033C168.17 68.777 160.423 63.6001 151.896 60.0681C144.867 57.1569 137.423 55.4102 129.855 54.8862C127.178 54.7008 125 52.5427 125 49.8591Z" fill="white"/>
</svg>
