<svg width="250" height="250" viewBox="0 0 250 250" fill="none" xmlns="http://www.w3.org/2000/svg">
<path d="M250 125C250 194.036 194.036 250 125 250C55.9644 250 0 194.036 0 125C0 55.9644 55.9644 0 125 0C194.036 0 250 55.9644 250 125ZM31.25 125C31.25 176.777 73.2233 218.75 125 218.75C176.777 218.75 218.75 176.777 218.75 125C218.75 73.2233 176.777 31.25 125 31.25C73.2233 31.25 31.25 73.2233 31.25 125Z" fill="#505C9C" fill-opacity="0.4"/>
<path d="M250 125C250 194.036 194.036 250 125 250C55.9644 250 0 194.036 0 125C0 55.9644 55.9644 0 125 0C194.036 0 250 55.9644 250 125ZM31.25 125C31.25 176.777 73.2233 218.75 125 218.75C176.777 218.75 218.75 176.777 218.75 125C218.75 73.2233 176.777 31.25 125 31.25C73.2233 31.25 31.25 73.2233 31.25 125Z" fill="#5D6CB8"/>
<path fill-rule="evenodd" clip-rule="evenodd" d="M131.164 14.7445C131.17 14.3878 130.886 14.0936 130.53 14.0874L119.77 13.8995C119.413 13.8933 119.119 14.1774 119.113 14.5341L119.096 15.5052C119.089 15.8618 119.373 16.156 119.73 16.1623L130.49 16.3501C130.847 16.3563 131.141 16.0722 131.147 15.7155L131.164 14.7445Z" fill="white"/>
<path fill-rule="evenodd" clip-rule="evenodd" d="M130.315 14.6796C130.083 14.4472 129.701 14.4405 129.461 14.6647L124.618 19.1948C124.378 19.419 124.372 19.7891 124.604 20.0216L125.258 20.6784C125.49 20.9108 125.872 20.9175 126.112 20.6933L130.955 16.1632C131.195 15.939 131.201 15.5689 130.969 15.3365L130.315 14.6796Z" fill="white"/>
<path fill-rule="evenodd" clip-rule="evenodd" d="M130.297 15.6946C130.057 15.9188 129.675 15.9122 129.443 15.6797L124.761 10.9834C124.529 10.751 124.536 10.3809 124.775 10.1567L125.453 9.52308C125.693 9.29889 126.075 9.30556 126.306 9.53798L130.988 14.2343C131.22 14.4667 131.214 14.8369 130.974 15.0611L130.297 15.6946Z" fill="white"/>
<path d="M125 49.8591C125 47.1755 127.178 44.9846 129.857 45.1474C149.088 46.3164 167.315 54.3967 181.123 67.9889C196.088 82.7209 204.66 102.746 204.99 123.743C205.32 144.741 197.381 165.025 182.886 180.22C168.391 195.415 148.502 204.301 127.513 204.961C106.524 205.62 86.1164 198 70.6959 183.746C55.2754 169.491 46.078 149.745 45.0888 128.768C44.0996 107.792 51.3979 87.2679 65.4085 71.6253C78.3352 57.193 96.0194 47.9841 115.139 45.61C117.802 45.2793 120.113 47.3291 120.282 50.0074C120.45 52.6857 118.412 54.9762 115.751 55.3293C99.1793 57.5285 83.8719 65.5775 72.6476 78.1092C60.3389 91.8515 53.9272 109.882 54.7963 128.311C55.6653 146.739 63.7454 164.086 77.2927 176.609C90.8399 189.132 108.768 195.827 127.208 195.247C145.647 194.668 163.12 186.861 175.854 173.512C188.588 160.163 195.563 142.342 195.273 123.896C194.983 105.45 187.452 87.8568 174.305 74.9145C162.316 63.1123 146.533 56.0404 129.856 54.886C127.178 54.7007 125 52.5427 125 49.8591Z" fill="white"/>
</svg>
