<svg width="250" height="250" viewBox="0 0 250 250" fill="none" xmlns="http://www.w3.org/2000/svg">
<path d="M250 125C250 194.036 194.036 250 125 250C55.9644 250 0 194.036 0 125C0 55.9644 55.9644 0 125 0C194.036 0 250 55.9644 250 125ZM31.25 125C31.25 176.777 73.2233 218.75 125 218.75C176.777 218.75 218.75 176.777 218.75 125C218.75 73.2233 176.777 31.25 125 31.25C73.2233 31.25 31.25 73.2233 31.25 125Z" fill="#505C9C" fill-opacity="0.4"/>
<path d="M111.671 16.4403C110.619 7.87513 116.724 -0.0240682 125.354 0.000317568C147.673 0.063388 169.671 6.1047 189.005 17.63C212.834 31.8346 231.26 53.562 241.382 79.3904C251.504 105.219 252.747 133.68 244.914 160.293C238.559 181.885 226.523 201.265 210.189 216.476C203.874 222.357 194.028 220.709 188.98 213.71C183.932 206.711 185.63 197.025 191.694 190.886C202.522 179.925 210.54 166.403 214.936 151.47C220.81 131.51 219.878 110.164 212.286 90.7928C204.695 71.4215 190.875 55.1259 173.004 44.4725C159.633 36.5016 144.562 32.0281 129.17 31.3427C120.549 30.9588 112.722 25.0054 111.671 16.4403Z" fill="#5D6CB8"/>
<path fill-rule="evenodd" clip-rule="evenodd" d="M131.164 14.744C131.17 14.3873 130.886 14.0931 130.53 14.0869L119.77 13.8991C119.413 13.8928 119.119 14.1769 119.113 14.5336L119.096 15.5047C119.089 15.8614 119.373 16.1556 119.73 16.1618L130.49 16.3496C130.847 16.3558 131.141 16.0717 131.147 15.715L131.164 14.744Z" fill="white"/>
<path fill-rule="evenodd" clip-rule="evenodd" d="M130.315 14.6796C130.083 14.4472 129.701 14.4405 129.461 14.6647L124.618 19.1948C124.378 19.419 124.372 19.7891 124.604 20.0216L125.258 20.6784C125.49 20.9108 125.872 20.9175 126.112 20.6933L130.955 16.1632C131.195 15.939 131.201 15.5689 130.969 15.3365L130.315 14.6796Z" fill="white"/>
<path fill-rule="evenodd" clip-rule="evenodd" d="M130.297 15.6937C130.057 15.9179 129.675 15.9112 129.443 15.6788L124.761 10.9825C124.529 10.75 124.536 10.3799 124.775 10.1557L125.453 9.5221C125.693 9.29791 126.075 9.30458 126.306 9.537L130.988 14.2333C131.22 14.4657 131.214 14.8359 130.974 15.0601L130.297 15.6937Z" fill="white"/>
</svg>
