<svg width="250" height="250" viewBox="0 0 250 250" fill="none" xmlns="http://www.w3.org/2000/svg">
<path d="M250 125C250 194.036 194.036 250 125 250C55.9644 250 0 194.036 0 125C0 55.9644 55.9644 0 125 0C194.036 0 250 55.9644 250 125ZM31.25 125C31.25 176.777 73.2233 218.75 125 218.75C176.777 218.75 218.75 176.777 218.75 125C218.75 73.2233 176.777 31.25 125 31.25C73.2233 31.25 31.25 73.2233 31.25 125Z" fill="#505C9C" fill-opacity="0.4"/>
<path d="M111.671 16.4403C110.619 7.87513 116.724 -0.0239976 125.354 0.000420038C144.047 0.0533133 162.56 4.29946 179.502 12.5077C201.149 22.9957 219.311 39.5068 231.807 60.0601C244.304 80.6134 250.605 104.336 249.954 128.381C249.304 152.427 241.729 175.773 228.139 195.621C214.549 215.468 195.522 230.973 173.339 240.275C151.156 249.577 126.761 252.281 103.079 248.063C79.3978 243.845 57.4364 232.883 39.83 216.494C26.0508 203.667 15.397 187.941 8.5878 170.533C5.44443 162.496 10.6011 153.947 18.9669 151.831C27.3327 149.714 35.7137 154.858 39.1892 162.757C44.3033 174.38 51.7486 184.894 61.1225 193.62C74.3273 205.912 90.7983 214.133 108.559 217.297C126.32 220.461 144.617 218.433 161.254 211.456C177.891 204.48 192.162 192.851 202.354 177.966C212.547 163.08 218.228 145.57 218.716 127.536C219.204 109.502 214.478 91.7101 205.106 76.2951C195.733 60.8801 182.112 48.4968 165.877 40.6308C154.351 35.0468 141.856 31.9077 129.17 31.3427C120.549 30.9588 112.722 25.0054 111.671 16.4403Z" fill="#5D6CB8"/>
<path fill-rule="evenodd" clip-rule="evenodd" d="M131.164 14.7445C131.17 14.3878 130.886 14.0936 130.53 14.0874L119.77 13.8995C119.413 13.8933 119.119 14.1774 119.113 14.5341L119.096 15.5052C119.089 15.8618 119.373 16.156 119.73 16.1623L130.49 16.3501C130.847 16.3563 131.141 16.0722 131.147 15.7155L131.164 14.7445Z" fill="white"/>
<path fill-rule="evenodd" clip-rule="evenodd" d="M130.315 14.6796C130.083 14.4472 129.701 14.4405 129.461 14.6647L124.618 19.1948C124.378 19.419 124.372 19.7891 124.604 20.0216L125.258 20.6784C125.49 20.9108 125.872 20.9175 126.112 20.6933L130.955 16.1632C131.195 15.939 131.201 15.5689 130.969 15.3365L130.315 14.6796Z" fill="white"/>
<path fill-rule="evenodd" clip-rule="evenodd" d="M130.297 15.6946C130.057 15.9188 129.675 15.9122 129.443 15.6797L124.761 10.9834C124.529 10.751 124.536 10.3809 124.775 10.1567L125.453 9.52308C125.693 9.29889 126.075 9.30556 126.306 9.53798L130.988 14.2343C131.22 14.4667 131.214 14.8369 130.974 15.0611L130.297 15.6946Z" fill="white"/>
</svg>
