<svg width="250" height="250" viewBox="0 0 250 250" fill="none" xmlns="http://www.w3.org/2000/svg">
<path d="M250 125C250 194.036 194.036 250 125 250C55.9644 250 0 194.036 0 125C0 55.9644 55.9644 0 125 0C194.036 0 250 55.9644 250 125ZM31.25 125C31.25 176.777 73.2233 218.75 125 218.75C176.777 218.75 218.75 176.777 218.75 125C218.75 73.2233 176.777 31.25 125 31.25C73.2233 31.25 31.25 73.2233 31.25 125Z" fill="#505C9C" fill-opacity="0.4"/>
<path d="M250 125C250 194.036 194.036 250 125 250C55.9644 250 0 194.036 0 125C0 55.9644 55.9644 0 125 0C194.036 0 250 55.9644 250 125ZM31.25 125C31.25 176.777 73.2233 218.75 125 218.75C176.777 218.75 218.75 176.777 218.75 125C218.75 73.2233 176.777 31.25 125 31.25C73.2233 31.25 31.25 73.2233 31.25 125Z" fill="#5D6CB8"/>
<path fill-rule="evenodd" clip-rule="evenodd" d="M131.164 14.744C131.17 14.3873 130.886 14.0931 130.53 14.0869L119.77 13.8991C119.413 13.8928 119.119 14.1769 119.113 14.5336L119.096 15.5047C119.089 15.8614 119.373 16.1556 119.73 16.1618L130.49 16.3496C130.847 16.3558 131.141 16.0717 131.147 15.715L131.164 14.744Z" fill="white"/>
<path fill-rule="evenodd" clip-rule="evenodd" d="M130.315 14.6796C130.083 14.4472 129.701 14.4405 129.461 14.6647L124.618 19.1948C124.378 19.419 124.372 19.7891 124.604 20.0216L125.258 20.6784C125.49 20.9108 125.872 20.9175 126.112 20.6933L130.955 16.1632C131.195 15.939 131.201 15.5689 130.969 15.3365L130.315 14.6796Z" fill="white"/>
<path fill-rule="evenodd" clip-rule="evenodd" d="M130.297 15.6937C130.057 15.9179 129.675 15.9112 129.443 15.6788L124.761 10.9825C124.529 10.75 124.536 10.3799 124.775 10.1557L125.453 9.5221C125.693 9.29791 126.075 9.30458 126.306 9.537L130.988 14.2333C131.22 14.4657 131.214 14.8359 130.974 15.0601L130.297 15.6937Z" fill="white"/>
<path d="M125 49.8591C125 47.1755 127.178 44.9846 129.856 45.1475C146.521 46.1607 162.498 52.3683 175.508 62.9603C189.778 74.5776 199.606 90.7588 203.338 108.777C207.069 126.795 204.475 145.549 195.993 161.878C187.511 178.207 173.659 191.113 156.772 198.42C139.885 205.728 120.994 206.991 103.285 201.996C85.575 197.002 70.1284 186.055 59.548 171C48.9676 155.946 43.9002 137.704 45.1998 119.35C46.3847 102.615 52.7963 86.719 63.4656 73.8773C65.1805 71.8132 68.2684 71.7254 70.2247 73.5625C72.181 75.3996 72.2629 78.4648 70.5653 80.5432C61.4171 91.7443 55.9207 105.532 54.8938 120.036C53.752 136.161 58.2039 152.187 67.499 165.412C76.7941 178.638 90.3643 188.255 105.923 192.643C121.481 197.031 138.076 195.921 152.912 189.501C167.748 183.081 179.917 171.743 187.369 157.398C194.821 143.053 197.1 126.577 193.822 110.748C190.543 94.9183 181.909 80.7028 169.373 70.4968C158.096 61.3164 144.283 55.885 129.856 54.8861C127.178 54.7007 125 52.5427 125 49.8591Z" fill="white"/>
</svg>
