<svg width="250" height="250" viewBox="0 0 250 250" fill="none" xmlns="http://www.w3.org/2000/svg">
<path d="M250 125C250 194.036 194.036 250 125 250C55.9644 250 0 194.036 0 125C0 55.9644 55.9644 0 125 0C194.036 0 250 55.9644 250 125ZM31.25 125C31.25 176.777 73.2233 218.75 125 218.75C176.777 218.75 218.75 176.777 218.75 125C218.75 73.2233 176.777 31.25 125 31.25C73.2233 31.25 31.25 73.2233 31.25 125Z" fill="#505C9C" fill-opacity="0.4"/>
<path d="M111.671 16.4403C110.619 7.87513 116.725 -0.0241406 125.354 0.000232684C149.657 0.0688743 173.538 7.22623 193.992 20.7643C218.811 37.1915 236.954 61.9354 245.158 90.5454C253.361 119.155 251.088 149.754 238.745 176.837C226.403 203.92 204.802 225.71 177.827 238.288C150.853 250.867 120.276 253.408 91.5952 245.454C62.9148 237.5 38.0135 219.574 21.3703 194.899C4.7271 170.225 -2.56574 140.421 0.80352 110.85C3.5802 86.479 13.4482 63.584 29.017 44.9229C34.5452 38.2968 44.5212 38.697 50.4064 45.0082C56.2917 51.3194 55.8209 61.1422 50.5736 67.9929C40.3047 81.3997 33.7862 97.4164 31.8526 114.387C29.3257 136.566 34.7953 158.918 47.2777 177.424C59.7601 195.93 78.4361 209.375 99.9464 215.34C121.457 221.306 144.39 219.4 164.62 209.966C184.851 200.533 201.052 184.19 210.309 163.878C219.566 143.565 221.271 120.616 215.118 99.159C208.965 77.7016 195.358 59.1437 176.744 46.8232C162.501 37.3958 146.041 32.0939 129.17 31.3426C120.55 30.9587 112.722 25.0054 111.671 16.4403Z" fill="#5D6CB8"/>
<path fill-rule="evenodd" clip-rule="evenodd" d="M131.164 14.7454C131.17 14.3888 130.886 14.0946 130.53 14.0883L119.77 13.9005C119.413 13.8943 119.119 14.1784 119.113 14.5351L119.096 15.5062C119.089 15.8628 119.373 16.157 119.73 16.1632L130.49 16.3511C130.847 16.3573 131.141 16.0732 131.147 15.7165L131.164 14.7454Z" fill="white"/>
<path fill-rule="evenodd" clip-rule="evenodd" d="M130.315 14.6806C130.083 14.4482 129.701 14.4415 129.461 14.6657L124.618 19.1958C124.378 19.4199 124.372 19.7901 124.604 20.0225L125.258 20.6794C125.49 20.9118 125.872 20.9185 126.112 20.6943L130.955 16.1642C131.195 15.94 131.201 15.5699 130.969 15.3374L130.315 14.6806Z" fill="white"/>
<path fill-rule="evenodd" clip-rule="evenodd" d="M130.297 15.6937C130.057 15.9179 129.675 15.9112 129.443 15.6788L124.761 10.9825C124.529 10.75 124.536 10.3799 124.775 10.1557L125.453 9.5221C125.693 9.29791 126.075 9.30458 126.306 9.537L130.988 14.2333C131.22 14.4657 131.214 14.8359 130.974 15.0601L130.297 15.6937Z" fill="white"/>
</svg>
