<svg width="250" height="250" viewBox="0 0 250 250" fill="none" xmlns="http://www.w3.org/2000/svg">
<path d="M250 125C250 194.036 194.036 250 125 250C55.9644 250 0 194.036 0 125C0 55.9644 55.9644 0 125 0C194.036 0 250 55.9644 250 125ZM31.25 125C31.25 176.777 73.2233 218.75 125 218.75C176.777 218.75 218.75 176.777 218.75 125C218.75 73.2233 176.777 31.25 125 31.25C73.2233 31.25 31.25 73.2233 31.25 125Z" fill="#505C9C" fill-opacity="0.4"/>
<path d="M111.671 16.4403C110.619 7.87513 116.724 -0.0239288 125.354 0.000489675C137.811 0.0357393 150.222 1.93307 162.172 5.65491C179.107 10.9297 194.726 19.7485 207.991 31.5253C221.255 43.302 231.861 57.7669 239.104 73.9587C246.347 90.1506 250.061 107.698 249.999 125.436C249.937 143.174 246.101 160.696 238.745 176.837C231.389 192.978 220.682 207.368 207.336 219.052C193.99 230.736 178.31 239.445 161.338 244.602C149.363 248.24 136.938 250.051 124.481 249.999C115.851 249.963 109.802 242.022 110.913 233.464C112.024 224.906 119.893 219.008 128.516 218.684C136.545 218.383 144.524 217.05 152.253 214.701C164.982 210.834 176.742 204.302 186.752 195.539C196.762 186.776 204.792 175.983 210.309 163.878C215.826 151.772 218.703 138.631 218.749 125.327C218.796 112.024 216.01 98.8629 210.578 86.719C205.146 74.5752 197.191 63.7265 187.243 54.8939C177.295 46.0614 165.581 39.4473 152.879 35.4912C145.166 33.089 137.197 31.7002 129.17 31.3428C120.549 30.9589 112.722 25.0054 111.671 16.4403Z" fill="#5D6CB8"/>
<path fill-rule="evenodd" clip-rule="evenodd" d="M131.164 14.7445C131.17 14.3878 130.886 14.0936 130.53 14.0874L119.77 13.8995C119.413 13.8933 119.119 14.1774 119.113 14.5341L119.096 15.5052C119.089 15.8618 119.373 16.156 119.73 16.1623L130.49 16.3501C130.847 16.3563 131.141 16.0722 131.147 15.7155L131.164 14.7445Z" fill="white"/>
<path fill-rule="evenodd" clip-rule="evenodd" d="M130.315 14.6796C130.083 14.4472 129.701 14.4405 129.461 14.6647L124.618 19.1948C124.378 19.419 124.372 19.7891 124.604 20.0216L125.258 20.6784C125.49 20.9108 125.872 20.9175 126.112 20.6933L130.955 16.1632C131.195 15.939 131.201 15.5689 130.969 15.3365L130.315 14.6796Z" fill="white"/>
<path fill-rule="evenodd" clip-rule="evenodd" d="M130.297 15.6946C130.057 15.9188 129.675 15.9122 129.443 15.6797L124.761 10.9834C124.529 10.751 124.536 10.3809 124.775 10.1567L125.453 9.52308C125.693 9.29889 126.075 9.30556 126.306 9.53798L130.988 14.2343C131.22 14.4667 131.214 14.8369 130.974 15.0611L130.297 15.6946Z" fill="white"/>
</svg>
