<svg width="250" height="250" viewBox="0 0 250 250" fill="none" xmlns="http://www.w3.org/2000/svg">
<path d="M250 125C250 194.036 194.036 250 125 250C55.9644 250 0 194.036 0 125C0 55.9644 55.9644 0 125 0C194.036 0 250 55.9644 250 125ZM31.25 125C31.25 176.777 73.2233 218.75 125 218.75C176.777 218.75 218.75 176.777 218.75 125C218.75 73.2233 176.777 31.25 125 31.25C73.2233 31.25 31.25 73.2233 31.25 125Z" fill="#505C9C" fill-opacity="0.4"/>
<path d="M111.671 16.4403C110.619 7.87513 116.724 -0.023952 125.354 0.000472066C140.433 0.0431516 155.425 2.81442 169.592 8.22445C188.641 15.4984 205.621 27.3219 219.052 42.6638C232.483 58.0058 241.957 76.4004 246.647 96.2438C251.338 116.087 251.103 136.777 245.964 156.509C240.824 176.241 230.935 194.416 217.16 209.449C203.384 224.482 186.14 235.917 166.931 242.757C147.723 249.597 127.132 251.634 106.955 248.691C91.949 246.502 77.5103 241.607 64.3264 234.287C56.7817 230.099 55.3059 220.225 60.4025 213.261C65.4991 206.298 75.2359 204.919 82.9485 208.79C91.8832 213.274 101.508 216.315 111.467 217.768C126.599 219.976 142.042 218.448 156.449 213.318C170.855 208.188 183.788 199.612 194.12 188.337C204.451 177.062 211.868 163.43 215.723 148.632C219.578 133.833 219.754 118.315 216.236 103.433C212.717 88.5503 205.612 74.7543 195.539 63.2479C185.466 51.7414 172.731 42.8738 158.444 37.4183C149.043 33.8282 139.157 31.7875 129.17 31.3428C120.549 30.9589 112.722 25.0054 111.671 16.4403Z" fill="#5D6CB8"/>
<path fill-rule="evenodd" clip-rule="evenodd" d="M131.164 14.7445C131.17 14.3878 130.886 14.0936 130.53 14.0874L119.77 13.8995C119.413 13.8933 119.119 14.1774 119.113 14.5341L119.096 15.5052C119.089 15.8618 119.373 16.156 119.73 16.1623L130.49 16.3501C130.847 16.3563 131.141 16.0722 131.147 15.7155L131.164 14.7445Z" fill="white"/>
<path fill-rule="evenodd" clip-rule="evenodd" d="M130.315 14.6796C130.083 14.4472 129.701 14.4405 129.461 14.6647L124.618 19.1948C124.378 19.419 124.372 19.7891 124.604 20.0216L125.258 20.6784C125.49 20.9108 125.872 20.9175 126.112 20.6933L130.955 16.1632C131.195 15.939 131.201 15.5689 130.969 15.3365L130.315 14.6796Z" fill="white"/>
<path fill-rule="evenodd" clip-rule="evenodd" d="M130.297 15.6946C130.057 15.9188 129.675 15.9122 129.443 15.6797L124.761 10.9834C124.529 10.751 124.536 10.3809 124.775 10.1567L125.453 9.52308C125.693 9.29889 126.075 9.30556 126.306 9.53798L130.988 14.2343C131.22 14.4667 131.214 14.8369 130.974 15.0611L130.297 15.6946Z" fill="white"/>
</svg>
