<svg width="250" height="250" viewBox="0 0 250 250" fill="none" xmlns="http://www.w3.org/2000/svg">
<path d="M250 125C250 194.036 194.036 250 125 250C55.9644 250 0 194.036 0 125C0 55.9644 55.9644 0 125 0C194.036 0 250 55.9644 250 125ZM31.25 125C31.25 176.777 73.2233 218.75 125 218.75C176.777 218.75 218.75 176.777 218.75 125C218.75 73.2233 176.777 31.25 125 31.25C73.2233 31.25 31.25 73.2233 31.25 125Z" fill="#505C9C" fill-opacity="0.4"/>
<path d="M111.671 16.4403C110.619 7.87513 116.724 -0.0239762 125.354 0.000453552C142.074 0.0477893 158.671 3.45004 174.142 10.0652C194.42 18.7351 212.042 32.6153 225.222 50.2969C238.401 67.9785 246.668 88.8321 249.184 110.741C251.7 132.65 248.374 154.835 239.545 175.044C230.716 195.252 216.698 212.765 198.914 225.806C181.129 238.846 160.211 246.949 138.283 249.292C116.355 251.636 94.197 248.136 74.0583 239.149C58.6926 232.291 44.9198 222.426 33.5244 210.189C27.6433 203.874 29.2909 194.028 36.2899 188.98C43.289 183.932 52.9752 185.63 59.1143 191.694C67.0992 199.582 76.4668 206.003 86.7937 210.612C101.898 217.352 118.516 219.977 134.962 218.219C151.408 216.462 167.097 210.384 180.435 200.604C193.774 190.824 204.287 177.689 210.909 162.533C217.531 147.376 220.025 130.738 218.138 114.306C216.251 97.8741 210.051 82.2339 200.166 68.9726C190.282 55.7114 177.065 45.3013 161.857 38.7989C151.459 34.353 140.383 31.8421 129.17 31.3428C120.549 30.9589 112.722 25.0054 111.671 16.4403Z" fill="#5D6CB8"/>
<path fill-rule="evenodd" clip-rule="evenodd" d="M131.164 14.7445C131.17 14.3878 130.886 14.0936 130.53 14.0874L119.77 13.8995C119.413 13.8933 119.119 14.1774 119.113 14.5341L119.096 15.5052C119.089 15.8618 119.373 16.156 119.73 16.1623L130.49 16.3501C130.847 16.3563 131.141 16.0722 131.147 15.7155L131.164 14.7445Z" fill="white"/>
<path fill-rule="evenodd" clip-rule="evenodd" d="M130.315 14.6796C130.083 14.4472 129.701 14.4405 129.461 14.6647L124.618 19.1948C124.378 19.419 124.372 19.7891 124.604 20.0216L125.258 20.6784C125.49 20.9108 125.872 20.9175 126.112 20.6933L130.955 16.1632C131.195 15.939 131.201 15.5689 130.969 15.3365L130.315 14.6796Z" fill="white"/>
<path fill-rule="evenodd" clip-rule="evenodd" d="M130.297 15.6946C130.057 15.9188 129.675 15.9122 129.443 15.6797L124.761 10.9834C124.529 10.751 124.536 10.3809 124.775 10.1567L125.453 9.52308C125.693 9.29889 126.075 9.30556 126.306 9.53798L130.988 14.2343C131.22 14.4667 131.214 14.8369 130.974 15.0611L130.297 15.6946Z" fill="white"/>
</svg>
