<svg width="250" height="250" viewBox="0 0 250 250" fill="none" xmlns="http://www.w3.org/2000/svg">
<path d="M250 125C250 194.036 194.036 250 125 250C55.9644 250 0 194.036 0 125C0 55.9644 55.9644 0 125 0C194.036 0 250 55.9644 250 125ZM31.25 125C31.25 176.777 73.2233 218.75 125 218.75C176.777 218.75 218.75 176.777 218.75 125C218.75 73.2233 176.777 31.25 125 31.25C73.2233 31.25 31.25 73.2233 31.25 125Z" fill="#505C9C" fill-opacity="0.4"/>
<path d="M111.671 16.4403C110.619 7.87513 116.724 -0.0240628 125.354 0.000341408C147.012 0.061592 168.381 5.75246 187.311 16.6379C210.777 30.1314 229.228 50.8774 239.892 75.7573C250.555 100.637 252.855 128.306 246.444 154.605C240.033 180.903 225.258 204.41 204.341 221.592C183.424 238.773 157.495 248.7 130.452 249.881C103.409 251.062 76.7139 243.432 54.3791 228.139C32.0443 212.846 15.2773 190.716 6.59872 165.077C-0.402497 144.392 -1.83452 122.326 2.31222 101.068C3.96441 92.598 12.8991 88.1431 21.0968 90.8384C29.2945 93.5337 33.6142 102.368 32.3164 110.899C30.0733 125.643 31.3694 140.789 36.199 155.057C42.708 174.287 55.2833 190.885 72.0343 202.354C88.7854 213.824 108.807 219.546 129.089 218.661C149.372 217.775 168.818 210.33 184.506 197.444C200.194 184.558 211.275 166.928 216.083 147.204C220.891 127.48 219.167 106.728 211.169 88.068C203.171 69.4081 189.333 53.8485 171.733 43.7284C158.675 36.2194 144.069 32.0062 129.17 31.3427C120.549 30.9588 112.722 25.0054 111.671 16.4403Z" fill="#5D6CB8"/>
<path fill-rule="evenodd" clip-rule="evenodd" d="M131.164 14.7454C131.17 14.3888 130.886 14.0946 130.53 14.0883L119.77 13.9005C119.413 13.8943 119.119 14.1784 119.113 14.5351L119.096 15.5062C119.089 15.8628 119.373 16.157 119.73 16.1632L130.49 16.3511C130.847 16.3573 131.141 16.0732 131.147 15.7165L131.164 14.7454Z" fill="white"/>
<path fill-rule="evenodd" clip-rule="evenodd" d="M130.315 14.6806C130.083 14.4482 129.701 14.4415 129.461 14.6657L124.618 19.1958C124.378 19.4199 124.372 19.7901 124.604 20.0225L125.258 20.6794C125.49 20.9118 125.872 20.9185 126.112 20.6943L130.955 16.1642C131.195 15.94 131.201 15.5699 130.969 15.3374L130.315 14.6806Z" fill="white"/>
<path fill-rule="evenodd" clip-rule="evenodd" d="M130.297 15.6937C130.057 15.9179 129.675 15.9112 129.443 15.6788L124.761 10.9825C124.529 10.75 124.536 10.3799 124.775 10.1557L125.453 9.5221C125.693 9.29791 126.075 9.30458 126.306 9.537L130.988 14.2333C131.22 14.4657 131.214 14.8359 130.974 15.0601L130.297 15.6937Z" fill="white"/>
</svg>
