<svg width="250" height="250" viewBox="0 0 250 250" fill="none" xmlns="http://www.w3.org/2000/svg">
<path d="M250 125C250 194.036 194.036 250 125 250C55.9644 250 0 194.036 0 125C0 55.9644 55.9644 0 125 0C194.036 0 250 55.9644 250 125ZM31.25 125C31.25 176.777 73.2233 218.75 125 218.75C176.777 218.75 218.75 176.777 218.75 125C218.75 73.2233 176.777 31.25 125 31.25C73.2233 31.25 31.25 73.2233 31.25 125Z" fill="#505C9C" fill-opacity="0.4"/>
<path d="M250 125C250 194.036 194.036 250 125 250C55.9644 250 0 194.036 0 125C0 55.9644 55.9644 0 125 0C194.036 0 250 55.9644 250 125ZM31.25 125C31.25 176.777 73.2233 218.75 125 218.75C176.777 218.75 218.75 176.777 218.75 125C218.75 73.2233 176.777 31.25 125 31.25C73.2233 31.25 31.25 73.2233 31.25 125Z" fill="#5D6CB8"/>
<path fill-rule="evenodd" clip-rule="evenodd" d="M131.164 14.7445C131.17 14.3878 130.886 14.0936 130.53 14.0874L119.77 13.8995C119.413 13.8933 119.119 14.1774 119.113 14.5341L119.096 15.5052C119.089 15.8618 119.373 16.156 119.73 16.1623L130.49 16.3501C130.847 16.3563 131.141 16.0722 131.147 15.7155L131.164 14.7445Z" fill="white"/>
<path fill-rule="evenodd" clip-rule="evenodd" d="M130.315 14.6796C130.083 14.4472 129.701 14.4405 129.461 14.6647L124.618 19.1948C124.378 19.419 124.372 19.7891 124.604 20.0216L125.258 20.6784C125.49 20.9108 125.872 20.9175 126.112 20.6933L130.955 16.1632C131.195 15.939 131.201 15.5689 130.969 15.3365L130.315 14.6796Z" fill="white"/>
<path fill-rule="evenodd" clip-rule="evenodd" d="M130.297 15.6942C130.057 15.9184 129.675 15.9117 129.443 15.6793L124.761 10.983C124.529 10.7505 124.536 10.3804 124.775 10.1562L125.453 9.52259C125.693 9.2984 126.075 9.30507 126.306 9.53749L130.988 14.2338C131.22 14.4662 131.214 14.8364 130.974 15.0606L130.297 15.6942Z" fill="white"/>
<path d="M125 49.8591C125 47.1755 127.178 44.9846 129.856 45.1475C140.172 45.7749 150.285 48.3965 159.63 52.8836C170.437 58.0729 179.939 65.6247 187.434 74.9806C194.93 84.3365 200.227 95.2574 202.934 106.936C205.641 118.614 205.688 130.752 203.073 142.451C200.458 154.151 195.247 165.113 187.825 174.527C180.404 183.942 170.961 191.568 160.195 196.842C149.429 202.116 137.616 204.903 125.628 204.998C115.263 205.079 104.996 203.145 95.3946 199.32C92.9015 198.327 91.864 195.418 93.0066 192.99C94.1492 190.561 97.0389 189.536 99.5402 190.508C107.817 193.725 116.643 195.35 125.552 195.28C136.084 195.197 146.462 192.748 155.92 188.115C165.378 183.482 173.673 176.782 180.193 168.511C186.714 160.24 191.292 150.61 193.589 140.331C195.887 130.053 195.845 119.39 193.467 109.13C191.089 98.8704 186.435 89.2762 179.85 81.0568C173.265 72.8375 164.917 66.2031 155.423 61.6442C147.392 57.7876 138.714 55.4996 129.855 54.8861C127.178 54.7008 125 52.5427 125 49.8591Z" fill="white"/>
</svg>
