<svg width="250" height="250" viewBox="0 0 250 250" fill="none" xmlns="http://www.w3.org/2000/svg">
<path d="M250 125C250 194.036 194.036 250 125 250C55.9644 250 0 194.036 0 125C0 55.9644 55.9644 0 125 0C194.036 0 250 55.9644 250 125ZM31.25 125C31.25 176.777 73.2233 218.75 125 218.75C176.777 218.75 218.75 176.777 218.75 125C218.75 73.2233 176.777 31.25 125 31.25C73.2233 31.25 31.25 73.2233 31.25 125Z" fill="#505C9C" fill-opacity="0.4"/>
<path d="M111.671 16.4403C110.619 7.87513 116.725 -0.0242162 125.354 5.12435e-05C152.642 0.0767913 179.32 9.09206 201.182 25.8973C227.196 45.8947 244.304 75.3189 248.814 107.819C253.324 140.32 244.873 173.291 225.287 199.616C205.701 225.941 176.549 243.509 144.123 248.529C111.697 253.548 78.5981 245.617 51.9688 226.447C25.3394 207.276 7.31552 178.404 1.78706 146.061C-3.7414 113.718 3.6689 80.4984 22.4187 53.5712C38.1754 30.9424 60.8785 14.2826 86.8664 5.95823C95.0846 3.32583 103.293 9.00925 104.88 17.4914C106.468 25.9736 100.807 34.0149 92.7055 36.9875C74.7606 43.5721 59.1287 55.538 48.064 71.4284C34.0017 91.6238 28.4439 116.539 32.5903 140.796C36.7366 165.053 50.2546 186.707 70.2266 201.085C90.1986 215.463 115.023 221.411 139.342 217.646C163.662 213.882 185.526 200.705 200.215 180.962C214.905 161.218 221.243 136.49 217.86 112.115C214.478 87.7392 201.647 65.671 182.136 50.673C166.785 38.872 148.266 32.1928 129.171 31.3424C120.55 30.9585 112.722 25.0054 111.671 16.4403Z" fill="#5D6CB8"/>
<path fill-rule="evenodd" clip-rule="evenodd" d="M131.164 14.7454C131.17 14.3888 130.886 14.0946 130.53 14.0883L119.77 13.9005C119.413 13.8943 119.119 14.1784 119.113 14.5351L119.096 15.5062C119.089 15.8628 119.373 16.157 119.73 16.1632L130.49 16.3511C130.847 16.3573 131.141 16.0732 131.147 15.7165L131.164 14.7454Z" fill="white"/>
<path fill-rule="evenodd" clip-rule="evenodd" d="M130.315 14.6806C130.083 14.4482 129.701 14.4415 129.461 14.6657L124.618 19.1958C124.378 19.4199 124.372 19.7901 124.604 20.0225L125.258 20.6794C125.49 20.9118 125.872 20.9185 126.112 20.6943L130.955 16.1642C131.195 15.94 131.201 15.5699 130.969 15.3374L130.315 14.6806Z" fill="white"/>
<path fill-rule="evenodd" clip-rule="evenodd" d="M130.297 15.6937C130.057 15.9179 129.675 15.9112 129.443 15.6788L124.761 10.9825C124.529 10.75 124.536 10.3799 124.775 10.1557L125.453 9.5221C125.693 9.29791 126.075 9.30458 126.306 9.537L130.988 14.2333C131.22 14.4657 131.214 14.8359 130.974 15.0601L130.297 15.6937Z" fill="white"/>
</svg>
