<svg width="250" height="250" viewBox="0 0 250 250" fill="none" xmlns="http://www.w3.org/2000/svg">
<path d="M250 125C250 194.036 194.036 250 125 250C55.9644 250 0 194.036 0 125C0 55.9644 55.9644 0 125 0C194.036 0 250 55.9644 250 125ZM31.25 125C31.25 176.777 73.2233 218.75 125 218.75C176.777 218.75 218.75 176.777 218.75 125C218.75 73.2233 176.777 31.25 125 31.25C73.2233 31.25 31.25 73.2233 31.25 125Z" fill="#505C9C" fill-opacity="0.4"/>
<path d="M111.671 16.4403C110.619 7.87513 116.725 -0.0241626 125.354 0.000198472C150.319 0.0706755 174.825 7.62174 195.621 21.8608C220.736 39.0577 238.714 64.8279 246.181 94.3366C253.648 123.845 250.091 155.065 236.177 182.137C222.264 209.21 198.95 230.276 170.61 241.382C142.269 252.488 110.851 252.872 82.2475 242.462C53.6444 232.051 29.8229 211.561 15.2521 184.836C0.681345 158.112 -3.63733 126.989 3.10634 97.3064C8.69011 72.7293 21.5404 50.5385 39.8101 33.5245C46.1252 27.6435 55.9724 29.2908 61.0203 36.2899C66.0681 43.2889 64.3699 52.9752 58.3053 59.1143C46.0897 71.48 37.476 87.0803 33.5798 104.23C28.522 126.492 31.761 149.834 42.6891 169.877C53.6172 189.921 71.4833 205.288 92.9356 213.096C114.388 220.904 137.952 220.616 159.207 212.286C180.462 203.957 197.948 188.157 208.383 167.853C218.818 147.548 221.486 124.134 215.886 102.002C210.285 79.8709 196.802 60.5433 177.966 47.6456C163.455 37.7098 146.535 32.1159 129.171 31.3426C120.55 30.9586 112.722 25.0054 111.671 16.4403Z" fill="#5D6CB8"/>
<path fill-rule="evenodd" clip-rule="evenodd" d="M131.164 14.7454C131.17 14.3888 130.886 14.0946 130.53 14.0883L119.77 13.9005C119.413 13.8943 119.119 14.1784 119.113 14.5351L119.096 15.5062C119.089 15.8628 119.373 16.157 119.73 16.1632L130.49 16.3511C130.847 16.3573 131.141 16.0732 131.147 15.7165L131.164 14.7454Z" fill="white"/>
<path fill-rule="evenodd" clip-rule="evenodd" d="M130.315 14.6806C130.083 14.4482 129.701 14.4415 129.461 14.6657L124.618 19.1958C124.378 19.4199 124.372 19.7901 124.604 20.0225L125.258 20.6794C125.49 20.9118 125.872 20.9185 126.112 20.6943L130.955 16.1642C131.195 15.94 131.201 15.5699 130.969 15.3374L130.315 14.6806Z" fill="white"/>
<path fill-rule="evenodd" clip-rule="evenodd" d="M130.297 15.6937C130.057 15.9179 129.675 15.9112 129.443 15.6788L124.761 10.9825C124.529 10.75 124.536 10.3799 124.775 10.1557L125.453 9.5221C125.693 9.29791 126.075 9.30458 126.306 9.537L130.988 14.2333C131.22 14.4657 131.214 14.8359 130.974 15.0601L130.297 15.6937Z" fill="white"/>
</svg>
