<svg width="250" height="250" viewBox="0 0 250 250" fill="none" xmlns="http://www.w3.org/2000/svg">
<path d="M250 125C250 194.036 194.036 250 125 250C55.9644 250 0 194.036 0 125C0 55.9644 55.9644 0 125 0C194.036 0 250 55.9644 250 125ZM31.25 125C31.25 176.777 73.2233 218.75 125 218.75C176.777 218.75 218.75 176.777 218.75 125C218.75 73.2233 176.777 31.25 125 31.25C73.2233 31.25 31.25 73.2233 31.25 125Z" fill="#505C9C" fill-opacity="0.4"/>
<path d="M111.671 16.4403C110.619 7.87513 116.724 -0.0241035 125.354 0.000278197C148.664 0.0661389 171.606 6.6533 191.517 19.1678C215.859 34.4672 234.183 57.6903 243.401 84.9234C252.619 112.157 252.167 141.735 242.122 168.674C232.077 195.613 213.052 218.265 188.254 232.814C163.456 247.363 134.401 252.919 105.985 248.545C77.5683 244.171 51.5284 230.136 32.253 208.803C12.9777 187.471 1.64529 160.146 0.165646 131.433C-1.04466 107.947 4.39776 84.7066 15.7123 64.3266C19.901 56.7819 29.7751 55.3059 36.7387 60.4025C43.7023 65.4991 45.0805 75.2361 41.2099 82.9487C33.9674 97.3801 30.5342 113.523 31.3742 129.825C32.484 151.359 40.9832 171.853 55.4398 187.852C69.8963 203.852 89.4262 214.379 110.738 217.659C132.051 220.939 153.842 216.772 172.441 205.861C191.039 194.949 205.308 177.96 212.842 157.755C220.376 137.551 220.714 115.367 213.801 94.9426C206.888 74.5177 193.145 57.1004 174.888 45.6258C161.068 36.9398 145.301 32.061 129.17 31.3426C120.549 30.9587 112.722 25.0054 111.671 16.4403Z" fill="#5D6CB8"/>
<path fill-rule="evenodd" clip-rule="evenodd" d="M131.164 14.7454C131.17 14.3888 130.886 14.0946 130.53 14.0883L119.77 13.9005C119.413 13.8943 119.119 14.1784 119.113 14.5351L119.096 15.5062C119.089 15.8628 119.373 16.157 119.73 16.1632L130.49 16.3511C130.847 16.3573 131.141 16.0732 131.147 15.7165L131.164 14.7454Z" fill="white"/>
<path fill-rule="evenodd" clip-rule="evenodd" d="M130.315 14.6806C130.083 14.4482 129.701 14.4415 129.461 14.6657L124.618 19.1958C124.378 19.4199 124.372 19.7901 124.604 20.0225L125.258 20.6794C125.49 20.9118 125.872 20.9185 126.112 20.6943L130.955 16.1642C131.195 15.94 131.201 15.5699 130.969 15.3374L130.315 14.6806Z" fill="white"/>
<path fill-rule="evenodd" clip-rule="evenodd" d="M130.297 15.6937C130.057 15.9179 129.675 15.9112 129.443 15.6788L124.761 10.9825C124.529 10.75 124.536 10.3799 124.775 10.1557L125.453 9.5221C125.693 9.29791 126.075 9.30458 126.306 9.537L130.988 14.2333C131.22 14.4657 131.214 14.8359 130.974 15.0601L130.297 15.6937Z" fill="white"/>
</svg>
