<svg width="250" height="250" viewBox="0 0 250 250" fill="none" xmlns="http://www.w3.org/2000/svg">
<path d="M250 125C250 194.036 194.036 250 125 250C55.9644 250 0 194.036 0 125C0 55.9644 55.9644 0 125 0C194.036 0 250 55.9644 250 125ZM31.25 125C31.25 176.777 73.2233 218.75 125 218.75C176.777 218.75 218.75 176.777 218.75 125C218.75 73.2233 176.777 31.25 125 31.25C73.2233 31.25 31.25 73.2233 31.25 125Z" fill="#505C9C" fill-opacity="0.4"/>
<path d="M111.671 16.4403C110.619 7.87513 116.724 -0.0240682 125.354 0.000317565C147.673 0.0633879 169.671 6.1047 189.005 17.63C208.339 29.1554 224.117 45.6333 234.788 65.236C238.913 72.8153 234.869 81.9429 226.834 85.0916C218.8 88.2403 209.84 84.1868 205.402 76.786C197.479 63.573 186.375 52.4435 173.004 44.4725C159.633 36.5016 144.562 32.0281 129.17 31.3427C120.549 30.9588 112.722 25.0054 111.671 16.4403Z" fill="#5D6CB8"/>
<path fill-rule="evenodd" clip-rule="evenodd" d="M131.164 14.7443C131.17 14.3877 130.886 14.0935 130.53 14.0872L119.77 13.8994C119.413 13.8932 119.119 14.1773 119.113 14.534L119.096 15.5051C119.089 15.8617 119.373 16.1559 119.73 16.1621L130.49 16.35C130.847 16.3562 131.141 16.0721 131.147 15.7154L131.164 14.7443Z" fill="white"/>
<path fill-rule="evenodd" clip-rule="evenodd" d="M130.315 14.6796C130.083 14.4472 129.701 14.4405 129.461 14.6647L124.618 19.1948C124.378 19.419 124.372 19.7891 124.604 20.0216L125.258 20.6784C125.49 20.9108 125.872 20.9175 126.112 20.6933L130.955 16.1632C131.195 15.939 131.201 15.5689 130.969 15.3365L130.315 14.6796Z" fill="white"/>
<path fill-rule="evenodd" clip-rule="evenodd" d="M130.297 15.6942C130.057 15.9184 129.675 15.9117 129.443 15.6793L124.761 10.983C124.529 10.7505 124.536 10.3804 124.775 10.1562L125.453 9.52259C125.693 9.2984 126.075 9.30507 126.306 9.53749L130.988 14.2338C131.22 14.4662 131.214 14.8364 130.974 15.0606L130.297 15.6942Z" fill="white"/>
</svg>
