<svg width="250" height="250" viewBox="0 0 250 250" fill="none" xmlns="http://www.w3.org/2000/svg">
<path d="M250 125C250 194.036 194.036 250 125 250C55.9644 250 0 194.036 0 125C0 55.9644 55.9644 0 125 0C194.036 0 250 55.9644 250 125ZM31.25 125C31.25 176.777 73.2233 218.75 125 218.75C176.777 218.75 218.75 176.777 218.75 125C218.75 73.2233 176.777 31.25 125 31.25C73.2233 31.25 31.25 73.2233 31.25 125Z" fill="#505C9C" fill-opacity="0.4"/>
<path d="M111.671 16.4403C110.619 7.87513 116.724 -0.0240587 125.354 0.000352377C146.682 0.0606868 167.735 5.58036 186.458 16.1519C209.737 29.2955 228.188 49.5559 239.104 73.9587C250.02 98.3615 252.825 125.621 247.107 151.735C241.39 177.85 227.45 201.443 207.336 219.052C187.222 236.661 161.992 247.357 135.351 249.571C108.71 251.784 82.0608 245.399 59.316 231.351C36.5713 217.304 18.9293 196.335 8.97983 171.522C0.97744 151.565 -1.70942 129.968 1.0516 108.819C2.1687 100.262 10.806 95.2547 19.1568 97.4299C27.5076 99.6051 32.3735 108.151 31.6139 116.747C30.3228 131.357 32.4721 146.144 37.9849 159.892C45.4469 178.501 58.6785 194.228 75.737 204.764C92.7956 215.299 112.782 220.088 132.763 218.428C152.744 216.768 171.666 208.745 186.752 195.539C201.838 182.332 212.292 164.637 216.581 145.052C220.869 125.466 218.765 105.021 210.578 86.719C202.391 68.417 188.553 53.2216 171.094 43.3639C158.195 36.0812 143.823 31.9952 129.17 31.3427C120.549 30.9588 112.722 25.0054 111.671 16.4403Z" fill="#5D6CB8"/>
<path fill-rule="evenodd" clip-rule="evenodd" d="M131.164 14.7454C131.17 14.3888 130.886 14.0946 130.53 14.0883L119.77 13.9005C119.413 13.8943 119.119 14.1784 119.113 14.5351L119.096 15.5062C119.089 15.8628 119.373 16.157 119.73 16.1632L130.49 16.3511C130.847 16.3573 131.141 16.0732 131.147 15.7165L131.164 14.7454Z" fill="white"/>
<path fill-rule="evenodd" clip-rule="evenodd" d="M130.315 14.6806C130.083 14.4482 129.701 14.4415 129.461 14.6657L124.618 19.1958C124.378 19.4199 124.372 19.7901 124.604 20.0225L125.258 20.6794C125.49 20.9118 125.872 20.9185 126.112 20.6943L130.955 16.1642C131.195 15.94 131.201 15.5699 130.969 15.3374L130.315 14.6806Z" fill="white"/>
<path fill-rule="evenodd" clip-rule="evenodd" d="M130.297 15.6937C130.057 15.9179 129.675 15.9112 129.443 15.6788L124.761 10.9825C124.529 10.75 124.536 10.3799 124.775 10.1557L125.453 9.5221C125.693 9.29791 126.075 9.30458 126.306 9.537L130.988 14.2333C131.22 14.4657 131.214 14.8359 130.974 15.0601L130.297 15.6937Z" fill="white"/>
</svg>
