<svg width="250" height="250" viewBox="0 0 250 250" fill="none" xmlns="http://www.w3.org/2000/svg">
<path d="M250 125C250 194.036 194.036 250 125 250C55.9644 250 0 194.036 0 125C0 55.9644 55.9644 0 125 0C194.036 0 250 55.9644 250 125ZM31.25 125C31.25 176.777 73.2233 218.75 125 218.75C176.777 218.75 218.75 176.777 218.75 125C218.75 73.2233 176.777 31.25 125 31.25C73.2233 31.25 31.25 73.2233 31.25 125Z" fill="#505C9C" fill-opacity="0.4"/>
<path d="M111.671 16.4403C110.619 7.87513 116.724 -0.0239473 125.354 0.000477798C139.777 0.0413025 154.125 2.57847 167.753 7.53843C186.289 14.2852 202.966 25.3233 216.419 39.7502C229.873 54.1771 239.72 71.5832 245.158 90.5454C250.595 109.507 251.467 129.487 247.703 148.851C243.939 168.215 235.646 186.413 223.501 201.958C211.357 217.502 195.705 229.952 177.827 238.288C159.949 246.625 140.352 250.612 120.638 249.924C106.144 249.418 91.8906 246.395 78.5022 241.03C70.492 237.82 67.7903 228.209 71.9739 220.662C76.1576 213.114 85.6448 210.526 93.7818 213.4C102.745 216.565 112.167 218.359 121.728 218.693C136.514 219.209 151.212 216.219 164.62 209.966C178.029 203.714 189.767 194.377 198.876 182.718C207.985 171.06 214.205 157.411 217.028 142.888C219.851 128.365 219.196 113.381 215.118 99.159C211.04 84.9374 203.654 71.8829 193.564 61.0627C183.474 50.2425 170.967 41.9639 157.064 36.9038C148.075 33.6318 138.667 31.7656 129.17 31.3428C120.549 30.9589 112.722 25.0054 111.671 16.4403Z" fill="#5D6CB8"/>
<path fill-rule="evenodd" clip-rule="evenodd" d="M131.164 14.7445C131.17 14.3878 130.886 14.0936 130.53 14.0874L119.77 13.8995C119.413 13.8933 119.119 14.1774 119.113 14.5341L119.096 15.5052C119.089 15.8618 119.373 16.156 119.73 16.1623L130.49 16.3501C130.847 16.3563 131.141 16.0722 131.147 15.7155L131.164 14.7445Z" fill="white"/>
<path fill-rule="evenodd" clip-rule="evenodd" d="M130.315 14.6796C130.083 14.4472 129.701 14.4405 129.461 14.6647L124.618 19.1948C124.378 19.419 124.372 19.7891 124.604 20.0216L125.258 20.6784C125.49 20.9108 125.872 20.9175 126.112 20.6933L130.955 16.1632C131.195 15.939 131.201 15.5689 130.969 15.3365L130.315 14.6796Z" fill="white"/>
<path fill-rule="evenodd" clip-rule="evenodd" d="M130.297 15.6946C130.057 15.9188 129.675 15.9122 129.443 15.6797L124.761 10.9834C124.529 10.751 124.536 10.3809 124.775 10.1567L125.453 9.52308C125.693 9.29889 126.075 9.30556 126.306 9.53798L130.988 14.2343C131.22 14.4667 131.214 14.8369 130.974 15.0611L130.297 15.6946Z" fill="white"/>
</svg>
