<svg width="250" height="250" viewBox="0 0 250 250" fill="none" xmlns="http://www.w3.org/2000/svg">
<path d="M250 125C250 194.036 194.036 250 125 250C55.9644 250 0 194.036 0 125C0 55.9644 55.9644 0 125 0C194.036 0 250 55.9644 250 125ZM31.25 125C31.25 176.777 73.2233 218.75 125 218.75C176.777 218.75 218.75 176.777 218.75 125C218.75 73.2233 176.777 31.25 125 31.25C73.2233 31.25 31.25 73.2233 31.25 125Z" fill="#505C9C" fill-opacity="0.4"/>
<path d="M250 125C250 194.036 194.036 250 125 250C55.9644 250 0 194.036 0 125C0 55.9644 55.9644 0 125 0C194.036 0 250 55.9644 250 125ZM31.25 125C31.25 176.777 73.2233 218.75 125 218.75C176.777 218.75 218.75 176.777 218.75 125C218.75 73.2233 176.777 31.25 125 31.25C73.2233 31.25 31.25 73.2233 31.25 125Z" fill="#5D6CB8"/>
<path fill-rule="evenodd" clip-rule="evenodd" d="M131.164 14.744C131.17 14.3873 130.886 14.0931 130.53 14.0869L119.77 13.8991C119.413 13.8928 119.119 14.1769 119.113 14.5336L119.096 15.5047C119.089 15.8614 119.373 16.1556 119.73 16.1618L130.49 16.3496C130.847 16.3558 131.141 16.0717 131.147 15.715L131.164 14.744Z" fill="white"/>
<path fill-rule="evenodd" clip-rule="evenodd" d="M130.315 14.6796C130.083 14.4472 129.701 14.4405 129.461 14.6647L124.618 19.1948C124.378 19.419 124.372 19.7891 124.604 20.0216L125.258 20.6784C125.49 20.9108 125.872 20.9175 126.112 20.6933L130.955 16.1632C131.195 15.939 131.201 15.5689 130.969 15.3365L130.315 14.6796Z" fill="white"/>
<path fill-rule="evenodd" clip-rule="evenodd" d="M130.297 15.6937C130.057 15.9179 129.675 15.9112 129.443 15.6788L124.761 10.9825C124.529 10.75 124.536 10.3799 124.775 10.1557L125.453 9.5221C125.693 9.29791 126.075 9.30458 126.306 9.537L130.988 14.2333C131.22 14.4657 131.214 14.8359 130.974 15.0601L130.297 15.6937Z" fill="white"/>
<path d="M125 49.8591C125 47.1755 127.178 44.9846 129.856 45.1475C146.095 46.1348 161.691 52.0551 174.528 62.1746C188.639 73.2995 198.595 88.8514 202.79 106.324C206.984 123.797 205.175 142.174 197.651 158.493C190.128 174.812 177.33 188.123 161.319 196.281C145.308 204.439 127.017 206.969 109.393 203.463C91.7685 199.957 75.8378 190.62 64.1675 176.956C52.4972 163.292 45.7672 146.096 45.0617 128.141C44.4199 111.808 48.7972 95.7106 57.5435 81.9927C58.9862 79.7299 62.0387 79.2559 64.2098 80.8333C66.3809 82.4107 66.8463 85.4414 65.4227 87.7163C57.9491 99.6582 54.2164 113.608 54.7724 127.759C55.3922 143.534 61.3047 158.64 71.5573 170.644C81.8099 182.649 95.8054 190.851 111.289 193.931C126.772 197.011 142.841 194.788 156.907 187.622C170.973 180.455 182.217 168.761 188.826 154.424C195.435 140.088 197.025 123.943 193.34 108.593C189.655 93.2426 180.909 79.5799 168.511 69.8066C157.389 61.0387 143.91 55.8591 129.856 54.8861C127.178 54.7008 125 52.5427 125 49.8591Z" fill="white"/>
</svg>
