<svg width="250" height="250" viewBox="0 0 250 250" fill="none" xmlns="http://www.w3.org/2000/svg">
<path d="M250 125C250 194.036 194.036 250 125 250C55.9644 250 0 194.036 0 125C0 55.9644 55.9644 0 125 0C194.036 0 250 55.9644 250 125ZM31.25 125C31.25 176.777 73.2233 218.75 125 218.75C176.777 218.75 218.75 176.777 218.75 125C218.75 73.2233 176.777 31.25 125 31.25C73.2233 31.25 31.25 73.2233 31.25 125Z" fill="#505C9C" fill-opacity="0.4"/>
<path d="M111.671 16.4403C110.619 7.87513 116.725 -0.0241726 125.354 0.000180132C150.651 0.0715683 175.468 7.82358 196.429 22.4187C221.686 40.0056 239.567 66.2923 246.647 96.2438C253.728 126.195 249.509 157.706 234.8 184.741C220.091 211.775 195.925 232.433 166.931 242.757C137.938 253.081 106.154 252.346 77.6689 240.693C49.1835 229.039 25.9987 207.286 12.5553 179.6C-0.888188 151.914 -3.64521 120.242 4.81227 90.6502C11.831 66.0921 26.1637 44.3994 45.722 28.3559C52.3939 22.883 62.1183 25.1454 66.7167 32.4476C71.3151 39.7498 69.012 49.3103 62.5739 55.0565C49.4215 66.7954 39.7616 82.0846 34.8592 99.2376C28.5161 121.432 30.5839 145.186 40.6665 165.95C50.749 186.714 68.1376 203.029 89.5017 211.769C110.866 220.51 134.703 221.061 156.449 213.318C178.194 205.575 196.318 190.081 207.35 169.806C218.382 149.53 221.546 125.897 216.236 103.433C210.925 80.9692 197.514 61.2542 178.572 48.064C163.931 37.8698 146.782 32.1269 129.17 31.3426C120.55 30.9586 112.722 25.0054 111.671 16.4403Z" fill="#5D6CB8"/>
<path fill-rule="evenodd" clip-rule="evenodd" d="M131.164 14.7454C131.17 14.3888 130.886 14.0946 130.53 14.0883L119.77 13.9005C119.413 13.8943 119.119 14.1784 119.113 14.5351L119.096 15.5062C119.089 15.8628 119.373 16.157 119.73 16.1632L130.49 16.3511C130.847 16.3573 131.141 16.0732 131.147 15.7165L131.164 14.7454Z" fill="white"/>
<path fill-rule="evenodd" clip-rule="evenodd" d="M130.315 14.6806C130.083 14.4482 129.701 14.4415 129.461 14.6657L124.618 19.1958C124.378 19.4199 124.372 19.7901 124.604 20.0225L125.258 20.6794C125.49 20.9118 125.872 20.9185 126.112 20.6943L130.955 16.1642C131.195 15.94 131.201 15.5699 130.969 15.3374L130.315 14.6806Z" fill="white"/>
<path fill-rule="evenodd" clip-rule="evenodd" d="M130.297 15.6937C130.057 15.9179 129.675 15.9112 129.443 15.6788L124.761 10.9825C124.529 10.75 124.536 10.3799 124.775 10.1557L125.453 9.5221C125.693 9.29791 126.075 9.30458 126.306 9.537L130.988 14.2333C131.22 14.4657 131.214 14.8359 130.974 15.0601L130.297 15.6937Z" fill="white"/>
</svg>
