<svg width="250" height="250" viewBox="0 0 250 250" fill="none" xmlns="http://www.w3.org/2000/svg">
<path d="M250 125C250 194.036 194.036 250 125 250C55.9644 250 0 194.036 0 125C0 55.9644 55.9644 0 125 0C194.036 0 250 55.9644 250 125ZM31.25 125C31.25 176.777 73.2233 218.75 125 218.75C176.777 218.75 218.75 176.777 218.75 125C218.75 73.2233 176.777 31.25 125 31.25C73.2233 31.25 31.25 73.2233 31.25 125Z" fill="#505C9C" fill-opacity="0.4"/>
<path d="M250 125C250 194.036 194.036 250 125 250C55.9644 250 0 194.036 0 125C0 55.9644 55.9644 0 125 0C194.036 0 250 55.9644 250 125ZM31.25 125C31.25 176.777 73.2233 218.75 125 218.75C176.777 218.75 218.75 176.777 218.75 125C218.75 73.2233 176.777 31.25 125 31.25C73.2233 31.25 31.25 73.2233 31.25 125Z" fill="#5D6CB8"/>
<path fill-rule="evenodd" clip-rule="evenodd" d="M131.164 14.7454C131.17 14.3888 130.886 14.0946 130.53 14.0883L119.77 13.9005C119.413 13.8943 119.119 14.1784 119.113 14.5351L119.096 15.5062C119.089 15.8628 119.373 16.157 119.73 16.1632L130.49 16.3511C130.847 16.3573 131.141 16.0732 131.147 15.7165L131.164 14.7454Z" fill="white"/>
<path fill-rule="evenodd" clip-rule="evenodd" d="M130.315 14.6806C130.083 14.4482 129.701 14.4415 129.461 14.6657L124.618 19.1958C124.378 19.4199 124.372 19.7901 124.604 20.0225L125.258 20.6794C125.49 20.9118 125.872 20.9185 126.112 20.6943L130.955 16.1642C131.195 15.94 131.201 15.5699 130.969 15.3374L130.315 14.6806Z" fill="white"/>
<path fill-rule="evenodd" clip-rule="evenodd" d="M130.297 15.6937C130.057 15.9179 129.675 15.9112 129.443 15.6788L124.761 10.9825C124.529 10.75 124.536 10.3799 124.775 10.1557L125.453 9.5221C125.693 9.29791 126.075 9.30458 126.306 9.537L130.988 14.2333C131.22 14.4657 131.214 14.8359 130.974 15.0601L130.297 15.6937Z" fill="white"/>
<path fill-rule="evenodd" clip-rule="evenodd" d="M98.4749 121.97C97.108 123.337 97.108 125.553 98.4749 126.92L114.738 143.184C116.105 144.55 118.321 144.55 119.688 143.184C121.055 141.817 121.055 139.601 119.688 138.234L103.425 121.97C102.058 120.604 99.8417 120.604 98.4749 121.97Z" fill="white"/>
<path fill-rule="evenodd" clip-rule="evenodd" d="M115.475 143.244C116.842 144.611 119.058 144.611 120.425 143.244L137.395 126.273C138.762 124.906 138.762 122.69 137.395 121.324C136.028 119.957 133.812 119.957 132.445 121.324L115.475 138.294C114.108 139.661 114.108 141.877 115.475 143.244Z" fill="white"/>
<path d="M205 125C205 169.183 169.183 205 125 205C80.8172 205 45 169.183 45 125C45 80.8172 80.8172 45 125 45C169.183 45 205 80.8172 205 125ZM54.7182 125C54.7182 163.816 86.1845 195.282 125 195.282C163.816 195.282 195.282 163.816 195.282 125C195.282 86.1845 163.816 54.7182 125 54.7182C86.1845 54.7182 54.7182 86.1845 54.7182 125Z" fill="white"/>
</svg>
