<svg width="250" height="250" viewBox="0 0 250 250" fill="none" xmlns="http://www.w3.org/2000/svg">
<path d="M250 125C250 194.036 194.036 250 125 250C55.9644 250 0 194.036 0 125C0 55.9644 55.9644 0 125 0C194.036 0 250 55.9644 250 125ZM31.25 125C31.25 176.777 73.2233 218.75 125 218.75C176.777 218.75 218.75 176.777 218.75 125C218.75 73.2233 176.777 31.25 125 31.25C73.2233 31.25 31.25 73.2233 31.25 125Z" fill="#505C9C" fill-opacity="0.4"/>
<path d="M111.671 16.4403C110.619 7.87513 116.724 -0.0240682 125.354 0.000317568C147.673 0.0633881 169.671 6.1047 189.005 17.63C212.834 31.8346 231.26 53.5621 241.382 79.3904C251.504 105.219 252.747 133.68 244.914 160.293C237.082 186.905 220.619 210.156 198.12 226.383C175.62 242.61 148.362 250.892 120.638 249.924C92.9135 248.956 66.2992 238.793 44.9863 221.035C23.6734 203.278 8.87292 178.936 2.91596 151.842C-1.91741 129.858 -0.705902 107.077 6.27916 85.8796C8.97989 77.6836 18.4024 74.3837 26.1977 78.0852C33.993 81.7867 37.1714 91.0928 34.8145 99.3942C30.6066 114.215 30.0942 129.928 33.437 145.131C37.9047 165.452 49.005 183.709 64.9897 197.027C80.9744 210.345 100.935 217.967 121.728 218.693C142.521 219.419 162.965 213.208 179.84 201.037C196.715 188.867 209.061 171.429 214.936 151.47C220.81 131.51 219.878 110.164 212.286 90.7928C204.695 71.4215 190.875 55.1259 173.004 44.4725C159.633 36.5016 144.562 32.0281 129.17 31.3427C120.549 30.9588 112.722 25.0054 111.671 16.4403Z" fill="#5D6CB8"/>
<path fill-rule="evenodd" clip-rule="evenodd" d="M131.164 14.7454C131.17 14.3888 130.886 14.0946 130.53 14.0883L119.77 13.9005C119.413 13.8943 119.119 14.1784 119.113 14.5351L119.096 15.5062C119.089 15.8628 119.373 16.157 119.73 16.1632L130.49 16.3511C130.847 16.3573 131.141 16.0732 131.147 15.7165L131.164 14.7454Z" fill="white"/>
<path fill-rule="evenodd" clip-rule="evenodd" d="M130.315 14.6806C130.083 14.4482 129.701 14.4415 129.461 14.6657L124.618 19.1958C124.378 19.4199 124.372 19.7901 124.604 20.0225L125.258 20.6794C125.49 20.9118 125.872 20.9185 126.112 20.6943L130.955 16.1642C131.195 15.94 131.201 15.5699 130.969 15.3374L130.315 14.6806Z" fill="white"/>
<path fill-rule="evenodd" clip-rule="evenodd" d="M130.297 15.6937C130.057 15.9179 129.675 15.9112 129.443 15.6788L124.761 10.9825C124.529 10.75 124.536 10.3799 124.775 10.1557L125.453 9.5221C125.693 9.29791 126.075 9.30458 126.306 9.537L130.988 14.2333C131.22 14.4657 131.214 14.8359 130.974 15.0601L130.297 15.6937Z" fill="white"/>
</svg>
