<svg width="250" height="250" viewBox="0 0 250 250" fill="none" xmlns="http://www.w3.org/2000/svg">
<path d="M250 125C250 194.036 194.036 250 125 250C55.9644 250 0 194.036 0 125C0 55.9644 55.9644 0 125 0C194.036 0 250 55.9644 250 125ZM31.25 125C31.25 176.777 73.2233 218.75 125 218.75C176.777 218.75 218.75 176.777 218.75 125C218.75 73.2233 176.777 31.25 125 31.25C73.2233 31.25 31.25 73.2233 31.25 125Z" fill="#505C9C" fill-opacity="0.4"/>
<path d="M111.671 16.4403C110.619 7.87513 116.724 -0.023923 125.354 0.000492252C137.156 0.0338842 148.92 1.7387 160.293 5.08576C176.674 9.90712 191.894 18.0338 205.014 28.9646C218.133 39.8953 228.874 53.3982 236.573 68.6403C244.273 83.8824 248.767 100.54 249.78 117.587C250.793 134.633 248.302 151.706 242.462 167.753C236.621 183.799 227.555 198.479 215.822 210.886C204.089 223.293 189.938 233.165 174.243 239.892C163.347 244.562 151.867 247.648 140.151 249.078C131.586 250.124 124.588 243.004 124.618 234.374C124.648 225.745 131.715 218.907 140.23 217.505C147.674 216.279 154.963 214.156 161.932 211.169C173.704 206.124 184.317 198.72 193.116 189.414C201.916 180.109 208.716 169.099 213.096 157.064C217.477 145.03 219.345 132.225 218.585 119.44C217.825 106.655 214.454 94.1618 208.68 82.7302C202.905 71.2987 194.85 61.1715 185.01 52.9734C175.171 44.7754 163.756 38.6803 151.47 35.0643C144.195 32.9234 136.707 31.6784 129.17 31.3428C120.549 30.9589 112.722 25.0054 111.671 16.4403Z" fill="#5D6CB8"/>
<path fill-rule="evenodd" clip-rule="evenodd" d="M131.164 14.7445C131.17 14.3878 130.886 14.0936 130.53 14.0874L119.77 13.8995C119.413 13.8933 119.119 14.1774 119.113 14.5341L119.096 15.5052C119.089 15.8618 119.373 16.156 119.73 16.1623L130.49 16.3501C130.847 16.3563 131.141 16.0722 131.147 15.7155L131.164 14.7445Z" fill="white"/>
<path fill-rule="evenodd" clip-rule="evenodd" d="M130.315 14.6796C130.083 14.4472 129.701 14.4405 129.461 14.6647L124.618 19.1948C124.378 19.419 124.372 19.7891 124.604 20.0216L125.258 20.6784C125.49 20.9108 125.872 20.9175 126.112 20.6933L130.955 16.1632C131.195 15.939 131.201 15.5689 130.969 15.3365L130.315 14.6796Z" fill="white"/>
<path fill-rule="evenodd" clip-rule="evenodd" d="M130.297 15.6946C130.057 15.9188 129.675 15.9122 129.443 15.6797L124.761 10.9834C124.529 10.751 124.536 10.3809 124.775 10.1567L125.453 9.52308C125.693 9.29889 126.075 9.30556 126.306 9.53798L130.988 14.2343C131.22 14.4667 131.214 14.8369 130.974 15.0611L130.297 15.6946Z" fill="white"/>
</svg>
