<svg width="250" height="250" viewBox="0 0 250 250" fill="none" xmlns="http://www.w3.org/2000/svg">
<path d="M250 125C250 194.036 194.036 250 125 250C55.9644 250 0 194.036 0 125C0 55.9644 55.9644 0 125 0C194.036 0 250 55.9644 250 125ZM31.25 125C31.25 176.777 73.2233 218.75 125 218.75C176.777 218.75 218.75 176.777 218.75 125C218.75 73.2233 176.777 31.25 125 31.25C73.2233 31.25 31.25 73.2233 31.25 125Z" fill="#505C9C" fill-opacity="0.4"/>
<path d="M111.671 16.4403C110.619 7.87513 116.724 -0.0240478 125.354 0.000372514C146.023 0.0588633 166.443 5.24417 184.741 15.2C207.634 27.6557 226.061 46.9555 237.445 70.3998C248.829 93.8441 252.6 120.26 248.231 145.954C243.863 171.647 231.572 195.332 213.079 213.696C194.586 232.061 170.816 244.185 145.093 248.375C119.37 252.564 92.9804 248.608 69.6161 237.061C46.2518 225.513 27.0812 206.952 14.7856 183.973C4.95776 165.605 -0.0848583 145.15 0.000948037 124.481C0.0367728 115.852 7.97839 109.802 16.536 110.913C25.0935 112.024 30.9922 119.893 31.3159 128.516C31.8476 142.681 35.588 156.612 42.3392 169.23C51.5609 186.464 65.9389 200.385 83.4621 209.046C100.985 217.706 120.777 220.673 140.07 217.531C159.362 214.389 177.19 205.295 191.059 191.522C204.929 177.749 214.147 159.985 217.423 140.715C220.7 121.445 217.872 101.633 209.334 84.0498C200.796 66.4666 186.975 51.9918 169.806 42.65C157.236 35.8109 143.331 31.9733 129.17 31.3427C120.549 30.9588 112.722 25.0054 111.671 16.4403Z" fill="#5D6CB8"/>
<path fill-rule="evenodd" clip-rule="evenodd" d="M131.164 14.7454C131.17 14.3888 130.886 14.0946 130.53 14.0883L119.77 13.9005C119.413 13.8943 119.119 14.1784 119.113 14.5351L119.096 15.5062C119.089 15.8628 119.373 16.157 119.73 16.1632L130.49 16.3511C130.847 16.3573 131.141 16.0732 131.147 15.7165L131.164 14.7454Z" fill="white"/>
<path fill-rule="evenodd" clip-rule="evenodd" d="M130.315 14.6806C130.083 14.4482 129.701 14.4415 129.461 14.6657L124.618 19.1958C124.378 19.4199 124.372 19.7901 124.604 20.0225L125.258 20.6794C125.49 20.9118 125.872 20.9185 126.112 20.6943L130.955 16.1642C131.195 15.94 131.201 15.5699 130.969 15.3374L130.315 14.6806Z" fill="white"/>
<path fill-rule="evenodd" clip-rule="evenodd" d="M130.297 15.6937C130.057 15.9179 129.675 15.9112 129.443 15.6788L124.761 10.9825C124.529 10.75 124.536 10.3799 124.775 10.1557L125.453 9.5221C125.693 9.29791 126.075 9.30458 126.306 9.537L130.988 14.2333C131.22 14.4657 131.214 14.8359 130.974 15.0601L130.297 15.6937Z" fill="white"/>
</svg>
