<svg width="250" height="250" viewBox="0 0 250 250" fill="none" xmlns="http://www.w3.org/2000/svg">
<path d="M250 125C250 194.036 194.036 250 125 250C55.9644 250 0 194.036 0 125C0 55.9644 55.9644 0 125 0C194.036 0 250 55.9644 250 125ZM31.25 125C31.25 176.777 73.2233 218.75 125 218.75C176.777 218.75 218.75 176.777 218.75 125C218.75 73.2233 176.777 31.25 125 31.25C73.2233 31.25 31.25 73.2233 31.25 125Z" fill="#505C9C" fill-opacity="0.4"/>
<path d="M250 125C250 194.036 194.036 250 125 250C55.9644 250 0 194.036 0 125C0 55.9644 55.9644 0 125 0C194.036 0 250 55.9644 250 125ZM31.25 125C31.25 176.777 73.2233 218.75 125 218.75C176.777 218.75 218.75 176.777 218.75 125C218.75 73.2233 176.777 31.25 125 31.25C73.2233 31.25 31.25 73.2233 31.25 125Z" fill="#5D6CB8"/>
<path fill-rule="evenodd" clip-rule="evenodd" d="M131.164 14.7445C131.17 14.3878 130.886 14.0936 130.53 14.0874L119.77 13.8995C119.413 13.8933 119.119 14.1774 119.113 14.5341L119.096 15.5052C119.089 15.8618 119.373 16.156 119.73 16.1623L130.49 16.3501C130.847 16.3563 131.141 16.0722 131.147 15.7155L131.164 14.7445Z" fill="white"/>
<path fill-rule="evenodd" clip-rule="evenodd" d="M130.315 14.6796C130.083 14.4472 129.701 14.4405 129.461 14.6647L124.618 19.1948C124.378 19.419 124.372 19.7891 124.604 20.0216L125.258 20.6784C125.49 20.9108 125.872 20.9175 126.112 20.6933L130.955 16.1632C131.195 15.939 131.201 15.5689 130.969 15.3365L130.315 14.6796Z" fill="white"/>
<path fill-rule="evenodd" clip-rule="evenodd" d="M130.297 15.6946C130.057 15.9188 129.675 15.9122 129.443 15.6797L124.761 10.9834C124.529 10.751 124.536 10.3809 124.775 10.1567L125.453 9.52308C125.693 9.29889 126.075 9.30556 126.306 9.53798L130.988 14.2343C131.22 14.4667 131.214 14.8369 130.974 15.0611L130.297 15.6946Z" fill="white"/>
<path d="M125 49.8591C125 47.1755 127.178 44.9846 129.857 45.1475C147.802 46.2384 164.912 53.3505 178.375 65.4085C193.047 78.5502 202.355 96.6429 204.517 116.221C206.678 135.8 201.541 155.487 190.089 171.513C178.636 187.539 161.674 198.777 142.451 203.073C123.229 207.37 103.096 204.424 85.9103 194.8C68.7245 185.175 55.6935 169.549 49.3132 150.913C42.9329 132.278 43.6518 111.944 51.3324 93.8058C58.3796 77.1633 70.8329 63.443 86.6061 54.8151C88.9605 53.5272 91.864 54.5823 93.0066 57.0105C94.1492 59.4387 93.0972 62.3187 90.7537 63.6263C77.1413 71.2215 66.3954 83.1565 60.2814 97.5952C53.5339 113.53 52.9022 131.394 58.5075 147.765C64.1127 164.137 75.5607 177.865 90.6588 186.321C105.757 194.776 123.444 197.364 140.331 193.589C157.219 189.814 172.121 179.942 182.182 165.863C192.243 151.784 196.756 134.488 194.857 117.288C192.958 100.088 184.781 84.1928 171.891 72.6475C160.211 62.1862 145.406 55.9625 129.855 54.8861C127.178 54.7007 125 52.5427 125 49.8591Z" fill="white"/>
</svg>
