<svg width="250" height="250" viewBox="0 0 250 250" fill="none" xmlns="http://www.w3.org/2000/svg">
<path d="M250 125C250 194.036 194.036 250 125 250C55.9644 250 0 194.036 0 125C0 55.9644 55.9644 0 125 0C194.036 0 250 55.9644 250 125ZM31.25 125C31.25 176.777 73.2233 218.75 125 218.75C176.777 218.75 218.75 176.777 218.75 125C218.75 73.2233 176.777 31.25 125 31.25C73.2233 31.25 31.25 73.2233 31.25 125Z" fill="#505C9C" fill-opacity="0.4"/>
<path d="M111.671 16.4403C110.619 7.87513 116.724 -0.023934 125.354 0.000484432C138.794 0.0385152 152.174 2.24407 164.973 6.5638C182.721 12.5539 198.896 22.4561 212.302 35.5384C225.708 48.6208 236.002 64.5488 242.424 82.145C248.846 99.7413 251.231 118.556 249.403 137.198C247.576 155.84 241.581 173.833 231.864 189.847C222.147 205.86 208.954 219.486 193.263 229.715C177.571 239.944 159.781 246.516 141.208 248.945C127.813 250.696 114.259 250.261 101.068 247.688C92.5977 246.035 88.1431 237.101 90.8383 228.903C93.5336 220.705 102.368 216.386 110.899 217.683C119.57 219.003 128.408 219.102 137.156 217.959C151.086 216.137 164.428 211.208 176.197 203.536C187.966 195.864 197.86 185.645 205.148 173.635C212.436 161.625 216.932 148.13 218.303 134.148C219.673 120.167 217.885 106.056 213.068 92.8588C208.252 79.6616 200.531 67.7156 190.476 57.9038C180.422 48.0921 168.291 40.6654 154.98 36.1728C146.621 33.3517 137.932 31.7329 129.17 31.3428C120.549 30.9589 112.722 25.0054 111.671 16.4403Z" fill="#5D6CB8"/>
<path fill-rule="evenodd" clip-rule="evenodd" d="M131.164 14.7445C131.17 14.3878 130.886 14.0936 130.53 14.0874L119.77 13.8995C119.413 13.8933 119.119 14.1774 119.113 14.5341L119.096 15.5052C119.089 15.8618 119.373 16.156 119.73 16.1623L130.49 16.3501C130.847 16.3563 131.141 16.0722 131.147 15.7155L131.164 14.7445Z" fill="white"/>
<path fill-rule="evenodd" clip-rule="evenodd" d="M130.315 14.6796C130.083 14.4472 129.701 14.4405 129.461 14.6647L124.618 19.1948C124.378 19.419 124.372 19.7891 124.604 20.0216L125.258 20.6784C125.49 20.9108 125.872 20.9175 126.112 20.6933L130.955 16.1632C131.195 15.939 131.201 15.5689 130.969 15.3365L130.315 14.6796Z" fill="white"/>
<path fill-rule="evenodd" clip-rule="evenodd" d="M130.297 15.6946C130.057 15.9188 129.675 15.9122 129.443 15.6797L124.761 10.9834C124.529 10.751 124.536 10.3809 124.775 10.1567L125.453 9.52308C125.693 9.29889 126.075 9.30556 126.306 9.53798L130.988 14.2343C131.22 14.4667 131.214 14.8369 130.974 15.0611L130.297 15.6946Z" fill="white"/>
</svg>
