<svg width="250" height="250" viewBox="0 0 250 250" fill="none" xmlns="http://www.w3.org/2000/svg">
<path d="M250 125C250 194.036 194.036 250 125 250C55.9644 250 0 194.036 0 125C0 55.9644 55.9644 0 125 0C194.036 0 250 55.9644 250 125ZM31.25 125C31.25 176.777 73.2233 218.75 125 218.75C176.777 218.75 218.75 176.777 218.75 125C218.75 73.2233 176.777 31.25 125 31.25C73.2233 31.25 31.25 73.2233 31.25 125Z" fill="#505C9C" fill-opacity="0.4"/>
<path d="M111.671 16.4403C110.619 7.87513 116.724 -0.0239531 125.354 0.000468769C140.761 0.044073 156.074 2.9363 170.508 8.57828C189.808 16.1226 206.93 28.3469 220.334 44.1513C233.737 59.9557 243 78.8444 247.291 99.1178C251.582 119.391 250.765 140.413 244.914 160.293C239.063 180.172 228.362 198.285 213.773 213.002C199.184 227.719 181.165 238.578 161.338 244.602C141.51 250.626 120.496 251.626 100.186 247.512C84.9971 244.436 70.5585 238.572 57.5839 230.262C50.317 225.608 49.4642 215.661 54.988 209.031C60.5118 202.401 70.3159 201.637 77.7703 205.984C86.6178 211.144 96.2822 214.837 106.389 216.884C121.622 219.969 137.383 219.219 152.253 214.701C167.124 210.183 180.638 202.039 191.58 191.001C202.522 179.964 210.548 166.379 214.936 151.47C219.324 136.56 219.936 120.793 216.718 105.588C213.5 90.3833 206.553 76.2168 196.5 64.3635C186.448 52.5102 173.606 43.342 159.131 37.6837C149.526 33.9293 139.402 31.7984 129.17 31.3428C120.549 30.9589 112.722 25.0054 111.671 16.4403Z" fill="#5D6CB8"/>
<path fill-rule="evenodd" clip-rule="evenodd" d="M131.164 14.7445C131.17 14.3878 130.886 14.0936 130.53 14.0874L119.77 13.8995C119.413 13.8933 119.119 14.1774 119.113 14.5341L119.096 15.5052C119.089 15.8618 119.373 16.156 119.73 16.1623L130.49 16.3501C130.847 16.3563 131.141 16.0722 131.147 15.7155L131.164 14.7445Z" fill="white"/>
<path fill-rule="evenodd" clip-rule="evenodd" d="M130.315 14.6796C130.083 14.4472 129.701 14.4405 129.461 14.6647L124.618 19.1948C124.378 19.419 124.372 19.7891 124.604 20.0216L125.258 20.6784C125.49 20.9108 125.872 20.9175 126.112 20.6933L130.955 16.1632C131.195 15.939 131.201 15.5689 130.969 15.3365L130.315 14.6796Z" fill="white"/>
<path fill-rule="evenodd" clip-rule="evenodd" d="M130.297 15.6946C130.057 15.9188 129.675 15.9122 129.443 15.6797L124.761 10.9834C124.529 10.751 124.536 10.3809 124.775 10.1567L125.453 9.52308C125.693 9.29889 126.075 9.30556 126.306 9.53798L130.988 14.2343C131.22 14.4667 131.214 14.8369 130.974 15.0611L130.297 15.6946Z" fill="white"/>
</svg>
