<svg width="250" height="250" viewBox="0 0 250 250" fill="none" xmlns="http://www.w3.org/2000/svg">
<path d="M250 125C250 194.036 194.036 250 125 250C55.9644 250 0 194.036 0 125C0 55.9644 55.9644 0 125 0C194.036 0 250 55.9644 250 125ZM31.25 125C31.25 176.777 73.2233 218.75 125 218.75C176.777 218.75 218.75 176.777 218.75 125C218.75 73.2233 176.777 31.25 125 31.25C73.2233 31.25 31.25 73.2233 31.25 125Z" fill="#505C9C" fill-opacity="0.4"/>
<path d="M111.671 16.4403C110.619 7.87513 116.724 -0.0239811 125.354 0.000448932C142.403 0.0487152 159.32 3.58503 175.044 10.4547C195.557 19.4169 213.288 33.7237 226.383 51.8803C239.478 70.0369 247.457 91.3769 249.486 113.671C251.514 135.965 247.519 158.395 237.917 178.617C228.315 198.839 213.458 216.112 194.899 228.63C176.34 241.148 154.76 248.452 132.413 249.78C110.067 251.108 87.7734 246.41 67.8628 236.177C52.6012 228.334 39.1688 217.459 28.3559 204.278C22.8829 197.606 25.1455 187.882 32.4476 183.283C39.7498 178.685 49.3103 180.988 55.0565 187.426C62.6939 195.983 71.8672 203.1 82.1471 208.383C97.08 216.057 113.8 219.581 130.56 218.585C147.32 217.589 163.505 212.111 177.424 202.722C191.344 193.334 202.486 180.379 209.688 165.213C216.889 150.046 219.886 133.224 218.364 116.503C216.842 99.7827 210.858 83.7777 201.037 70.1602C191.216 56.5428 177.918 45.8127 162.533 39.091C151.941 34.4638 140.628 31.853 129.17 31.3428C120.549 30.9589 112.722 25.0054 111.671 16.4403Z" fill="#5D6CB8"/>
<path fill-rule="evenodd" clip-rule="evenodd" d="M131.164 14.7445C131.17 14.3878 130.886 14.0936 130.53 14.0874L119.77 13.8995C119.413 13.8933 119.119 14.1774 119.113 14.5341L119.096 15.5052C119.089 15.8618 119.373 16.156 119.73 16.1623L130.49 16.3501C130.847 16.3563 131.141 16.0722 131.147 15.7155L131.164 14.7445Z" fill="white"/>
<path fill-rule="evenodd" clip-rule="evenodd" d="M130.315 14.6796C130.083 14.4472 129.701 14.4405 129.461 14.6647L124.618 19.1948C124.378 19.419 124.372 19.7891 124.604 20.0216L125.258 20.6784C125.49 20.9108 125.872 20.9175 126.112 20.6933L130.955 16.1632C131.195 15.939 131.201 15.5689 130.969 15.3365L130.315 14.6796Z" fill="white"/>
<path fill-rule="evenodd" clip-rule="evenodd" d="M130.297 15.6946C130.057 15.9188 129.675 15.9122 129.443 15.6797L124.761 10.9834C124.529 10.751 124.536 10.3809 124.775 10.1567L125.453 9.52308C125.693 9.29889 126.075 9.30556 126.306 9.53798L130.988 14.2343C131.22 14.4667 131.214 14.8369 130.974 15.0611L130.297 15.6946Z" fill="white"/>
</svg>
