<svg width="250" height="250" viewBox="0 0 250 250" fill="none" xmlns="http://www.w3.org/2000/svg">
<path d="M250 125C250 194.036 194.036 250 125 250C55.9644 250 0 194.036 0 125C0 55.9644 55.9644 0 125 0C194.036 0 250 55.9644 250 125ZM31.25 125C31.25 176.777 73.2233 218.75 125 218.75C176.777 218.75 218.75 176.777 218.75 125C218.75 73.2233 176.777 31.25 125 31.25C73.2233 31.25 31.25 73.2233 31.25 125Z" fill="#505C9C" fill-opacity="0.4"/>
<path d="M250 125C250 194.036 194.036 250 125 250C55.9644 250 0 194.036 0 125C0 55.9644 55.9644 0 125 0C194.036 0 250 55.9644 250 125ZM31.25 125C31.25 176.777 73.2233 218.75 125 218.75C176.777 218.75 218.75 176.777 218.75 125C218.75 73.2233 176.777 31.25 125 31.25C73.2233 31.25 31.25 73.2233 31.25 125Z" fill="#5D6CB8"/>
<path fill-rule="evenodd" clip-rule="evenodd" d="M131.164 14.744C131.17 14.3873 130.886 14.0931 130.53 14.0869L119.77 13.8991C119.413 13.8928 119.119 14.1769 119.113 14.5336L119.096 15.5047C119.089 15.8614 119.373 16.1556 119.73 16.1618L130.49 16.3496C130.847 16.3558 131.141 16.0717 131.147 15.715L131.164 14.744Z" fill="white"/>
<path fill-rule="evenodd" clip-rule="evenodd" d="M130.315 14.6796C130.083 14.4472 129.701 14.4405 129.461 14.6647L124.618 19.1948C124.378 19.419 124.372 19.7891 124.604 20.0216L125.258 20.6784C125.49 20.9108 125.872 20.9175 126.112 20.6933L130.955 16.1632C131.195 15.939 131.201 15.5689 130.969 15.3365L130.315 14.6796Z" fill="white"/>
<path fill-rule="evenodd" clip-rule="evenodd" d="M130.297 15.6937C130.057 15.9179 129.675 15.9112 129.443 15.6788L124.761 10.9825C124.529 10.75 124.536 10.3799 124.775 10.1557L125.453 9.5221C125.693 9.29791 126.075 9.30458 126.306 9.537L130.988 14.2333C131.22 14.4657 131.214 14.8359 130.974 15.0601L130.297 15.6937Z" fill="white"/>
<path d="M125 49.8591C125 47.1755 127.178 44.9846 129.856 45.1475C144.82 46.0573 159.263 51.1574 171.513 59.9113C185.084 69.6091 195.284 83.3062 200.687 99.0866C206.09 114.867 206.425 131.942 201.646 147.922C196.867 163.902 187.212 177.989 174.033 188.212C160.853 198.436 144.808 204.283 128.141 204.938C111.474 205.593 95.0192 201.022 81.0782 191.865C67.1371 182.707 56.4071 169.421 50.3889 153.865C44.9564 139.823 43.6085 124.565 46.4485 109.845C46.9569 107.21 49.6205 105.646 52.2198 106.313C54.8191 106.981 56.3676 109.627 55.8814 112.266C53.532 125.018 54.7513 138.207 59.4525 150.358C64.7396 164.025 74.1662 175.697 86.4137 183.742C98.6612 191.787 113.117 195.803 127.759 195.228C142.401 194.652 156.498 189.515 168.076 180.533C179.655 171.552 188.136 159.177 192.335 145.137C196.534 131.098 196.239 116.098 191.493 102.235C186.746 88.3711 177.785 76.3379 165.863 67.8182C155.262 60.2426 142.791 55.7818 129.856 54.8861C127.178 54.7008 125 52.5427 125 49.8591Z" fill="white"/>
</svg>
